%TF.GenerationSoftware,KiCad,Pcbnew,4.0.7*%
%TF.CreationDate,2018-03-09T05:36:50+01:00*%
%TF.ProjectId,vco,76636F2E6B696361645F706362000000,rev?*%
%TF.FileFunction,Soldermask,Bot*%
%FSLAX46Y46*%
G04 Gerber Fmt 4.6, Leading zero omitted, Abs format (unit mm)*
G04 Created by KiCad (PCBNEW 4.0.7) date 03/09/18 05:36:50*
%MOMM*%
%LPD*%
G01*
G04 APERTURE LIST*
%ADD10C,0.100000*%
%ADD11R,1.600000X1.600000*%
%ADD12R,2.000000X1.900000*%
%ADD13R,1.000000X1.950000*%
%ADD14C,2.200000*%
%ADD15C,4.400000*%
%ADD16R,2.300000X2.300000*%
%ADD17C,2.300000*%
%ADD18C,1.700000*%
%ADD19R,1.200000X1.300000*%
%ADD20R,1.900000X1.700000*%
%ADD21R,1.000000X1.900000*%
%ADD22R,1.900000X1.000000*%
%ADD23R,1.150000X1.200000*%
%ADD24R,1.650000X1.400000*%
%ADD25R,1.200000X1.150000*%
%ADD26R,1.400000X1.650000*%
%ADD27R,2.100000X1.700000*%
%ADD28R,1.100000X1.700000*%
%ADD29R,1.700000X1.100000*%
%ADD30R,1.900000X2.000000*%
%ADD31R,1.300000X2.100000*%
%ADD32R,2.100000X1.300000*%
G04 APERTURE END LIST*
D10*
D11*
X164050000Y-128070000D03*
X161250000Y-128070000D03*
D12*
X162650000Y-124830000D03*
D13*
X180155000Y-95500000D03*
X178885000Y-95500000D03*
X177615000Y-95500000D03*
X176345000Y-95500000D03*
X176345000Y-90100000D03*
X177615000Y-90100000D03*
X178885000Y-90100000D03*
X180155000Y-90100000D03*
D14*
X155500000Y-36900000D03*
X155500000Y-39400000D03*
X155500000Y-41900000D03*
D15*
X162500000Y-35000000D03*
X162500000Y-43800000D03*
D14*
X180500000Y-36900000D03*
X180500000Y-39400000D03*
X180500000Y-41900000D03*
D15*
X187500000Y-35000000D03*
X187500000Y-43800000D03*
D14*
X155500000Y-56900000D03*
X155500000Y-59400000D03*
X155500000Y-61900000D03*
D15*
X162500000Y-55000000D03*
X162500000Y-63800000D03*
D14*
X182300000Y-69600000D03*
X190400000Y-69600000D03*
X185000000Y-65000000D03*
D16*
X152650000Y-109750000D03*
D17*
X152650000Y-112250000D03*
X152650000Y-114750000D03*
X152650000Y-117250000D03*
X152650000Y-119750000D03*
X152650000Y-122250000D03*
X152650000Y-124750000D03*
X152650000Y-127250000D03*
X155150000Y-109750000D03*
X155150000Y-112250000D03*
X155150000Y-114750000D03*
X155150000Y-117250000D03*
X155150000Y-119750000D03*
X155150000Y-122250000D03*
X155150000Y-124750000D03*
X155150000Y-127250000D03*
D18*
X151310000Y-118500000D03*
D14*
X182300000Y-57100000D03*
X190400000Y-57100000D03*
X185000000Y-52500000D03*
X182300000Y-82100000D03*
X190400000Y-82100000D03*
X185000000Y-77500000D03*
X182300000Y-97100000D03*
X190400000Y-97100000D03*
X185000000Y-92500000D03*
X182300000Y-111600000D03*
X190400000Y-111600000D03*
X185000000Y-107000000D03*
X182300000Y-124600000D03*
X190400000Y-124600000D03*
X185000000Y-120000000D03*
X158700000Y-124700000D03*
X166800000Y-124700000D03*
X161400000Y-120100000D03*
X158700000Y-112200000D03*
X166800000Y-112200000D03*
X161400000Y-107600000D03*
X158700000Y-97200000D03*
X166800000Y-97200000D03*
X161400000Y-92600000D03*
X158700000Y-82200000D03*
X166800000Y-82200000D03*
X161400000Y-77600000D03*
D19*
X187700000Y-83400000D03*
X185800000Y-83400000D03*
X186750000Y-81400000D03*
D20*
X182200000Y-86000000D03*
X184900000Y-86000000D03*
D21*
X169905000Y-122950000D03*
X171175000Y-122950000D03*
X172445000Y-122950000D03*
X173715000Y-122950000D03*
X174985000Y-122950000D03*
X176255000Y-122950000D03*
X177525000Y-122950000D03*
X178795000Y-122950000D03*
X178795000Y-128350000D03*
X177525000Y-128350000D03*
X176255000Y-128350000D03*
X174985000Y-128350000D03*
X173715000Y-128350000D03*
X172445000Y-128350000D03*
X171175000Y-128350000D03*
X169905000Y-128350000D03*
D13*
X178505000Y-84800000D03*
X177235000Y-84800000D03*
X175965000Y-84800000D03*
X174695000Y-84800000D03*
X174695000Y-79400000D03*
X175965000Y-79400000D03*
X177235000Y-79400000D03*
X178505000Y-79400000D03*
X172655000Y-95450000D03*
X171385000Y-95450000D03*
X170115000Y-95450000D03*
X168845000Y-95450000D03*
X168845000Y-90050000D03*
X170115000Y-90050000D03*
X171385000Y-90050000D03*
X172655000Y-90050000D03*
D22*
X192250000Y-107810000D03*
X192250000Y-106540000D03*
X192250000Y-105270000D03*
X192250000Y-104000000D03*
X192250000Y-102730000D03*
X192250000Y-101460000D03*
X192250000Y-100190000D03*
X197650000Y-100190000D03*
X197650000Y-101460000D03*
X197650000Y-102730000D03*
X197650000Y-104000000D03*
X197650000Y-105270000D03*
X197650000Y-106540000D03*
X197650000Y-107810000D03*
D13*
X176305000Y-65100000D03*
X175035000Y-65100000D03*
X173765000Y-65100000D03*
X172495000Y-65100000D03*
X172495000Y-59700000D03*
X173765000Y-59700000D03*
X175035000Y-59700000D03*
X176305000Y-59700000D03*
X172745000Y-70600000D03*
X174015000Y-70600000D03*
X175285000Y-70600000D03*
X176555000Y-70600000D03*
X176555000Y-76000000D03*
X175285000Y-76000000D03*
X174015000Y-76000000D03*
X172745000Y-76000000D03*
D23*
X166800000Y-100150000D03*
X166800000Y-101650000D03*
D24*
X190800000Y-87250000D03*
X190800000Y-85250000D03*
D23*
X193250000Y-56900000D03*
X193250000Y-55400000D03*
D24*
X187100000Y-117100000D03*
X187100000Y-119100000D03*
X164200000Y-78450000D03*
X164200000Y-80450000D03*
X188600000Y-66750000D03*
X188600000Y-64750000D03*
D25*
X177800000Y-98900000D03*
X179300000Y-98900000D03*
D23*
X193950000Y-74600000D03*
X193950000Y-76100000D03*
D24*
X193850000Y-113650000D03*
X193850000Y-111650000D03*
X166050000Y-72300000D03*
X166050000Y-74300000D03*
D26*
X178550000Y-62600000D03*
X180550000Y-62600000D03*
X165200000Y-59550000D03*
X167200000Y-59550000D03*
D27*
X155200000Y-96600000D03*
X155200000Y-100100000D03*
D28*
X167450000Y-36550000D03*
X169350000Y-36550000D03*
X177000000Y-36550000D03*
X175100000Y-36550000D03*
X175150000Y-39450000D03*
X177050000Y-39450000D03*
X162150000Y-39300000D03*
X160250000Y-39300000D03*
D29*
X152990000Y-74890000D03*
X152990000Y-76790000D03*
D28*
X166550000Y-91900000D03*
X164650000Y-91900000D03*
X166800000Y-107300000D03*
X164900000Y-107300000D03*
D29*
X153000000Y-48800000D03*
X153000000Y-46900000D03*
D28*
X175150000Y-42200000D03*
X177050000Y-42200000D03*
D29*
X175000000Y-101600000D03*
X175000000Y-99700000D03*
X158500000Y-116050000D03*
X158500000Y-117950000D03*
X161850000Y-115400000D03*
X161850000Y-117300000D03*
X155200000Y-88700000D03*
X155200000Y-90600000D03*
X169750000Y-80300000D03*
X169750000Y-82200000D03*
X174500000Y-92300000D03*
X174500000Y-90400000D03*
D28*
X195950000Y-59950000D03*
X194050000Y-59950000D03*
D29*
X188500000Y-59450000D03*
X188500000Y-61350000D03*
D28*
X194050000Y-66000000D03*
X195950000Y-66000000D03*
X194100000Y-63050000D03*
X196000000Y-63050000D03*
D29*
X172150000Y-82200000D03*
X172150000Y-80300000D03*
X195050000Y-124350000D03*
X195050000Y-122450000D03*
D28*
X164800000Y-87150000D03*
X166700000Y-87150000D03*
X193350000Y-78800000D03*
X191450000Y-78800000D03*
D29*
X195950000Y-76050000D03*
X195950000Y-74150000D03*
X193750000Y-87200000D03*
X193750000Y-85300000D03*
X168750000Y-117000000D03*
X168750000Y-118900000D03*
X186200000Y-103300000D03*
X186200000Y-101400000D03*
X189200000Y-103150000D03*
X189200000Y-101250000D03*
X171500000Y-118900000D03*
X171500000Y-117000000D03*
X166550000Y-117000000D03*
X166550000Y-118900000D03*
D28*
X184900000Y-97100000D03*
X186800000Y-97100000D03*
X165300000Y-121850000D03*
X167200000Y-121850000D03*
D29*
X198350000Y-124300000D03*
X198350000Y-122400000D03*
X187450000Y-110900000D03*
X187450000Y-112800000D03*
D28*
X174450000Y-116600000D03*
X176350000Y-116600000D03*
D29*
X185000000Y-112750000D03*
X185000000Y-110850000D03*
X182300000Y-114800000D03*
X182300000Y-116700000D03*
X184700000Y-125400000D03*
X184700000Y-123500000D03*
X186950000Y-125400000D03*
X186950000Y-123500000D03*
D28*
X174550000Y-119100000D03*
X176450000Y-119100000D03*
D29*
X185100000Y-61350000D03*
X185100000Y-59450000D03*
D28*
X157800000Y-71000000D03*
X155900000Y-71000000D03*
D29*
X169650000Y-74200000D03*
X169650000Y-72300000D03*
D28*
X157850000Y-67600000D03*
X155950000Y-67600000D03*
D29*
X188650000Y-74350000D03*
X188650000Y-76250000D03*
D11*
X172120000Y-99400000D03*
X172120000Y-102200000D03*
D30*
X168880000Y-100800000D03*
D11*
X192150000Y-119970000D03*
X189350000Y-119970000D03*
D12*
X190750000Y-116730000D03*
D11*
X161460000Y-86140000D03*
X161460000Y-88940000D03*
D30*
X158220000Y-87540000D03*
D11*
X179500000Y-113220000D03*
X176700000Y-113220000D03*
D12*
X178100000Y-109980000D03*
D11*
X173000000Y-113170000D03*
X170200000Y-113170000D03*
D12*
X171600000Y-109930000D03*
D11*
X198350000Y-119220000D03*
X195550000Y-119220000D03*
D12*
X196950000Y-115980000D03*
D31*
X178600000Y-87450000D03*
X175700000Y-87450000D03*
D32*
X182250000Y-93950000D03*
X182250000Y-91050000D03*
M02*
