%TF.GenerationSoftware,KiCad,Pcbnew,4.0.7*%
%TF.CreationDate,2018-02-11T20:46:00+01:00*%
%TF.ProjectId,vco,76636F2E6B696361645F706362000000,rev?*%
%TF.FileFunction,Legend,Top*%
%FSLAX46Y46*%
G04 Gerber Fmt 4.6, Leading zero omitted, Abs format (unit mm)*
G04 Created by KiCad (PCBNEW 4.0.7) date 02/11/18 20:46:00*
%MOMM*%
%LPD*%
G01*
G04 APERTURE LIST*
%ADD10C,0.100000*%
%ADD11C,0.300000*%
%ADD12C,0.120000*%
%ADD13C,0.150000*%
G04 APERTURE END LIST*
D10*
D11*
X172428571Y-65192857D02*
X170928571Y-65192857D01*
X170928571Y-64621429D01*
X171000000Y-64478571D01*
X171071429Y-64407143D01*
X171214286Y-64335714D01*
X171428571Y-64335714D01*
X171571429Y-64407143D01*
X171642857Y-64478571D01*
X171714286Y-64621429D01*
X171714286Y-65192857D01*
X170928571Y-63835714D02*
X172428571Y-63478571D01*
X171357143Y-63192857D01*
X172428571Y-62907143D01*
X170928571Y-62550000D01*
X172428571Y-61978571D02*
X170928571Y-61978571D01*
X172000000Y-61478571D01*
X170928571Y-60978571D01*
X172428571Y-60978571D01*
X172000000Y-59192857D02*
X172000000Y-58478571D01*
X172428571Y-59335714D02*
X170928571Y-58835714D01*
X172428571Y-58335714D01*
X172428571Y-57835714D02*
X170928571Y-57835714D01*
X170928571Y-57478571D01*
X171000000Y-57264286D01*
X171142857Y-57121428D01*
X171285714Y-57050000D01*
X171571429Y-56978571D01*
X171785714Y-56978571D01*
X172071429Y-57050000D01*
X172214286Y-57121428D01*
X172357143Y-57264286D01*
X172428571Y-57478571D01*
X172428571Y-57835714D01*
X170928571Y-55907143D02*
X172000000Y-55907143D01*
X172214286Y-55978571D01*
X172357143Y-56121428D01*
X172428571Y-56335714D01*
X172428571Y-56478571D01*
X176692857Y-40407143D02*
X176692857Y-40907143D01*
X177478571Y-40907143D02*
X175978571Y-40907143D01*
X175978571Y-40192857D01*
X177478571Y-39621429D02*
X175978571Y-39621429D01*
X177478571Y-38907143D02*
X175978571Y-38907143D01*
X177478571Y-38050000D01*
X175978571Y-38050000D01*
X176692857Y-37335714D02*
X176692857Y-36835714D01*
X177478571Y-36621428D02*
X177478571Y-37335714D01*
X175978571Y-37335714D01*
X175978571Y-36621428D01*
X170685714Y-42507142D02*
X170757143Y-42578571D01*
X170828571Y-42792857D01*
X170828571Y-42935714D01*
X170757143Y-43149999D01*
X170614286Y-43292857D01*
X170471429Y-43364285D01*
X170185714Y-43435714D01*
X169971429Y-43435714D01*
X169685714Y-43364285D01*
X169542857Y-43292857D01*
X169400000Y-43149999D01*
X169328571Y-42935714D01*
X169328571Y-42792857D01*
X169400000Y-42578571D01*
X169471429Y-42507142D01*
X169328571Y-41578571D02*
X169328571Y-41292857D01*
X169400000Y-41149999D01*
X169542857Y-41007142D01*
X169828571Y-40935714D01*
X170328571Y-40935714D01*
X170614286Y-41007142D01*
X170757143Y-41149999D01*
X170828571Y-41292857D01*
X170828571Y-41578571D01*
X170757143Y-41721428D01*
X170614286Y-41864285D01*
X170328571Y-41935714D01*
X169828571Y-41935714D01*
X169542857Y-41864285D01*
X169400000Y-41721428D01*
X169328571Y-41578571D01*
X170400000Y-40364285D02*
X170400000Y-39649999D01*
X170828571Y-40507142D02*
X169328571Y-40007142D01*
X170828571Y-39507142D01*
X170828571Y-38149999D02*
X170114286Y-38649999D01*
X170828571Y-39007142D02*
X169328571Y-39007142D01*
X169328571Y-38435714D01*
X169400000Y-38292856D01*
X169471429Y-38221428D01*
X169614286Y-38149999D01*
X169828571Y-38149999D01*
X169971429Y-38221428D01*
X170042857Y-38292856D01*
X170114286Y-38435714D01*
X170114286Y-39007142D01*
X170757143Y-37578571D02*
X170828571Y-37364285D01*
X170828571Y-37007142D01*
X170757143Y-36864285D01*
X170685714Y-36792856D01*
X170542857Y-36721428D01*
X170400000Y-36721428D01*
X170257143Y-36792856D01*
X170185714Y-36864285D01*
X170114286Y-37007142D01*
X170042857Y-37292856D01*
X169971429Y-37435714D01*
X169900000Y-37507142D01*
X169757143Y-37578571D01*
X169614286Y-37578571D01*
X169471429Y-37507142D01*
X169400000Y-37435714D01*
X169328571Y-37292856D01*
X169328571Y-36935714D01*
X169400000Y-36721428D01*
X170042857Y-36078571D02*
X170042857Y-35578571D01*
X170828571Y-35364285D02*
X170828571Y-36078571D01*
X169328571Y-36078571D01*
X169328571Y-35364285D01*
X171635714Y-81242856D02*
X171707143Y-81314285D01*
X171778571Y-81528571D01*
X171778571Y-81671428D01*
X171707143Y-81885713D01*
X171564286Y-82028571D01*
X171421429Y-82099999D01*
X171135714Y-82171428D01*
X170921429Y-82171428D01*
X170635714Y-82099999D01*
X170492857Y-82028571D01*
X170350000Y-81885713D01*
X170278571Y-81671428D01*
X170278571Y-81528571D01*
X170350000Y-81314285D01*
X170421429Y-81242856D01*
X170278571Y-80814285D02*
X171778571Y-80314285D01*
X170278571Y-79814285D01*
X171778571Y-78528571D02*
X171778571Y-79385714D01*
X171778571Y-78957142D02*
X170278571Y-78957142D01*
X170492857Y-79099999D01*
X170635714Y-79242857D01*
X170707143Y-79385714D01*
X177707143Y-84078572D02*
X177778571Y-83864286D01*
X177778571Y-83507143D01*
X177707143Y-83364286D01*
X177635714Y-83292857D01*
X177492857Y-83221429D01*
X177350000Y-83221429D01*
X177207143Y-83292857D01*
X177135714Y-83364286D01*
X177064286Y-83507143D01*
X176992857Y-83792857D01*
X176921429Y-83935715D01*
X176850000Y-84007143D01*
X176707143Y-84078572D01*
X176564286Y-84078572D01*
X176421429Y-84007143D01*
X176350000Y-83935715D01*
X176278571Y-83792857D01*
X176278571Y-83435715D01*
X176350000Y-83221429D01*
X177921429Y-81578572D02*
X177850000Y-81721429D01*
X177707143Y-81864286D01*
X177492857Y-82078572D01*
X177421429Y-82221429D01*
X177421429Y-82364286D01*
X177778571Y-82292858D02*
X177707143Y-82435715D01*
X177564286Y-82578572D01*
X177278571Y-82650001D01*
X176778571Y-82650001D01*
X176492857Y-82578572D01*
X176350000Y-82435715D01*
X176278571Y-82292858D01*
X176278571Y-82007144D01*
X176350000Y-81864286D01*
X176492857Y-81721429D01*
X176778571Y-81650001D01*
X177278571Y-81650001D01*
X177564286Y-81721429D01*
X177707143Y-81864286D01*
X177778571Y-82007144D01*
X177778571Y-82292858D01*
X177778571Y-80150000D02*
X177064286Y-80650000D01*
X177778571Y-81007143D02*
X176278571Y-81007143D01*
X176278571Y-80435715D01*
X176350000Y-80292857D01*
X176421429Y-80221429D01*
X176564286Y-80150000D01*
X176778571Y-80150000D01*
X176921429Y-80221429D01*
X176992857Y-80292857D01*
X177064286Y-80435715D01*
X177064286Y-81007143D01*
X176278571Y-78078572D02*
X176278571Y-77792858D01*
X176350000Y-77650000D01*
X176492857Y-77507143D01*
X176778571Y-77435715D01*
X177278571Y-77435715D01*
X177564286Y-77507143D01*
X177707143Y-77650000D01*
X177778571Y-77792858D01*
X177778571Y-78078572D01*
X177707143Y-78221429D01*
X177564286Y-78364286D01*
X177278571Y-78435715D01*
X176778571Y-78435715D01*
X176492857Y-78364286D01*
X176350000Y-78221429D01*
X176278571Y-78078572D01*
X176278571Y-76792857D02*
X177492857Y-76792857D01*
X177635714Y-76721429D01*
X177707143Y-76650000D01*
X177778571Y-76507143D01*
X177778571Y-76221429D01*
X177707143Y-76078571D01*
X177635714Y-76007143D01*
X177492857Y-75935714D01*
X176278571Y-75935714D01*
X176278571Y-75435714D02*
X176278571Y-74578571D01*
X177778571Y-75007142D02*
X176278571Y-75007142D01*
X179428571Y-99107143D02*
X178714286Y-99607143D01*
X179428571Y-99964286D02*
X177928571Y-99964286D01*
X177928571Y-99392858D01*
X178000000Y-99250000D01*
X178071429Y-99178572D01*
X178214286Y-99107143D01*
X178428571Y-99107143D01*
X178571429Y-99178572D01*
X178642857Y-99250000D01*
X178714286Y-99392858D01*
X178714286Y-99964286D01*
X179428571Y-98464286D02*
X177928571Y-98464286D01*
X179000000Y-97964286D01*
X177928571Y-97464286D01*
X179428571Y-97464286D01*
X179428571Y-96750000D02*
X177928571Y-96750000D01*
X177928571Y-96178572D01*
X178000000Y-96035714D01*
X178071429Y-95964286D01*
X178214286Y-95892857D01*
X178428571Y-95892857D01*
X178571429Y-95964286D01*
X178642857Y-96035714D01*
X178714286Y-96178572D01*
X178714286Y-96750000D01*
X177928571Y-93821429D02*
X177928571Y-93535715D01*
X178000000Y-93392857D01*
X178142857Y-93250000D01*
X178428571Y-93178572D01*
X178928571Y-93178572D01*
X179214286Y-93250000D01*
X179357143Y-93392857D01*
X179428571Y-93535715D01*
X179428571Y-93821429D01*
X179357143Y-93964286D01*
X179214286Y-94107143D01*
X178928571Y-94178572D01*
X178428571Y-94178572D01*
X178142857Y-94107143D01*
X178000000Y-93964286D01*
X177928571Y-93821429D01*
X177928571Y-92535714D02*
X179142857Y-92535714D01*
X179285714Y-92464286D01*
X179357143Y-92392857D01*
X179428571Y-92250000D01*
X179428571Y-91964286D01*
X179357143Y-91821428D01*
X179285714Y-91750000D01*
X179142857Y-91678571D01*
X177928571Y-91678571D01*
X177928571Y-91178571D02*
X177928571Y-90321428D01*
X179428571Y-90749999D02*
X177928571Y-90749999D01*
X178178571Y-113450000D02*
X178178571Y-112592857D01*
X179678571Y-113021428D02*
X178178571Y-113021428D01*
X179678571Y-111235714D02*
X178964286Y-111735714D01*
X179678571Y-112092857D02*
X178178571Y-112092857D01*
X178178571Y-111521429D01*
X178250000Y-111378571D01*
X178321429Y-111307143D01*
X178464286Y-111235714D01*
X178678571Y-111235714D01*
X178821429Y-111307143D01*
X178892857Y-111378571D01*
X178964286Y-111521429D01*
X178964286Y-112092857D01*
X179678571Y-110592857D02*
X178178571Y-110592857D01*
X178178571Y-108450000D02*
X178178571Y-108164286D01*
X178250000Y-108021428D01*
X178392857Y-107878571D01*
X178678571Y-107807143D01*
X179178571Y-107807143D01*
X179464286Y-107878571D01*
X179607143Y-108021428D01*
X179678571Y-108164286D01*
X179678571Y-108450000D01*
X179607143Y-108592857D01*
X179464286Y-108735714D01*
X179178571Y-108807143D01*
X178678571Y-108807143D01*
X178392857Y-108735714D01*
X178250000Y-108592857D01*
X178178571Y-108450000D01*
X178178571Y-107164285D02*
X179392857Y-107164285D01*
X179535714Y-107092857D01*
X179607143Y-107021428D01*
X179678571Y-106878571D01*
X179678571Y-106592857D01*
X179607143Y-106449999D01*
X179535714Y-106378571D01*
X179392857Y-106307142D01*
X178178571Y-106307142D01*
X178178571Y-105807142D02*
X178178571Y-104949999D01*
X179678571Y-105378570D02*
X178178571Y-105378570D01*
X179957143Y-126485715D02*
X180028571Y-126271429D01*
X180028571Y-125914286D01*
X179957143Y-125771429D01*
X179885714Y-125700000D01*
X179742857Y-125628572D01*
X179600000Y-125628572D01*
X179457143Y-125700000D01*
X179385714Y-125771429D01*
X179314286Y-125914286D01*
X179242857Y-126200000D01*
X179171429Y-126342858D01*
X179100000Y-126414286D01*
X178957143Y-126485715D01*
X178814286Y-126485715D01*
X178671429Y-126414286D01*
X178600000Y-126342858D01*
X178528571Y-126200000D01*
X178528571Y-125842858D01*
X178600000Y-125628572D01*
X180028571Y-124985715D02*
X178528571Y-124985715D01*
X180028571Y-124271429D02*
X178528571Y-124271429D01*
X180028571Y-123414286D01*
X178528571Y-123414286D01*
X178528571Y-121271429D02*
X178528571Y-120985715D01*
X178600000Y-120842857D01*
X178742857Y-120700000D01*
X179028571Y-120628572D01*
X179528571Y-120628572D01*
X179814286Y-120700000D01*
X179957143Y-120842857D01*
X180028571Y-120985715D01*
X180028571Y-121271429D01*
X179957143Y-121414286D01*
X179814286Y-121557143D01*
X179528571Y-121628572D01*
X179028571Y-121628572D01*
X178742857Y-121557143D01*
X178600000Y-121414286D01*
X178528571Y-121271429D01*
X178528571Y-119985714D02*
X179742857Y-119985714D01*
X179885714Y-119914286D01*
X179957143Y-119842857D01*
X180028571Y-119700000D01*
X180028571Y-119414286D01*
X179957143Y-119271428D01*
X179885714Y-119200000D01*
X179742857Y-119128571D01*
X178528571Y-119128571D01*
X178528571Y-118628571D02*
X178528571Y-117771428D01*
X180028571Y-118199999D02*
X178528571Y-118199999D01*
X170828571Y-124742857D02*
X170828571Y-125457143D01*
X169328571Y-125457143D01*
X170828571Y-124242857D02*
X169328571Y-124242857D01*
X170828571Y-123528571D02*
X169328571Y-123528571D01*
X170828571Y-122671428D01*
X169328571Y-122671428D01*
X170828571Y-120814285D02*
X169328571Y-120814285D01*
X170828571Y-120099999D02*
X169328571Y-120099999D01*
X170828571Y-119242856D01*
X169328571Y-119242856D01*
D12*
X164171982Y-36637568D02*
G75*
G02X164173000Y-42162000I-1171982J-2762432D01*
G01*
X161071705Y-41697753D02*
G75*
G02X161072000Y-37102000I1928295J2297753D01*
G01*
X156440000Y-34439000D02*
X160306000Y-34439000D01*
X164695000Y-34439000D02*
X168560000Y-34439000D01*
X156440000Y-44360000D02*
X160306000Y-44360000D01*
X164695000Y-44360000D02*
X168560000Y-44360000D01*
X156440000Y-34439000D02*
X156440000Y-36075000D01*
X156440000Y-37725000D02*
X156440000Y-38575000D01*
X156440000Y-40225000D02*
X156440000Y-41075000D01*
X156440000Y-42725000D02*
X156440000Y-44360000D01*
X168560000Y-34439000D02*
X168560000Y-44360000D01*
X189171982Y-36637568D02*
G75*
G02X189173000Y-42162000I-1171982J-2762432D01*
G01*
X186071705Y-41697753D02*
G75*
G02X186072000Y-37102000I1928295J2297753D01*
G01*
X181440000Y-34439000D02*
X185306000Y-34439000D01*
X189695000Y-34439000D02*
X193560000Y-34439000D01*
X181440000Y-44360000D02*
X185306000Y-44360000D01*
X189695000Y-44360000D02*
X193560000Y-44360000D01*
X181440000Y-34439000D02*
X181440000Y-36075000D01*
X181440000Y-37725000D02*
X181440000Y-38575000D01*
X181440000Y-40225000D02*
X181440000Y-41075000D01*
X181440000Y-42725000D02*
X181440000Y-44360000D01*
X193560000Y-34439000D02*
X193560000Y-44360000D01*
X164171982Y-56637568D02*
G75*
G02X164173000Y-62162000I-1171982J-2762432D01*
G01*
X161071705Y-61697753D02*
G75*
G02X161072000Y-57102000I1928295J2297753D01*
G01*
X156440000Y-54439000D02*
X160306000Y-54439000D01*
X164695000Y-54439000D02*
X168560000Y-54439000D01*
X156440000Y-64360000D02*
X160306000Y-64360000D01*
X164695000Y-64360000D02*
X168560000Y-64360000D01*
X156440000Y-54439000D02*
X156440000Y-56075000D01*
X156440000Y-57725000D02*
X156440000Y-58575000D01*
X156440000Y-60225000D02*
X156440000Y-61075000D01*
X156440000Y-62725000D02*
X156440000Y-64360000D01*
X168560000Y-54439000D02*
X168560000Y-64360000D01*
D13*
X188684943Y-67900000D02*
G75*
G03X188684943Y-67900000I-1984943J0D01*
G01*
X191600000Y-72200000D02*
X181700000Y-63200000D01*
X191600000Y-63200000D02*
X191600000Y-72200000D01*
X181600000Y-63200000D02*
X191600000Y-63200000D01*
X181600000Y-72100000D02*
X181600000Y-63200000D01*
X191600000Y-72200000D02*
X181600000Y-72100000D01*
D12*
X157040000Y-118500000D02*
X157040000Y-107880000D01*
X157040000Y-107880000D02*
X150760000Y-107880000D01*
X150760000Y-107880000D02*
X150760000Y-115750000D01*
X150760000Y-115750000D02*
X147900000Y-115750000D01*
X147900000Y-115750000D02*
X147900000Y-118500000D01*
X157040000Y-118500000D02*
X157040000Y-129120000D01*
X157040000Y-129120000D02*
X150760000Y-129120000D01*
X150760000Y-129120000D02*
X150760000Y-121250000D01*
X150760000Y-121250000D02*
X147900000Y-121250000D01*
X147900000Y-121250000D02*
X147900000Y-118500000D01*
X152650000Y-107530000D02*
X152350000Y-106930000D01*
X152350000Y-106930000D02*
X152950000Y-106930000D01*
X152950000Y-106930000D02*
X152650000Y-107530000D01*
D13*
X188684943Y-55400000D02*
G75*
G03X188684943Y-55400000I-1984943J0D01*
G01*
X191600000Y-59700000D02*
X181700000Y-50700000D01*
X191600000Y-50700000D02*
X191600000Y-59700000D01*
X181600000Y-50700000D02*
X191600000Y-50700000D01*
X181600000Y-59600000D02*
X181600000Y-50700000D01*
X191600000Y-59700000D02*
X181600000Y-59600000D01*
X188684943Y-80400000D02*
G75*
G03X188684943Y-80400000I-1984943J0D01*
G01*
X191600000Y-84700000D02*
X181700000Y-75700000D01*
X191600000Y-75700000D02*
X191600000Y-84700000D01*
X181600000Y-75700000D02*
X191600000Y-75700000D01*
X181600000Y-84600000D02*
X181600000Y-75700000D01*
X191600000Y-84700000D02*
X181600000Y-84600000D01*
X188684943Y-95400000D02*
G75*
G03X188684943Y-95400000I-1984943J0D01*
G01*
X191600000Y-99700000D02*
X181700000Y-90700000D01*
X191600000Y-90700000D02*
X191600000Y-99700000D01*
X181600000Y-90700000D02*
X191600000Y-90700000D01*
X181600000Y-99600000D02*
X181600000Y-90700000D01*
X191600000Y-99700000D02*
X181600000Y-99600000D01*
X188684943Y-109900000D02*
G75*
G03X188684943Y-109900000I-1984943J0D01*
G01*
X191600000Y-114200000D02*
X181700000Y-105200000D01*
X191600000Y-105200000D02*
X191600000Y-114200000D01*
X181600000Y-105200000D02*
X191600000Y-105200000D01*
X181600000Y-114100000D02*
X181600000Y-105200000D01*
X191600000Y-114200000D02*
X181600000Y-114100000D01*
X188684943Y-122900000D02*
G75*
G03X188684943Y-122900000I-1984943J0D01*
G01*
X191600000Y-127200000D02*
X181700000Y-118200000D01*
X191600000Y-118200000D02*
X191600000Y-127200000D01*
X181600000Y-118200000D02*
X191600000Y-118200000D01*
X181600000Y-127100000D02*
X181600000Y-118200000D01*
X191600000Y-127200000D02*
X181600000Y-127100000D01*
X165084943Y-123000000D02*
G75*
G03X165084943Y-123000000I-1984943J0D01*
G01*
X168000000Y-127300000D02*
X158100000Y-118300000D01*
X168000000Y-118300000D02*
X168000000Y-127300000D01*
X158000000Y-118300000D02*
X168000000Y-118300000D01*
X158000000Y-127200000D02*
X158000000Y-118300000D01*
X168000000Y-127300000D02*
X158000000Y-127200000D01*
X165084943Y-110500000D02*
G75*
G03X165084943Y-110500000I-1984943J0D01*
G01*
X168000000Y-114800000D02*
X158100000Y-105800000D01*
X168000000Y-105800000D02*
X168000000Y-114800000D01*
X158000000Y-105800000D02*
X168000000Y-105800000D01*
X158000000Y-114700000D02*
X158000000Y-105800000D01*
X168000000Y-114800000D02*
X158000000Y-114700000D01*
X165084943Y-95500000D02*
G75*
G03X165084943Y-95500000I-1984943J0D01*
G01*
X168000000Y-99800000D02*
X158100000Y-90800000D01*
X168000000Y-90800000D02*
X168000000Y-99800000D01*
X158000000Y-90800000D02*
X168000000Y-90800000D01*
X158000000Y-99700000D02*
X158000000Y-90800000D01*
X168000000Y-99800000D02*
X158000000Y-99700000D01*
X165084943Y-80500000D02*
G75*
G03X165084943Y-80500000I-1984943J0D01*
G01*
X168000000Y-84800000D02*
X158100000Y-75800000D01*
X168000000Y-75800000D02*
X168000000Y-84800000D01*
X158000000Y-75800000D02*
X168000000Y-75800000D01*
X158000000Y-84700000D02*
X158000000Y-75800000D01*
X168000000Y-84800000D02*
X158000000Y-84700000D01*
D12*
X174950000Y-115800000D02*
X174950000Y-114800000D01*
X173250000Y-114800000D02*
X173250000Y-115800000D01*
X175150000Y-72650000D02*
X174150000Y-72650000D01*
X174150000Y-74350000D02*
X175150000Y-74350000D01*
X175200000Y-67400000D02*
X174200000Y-67400000D01*
X174200000Y-69100000D02*
X175200000Y-69100000D01*
X178700000Y-77000000D02*
X178700000Y-84300000D01*
X178700000Y-84300000D02*
X180700000Y-84300000D01*
X180700000Y-84300000D02*
X180700000Y-77000000D01*
X177800000Y-105000000D02*
X177800000Y-112300000D01*
X177800000Y-112300000D02*
X179800000Y-112300000D01*
X179800000Y-112300000D02*
X179800000Y-105000000D01*
X171550000Y-105000000D02*
X171550000Y-112300000D01*
X171550000Y-112300000D02*
X173550000Y-112300000D01*
X173550000Y-112300000D02*
X173550000Y-105000000D01*
X178622800Y-47300000D02*
X178622800Y-54600000D01*
X178622800Y-54600000D02*
X180622800Y-54600000D01*
X180622800Y-54600000D02*
X180622800Y-47300000D01*
X177222800Y-52813274D02*
X177222800Y-45513274D01*
X177222800Y-45513274D02*
X175222800Y-45513274D01*
X175222800Y-45513274D02*
X175222800Y-52813274D01*
X172222800Y-47313274D02*
X172222800Y-54613274D01*
X172222800Y-54613274D02*
X174222800Y-54613274D01*
X174222800Y-54613274D02*
X174222800Y-47313274D01*
X171122800Y-52813274D02*
X171122800Y-45513274D01*
X171122800Y-45513274D02*
X169122800Y-45513274D01*
X169122800Y-45513274D02*
X169122800Y-52813274D01*
X188320000Y-102800000D02*
X188320000Y-101600000D01*
X190080000Y-101600000D02*
X190080000Y-102800000D01*
X177680000Y-114600000D02*
X177680000Y-115800000D01*
X175920000Y-115800000D02*
X175920000Y-114600000D01*
D13*
X160954762Y-32202381D02*
X160621428Y-31726190D01*
X160383333Y-32202381D02*
X160383333Y-31202381D01*
X160764286Y-31202381D01*
X160859524Y-31250000D01*
X160907143Y-31297619D01*
X160954762Y-31392857D01*
X160954762Y-31535714D01*
X160907143Y-31630952D01*
X160859524Y-31678571D01*
X160764286Y-31726190D01*
X160383333Y-31726190D01*
X161240476Y-31202381D02*
X161573809Y-32202381D01*
X161907143Y-31202381D01*
X162764286Y-32202381D02*
X162192857Y-32202381D01*
X162478571Y-32202381D02*
X162478571Y-31202381D01*
X162383333Y-31345238D01*
X162288095Y-31440476D01*
X162192857Y-31488095D01*
X185954762Y-32202381D02*
X185621428Y-31726190D01*
X185383333Y-32202381D02*
X185383333Y-31202381D01*
X185764286Y-31202381D01*
X185859524Y-31250000D01*
X185907143Y-31297619D01*
X185954762Y-31392857D01*
X185954762Y-31535714D01*
X185907143Y-31630952D01*
X185859524Y-31678571D01*
X185764286Y-31726190D01*
X185383333Y-31726190D01*
X186240476Y-31202381D02*
X186573809Y-32202381D01*
X186907143Y-31202381D01*
X187192857Y-31297619D02*
X187240476Y-31250000D01*
X187335714Y-31202381D01*
X187573810Y-31202381D01*
X187669048Y-31250000D01*
X187716667Y-31297619D01*
X187764286Y-31392857D01*
X187764286Y-31488095D01*
X187716667Y-31630952D01*
X187145238Y-32202381D01*
X187764286Y-32202381D01*
X160478572Y-52202381D02*
X160145238Y-51726190D01*
X159907143Y-52202381D02*
X159907143Y-51202381D01*
X160288096Y-51202381D01*
X160383334Y-51250000D01*
X160430953Y-51297619D01*
X160478572Y-51392857D01*
X160478572Y-51535714D01*
X160430953Y-51630952D01*
X160383334Y-51678571D01*
X160288096Y-51726190D01*
X159907143Y-51726190D01*
X160764286Y-51202381D02*
X161097619Y-52202381D01*
X161430953Y-51202381D01*
X162288096Y-52202381D02*
X161716667Y-52202381D01*
X162002381Y-52202381D02*
X162002381Y-51202381D01*
X161907143Y-51345238D01*
X161811905Y-51440476D01*
X161716667Y-51488095D01*
X162907143Y-51202381D02*
X163002382Y-51202381D01*
X163097620Y-51250000D01*
X163145239Y-51297619D01*
X163192858Y-51392857D01*
X163240477Y-51583333D01*
X163240477Y-51821429D01*
X163192858Y-52011905D01*
X163145239Y-52107143D01*
X163097620Y-52154762D01*
X163002382Y-52202381D01*
X162907143Y-52202381D01*
X162811905Y-52154762D01*
X162764286Y-52107143D01*
X162716667Y-52011905D01*
X162669048Y-51821429D01*
X162669048Y-51583333D01*
X162716667Y-51392857D01*
X162764286Y-51297619D01*
X162811905Y-51250000D01*
X162907143Y-51202381D01*
X174952381Y-67533333D02*
X175666667Y-67533333D01*
X175809524Y-67580953D01*
X175904762Y-67676191D01*
X175952381Y-67819048D01*
X175952381Y-67914286D01*
X175047619Y-67104762D02*
X175000000Y-67057143D01*
X174952381Y-66961905D01*
X174952381Y-66723809D01*
X175000000Y-66628571D01*
X175047619Y-66580952D01*
X175142857Y-66533333D01*
X175238095Y-66533333D01*
X175380952Y-66580952D01*
X175952381Y-67152381D01*
X175952381Y-66533333D01*
X157602381Y-119309523D02*
X158316667Y-119309523D01*
X158459524Y-119357143D01*
X158554762Y-119452381D01*
X158602381Y-119595238D01*
X158602381Y-119690476D01*
X158602381Y-118309523D02*
X158602381Y-118880952D01*
X158602381Y-118595238D02*
X157602381Y-118595238D01*
X157745238Y-118690476D01*
X157840476Y-118785714D01*
X157888095Y-118880952D01*
X158602381Y-117357142D02*
X158602381Y-117928571D01*
X158602381Y-117642857D02*
X157602381Y-117642857D01*
X157745238Y-117738095D01*
X157840476Y-117833333D01*
X157888095Y-117928571D01*
X174952381Y-55033333D02*
X175666667Y-55033333D01*
X175809524Y-55080953D01*
X175904762Y-55176191D01*
X175952381Y-55319048D01*
X175952381Y-55414286D01*
X175952381Y-54033333D02*
X175952381Y-54604762D01*
X175952381Y-54319048D02*
X174952381Y-54319048D01*
X175095238Y-54414286D01*
X175190476Y-54509524D01*
X175238095Y-54604762D01*
X174952381Y-80033333D02*
X175666667Y-80033333D01*
X175809524Y-80080953D01*
X175904762Y-80176191D01*
X175952381Y-80319048D01*
X175952381Y-80414286D01*
X174952381Y-79652381D02*
X174952381Y-78985714D01*
X175952381Y-79414286D01*
X174952381Y-95033333D02*
X175666667Y-95033333D01*
X175809524Y-95080953D01*
X175904762Y-95176191D01*
X175952381Y-95319048D01*
X175952381Y-95414286D01*
X174952381Y-94128571D02*
X174952381Y-94319048D01*
X175000000Y-94414286D01*
X175047619Y-94461905D01*
X175190476Y-94557143D01*
X175380952Y-94604762D01*
X175761905Y-94604762D01*
X175857143Y-94557143D01*
X175904762Y-94509524D01*
X175952381Y-94414286D01*
X175952381Y-94223809D01*
X175904762Y-94128571D01*
X175857143Y-94080952D01*
X175761905Y-94033333D01*
X175523810Y-94033333D01*
X175428571Y-94080952D01*
X175380952Y-94128571D01*
X175333333Y-94223809D01*
X175333333Y-94414286D01*
X175380952Y-94509524D01*
X175428571Y-94557143D01*
X175523810Y-94604762D01*
X174952381Y-109533333D02*
X175666667Y-109533333D01*
X175809524Y-109580953D01*
X175904762Y-109676191D01*
X175952381Y-109819048D01*
X175952381Y-109914286D01*
X174952381Y-108580952D02*
X174952381Y-109057143D01*
X175428571Y-109104762D01*
X175380952Y-109057143D01*
X175333333Y-108961905D01*
X175333333Y-108723809D01*
X175380952Y-108628571D01*
X175428571Y-108580952D01*
X175523810Y-108533333D01*
X175761905Y-108533333D01*
X175857143Y-108580952D01*
X175904762Y-108628571D01*
X175952381Y-108723809D01*
X175952381Y-108961905D01*
X175904762Y-109057143D01*
X175857143Y-109104762D01*
X174952381Y-122533333D02*
X175666667Y-122533333D01*
X175809524Y-122580953D01*
X175904762Y-122676191D01*
X175952381Y-122819048D01*
X175952381Y-122914286D01*
X175285714Y-121628571D02*
X175952381Y-121628571D01*
X174904762Y-121866667D02*
X175619048Y-122104762D01*
X175619048Y-121485714D01*
X151352381Y-122633333D02*
X152066667Y-122633333D01*
X152209524Y-122680953D01*
X152304762Y-122776191D01*
X152352381Y-122919048D01*
X152352381Y-123014286D01*
X151352381Y-122252381D02*
X151352381Y-121633333D01*
X151733333Y-121966667D01*
X151733333Y-121823809D01*
X151780952Y-121728571D01*
X151828571Y-121680952D01*
X151923810Y-121633333D01*
X152161905Y-121633333D01*
X152257143Y-121680952D01*
X152304762Y-121728571D01*
X152352381Y-121823809D01*
X152352381Y-122109524D01*
X152304762Y-122204762D01*
X152257143Y-122252381D01*
X151352381Y-110609523D02*
X152066667Y-110609523D01*
X152209524Y-110657143D01*
X152304762Y-110752381D01*
X152352381Y-110895238D01*
X152352381Y-110990476D01*
X152352381Y-109609523D02*
X152352381Y-110180952D01*
X152352381Y-109895238D02*
X151352381Y-109895238D01*
X151495238Y-109990476D01*
X151590476Y-110085714D01*
X151638095Y-110180952D01*
X151352381Y-108990476D02*
X151352381Y-108895237D01*
X151400000Y-108799999D01*
X151447619Y-108752380D01*
X151542857Y-108704761D01*
X151733333Y-108657142D01*
X151971429Y-108657142D01*
X152161905Y-108704761D01*
X152257143Y-108752380D01*
X152304762Y-108799999D01*
X152352381Y-108895237D01*
X152352381Y-108990476D01*
X152304762Y-109085714D01*
X152257143Y-109133333D01*
X152161905Y-109180952D01*
X151971429Y-109228571D01*
X151733333Y-109228571D01*
X151542857Y-109180952D01*
X151447619Y-109133333D01*
X151400000Y-109085714D01*
X151352381Y-108990476D01*
X151352381Y-95133333D02*
X152066667Y-95133333D01*
X152209524Y-95180953D01*
X152304762Y-95276191D01*
X152352381Y-95419048D01*
X152352381Y-95514286D01*
X152352381Y-94609524D02*
X152352381Y-94419048D01*
X152304762Y-94323809D01*
X152257143Y-94276190D01*
X152114286Y-94180952D01*
X151923810Y-94133333D01*
X151542857Y-94133333D01*
X151447619Y-94180952D01*
X151400000Y-94228571D01*
X151352381Y-94323809D01*
X151352381Y-94514286D01*
X151400000Y-94609524D01*
X151447619Y-94657143D01*
X151542857Y-94704762D01*
X151780952Y-94704762D01*
X151876190Y-94657143D01*
X151923810Y-94609524D01*
X151971429Y-94514286D01*
X151971429Y-94323809D01*
X151923810Y-94228571D01*
X151876190Y-94180952D01*
X151780952Y-94133333D01*
X151352381Y-80133333D02*
X152066667Y-80133333D01*
X152209524Y-80180953D01*
X152304762Y-80276191D01*
X152352381Y-80419048D01*
X152352381Y-80514286D01*
X151780952Y-79514286D02*
X151733333Y-79609524D01*
X151685714Y-79657143D01*
X151590476Y-79704762D01*
X151542857Y-79704762D01*
X151447619Y-79657143D01*
X151400000Y-79609524D01*
X151352381Y-79514286D01*
X151352381Y-79323809D01*
X151400000Y-79228571D01*
X151447619Y-79180952D01*
X151542857Y-79133333D01*
X151590476Y-79133333D01*
X151685714Y-79180952D01*
X151733333Y-79228571D01*
X151780952Y-79323809D01*
X151780952Y-79514286D01*
X151828571Y-79609524D01*
X151876190Y-79657143D01*
X151971429Y-79704762D01*
X152161905Y-79704762D01*
X152257143Y-79657143D01*
X152304762Y-79609524D01*
X152352381Y-79514286D01*
X152352381Y-79323809D01*
X152304762Y-79228571D01*
X152257143Y-79180952D01*
X152161905Y-79133333D01*
X151971429Y-79133333D01*
X151876190Y-79180952D01*
X151828571Y-79228571D01*
X151780952Y-79323809D01*
X176207143Y-115942857D02*
X176254762Y-115990476D01*
X176302381Y-116133333D01*
X176302381Y-116228571D01*
X176254762Y-116371429D01*
X176159524Y-116466667D01*
X176064286Y-116514286D01*
X175873810Y-116561905D01*
X175730952Y-116561905D01*
X175540476Y-116514286D01*
X175445238Y-116466667D01*
X175350000Y-116371429D01*
X175302381Y-116228571D01*
X175302381Y-116133333D01*
X175350000Y-115990476D01*
X175397619Y-115942857D01*
X176302381Y-114990476D02*
X176302381Y-115561905D01*
X176302381Y-115276191D02*
X175302381Y-115276191D01*
X175445238Y-115371429D01*
X175540476Y-115466667D01*
X175588095Y-115561905D01*
X175302381Y-114371429D02*
X175302381Y-114276190D01*
X175350000Y-114180952D01*
X175397619Y-114133333D01*
X175492857Y-114085714D01*
X175683333Y-114038095D01*
X175921429Y-114038095D01*
X176111905Y-114085714D01*
X176207143Y-114133333D01*
X176254762Y-114180952D01*
X176302381Y-114276190D01*
X176302381Y-114371429D01*
X176254762Y-114466667D01*
X176207143Y-114514286D01*
X176111905Y-114561905D01*
X175921429Y-114609524D01*
X175683333Y-114609524D01*
X175492857Y-114561905D01*
X175397619Y-114514286D01*
X175350000Y-114466667D01*
X175302381Y-114371429D01*
X174007143Y-72107143D02*
X173959524Y-72154762D01*
X173816667Y-72202381D01*
X173721429Y-72202381D01*
X173578571Y-72154762D01*
X173483333Y-72059524D01*
X173435714Y-71964286D01*
X173388095Y-71773810D01*
X173388095Y-71630952D01*
X173435714Y-71440476D01*
X173483333Y-71345238D01*
X173578571Y-71250000D01*
X173721429Y-71202381D01*
X173816667Y-71202381D01*
X173959524Y-71250000D01*
X174007143Y-71297619D01*
X174959524Y-72202381D02*
X174388095Y-72202381D01*
X174673809Y-72202381D02*
X174673809Y-71202381D01*
X174578571Y-71345238D01*
X174483333Y-71440476D01*
X174388095Y-71488095D01*
X175340476Y-71297619D02*
X175388095Y-71250000D01*
X175483333Y-71202381D01*
X175721429Y-71202381D01*
X175816667Y-71250000D01*
X175864286Y-71297619D01*
X175911905Y-71392857D01*
X175911905Y-71488095D01*
X175864286Y-71630952D01*
X175292857Y-72202381D01*
X175911905Y-72202381D01*
X174057143Y-66857143D02*
X174009524Y-66904762D01*
X173866667Y-66952381D01*
X173771429Y-66952381D01*
X173628571Y-66904762D01*
X173533333Y-66809524D01*
X173485714Y-66714286D01*
X173438095Y-66523810D01*
X173438095Y-66380952D01*
X173485714Y-66190476D01*
X173533333Y-66095238D01*
X173628571Y-66000000D01*
X173771429Y-65952381D01*
X173866667Y-65952381D01*
X174009524Y-66000000D01*
X174057143Y-66047619D01*
X175009524Y-66952381D02*
X174438095Y-66952381D01*
X174723809Y-66952381D02*
X174723809Y-65952381D01*
X174628571Y-66095238D01*
X174533333Y-66190476D01*
X174438095Y-66238095D01*
X175342857Y-65952381D02*
X175961905Y-65952381D01*
X175628571Y-66333333D01*
X175771429Y-66333333D01*
X175866667Y-66380952D01*
X175914286Y-66428571D01*
X175961905Y-66523810D01*
X175961905Y-66761905D01*
X175914286Y-66857143D01*
X175866667Y-66904762D01*
X175771429Y-66952381D01*
X175485714Y-66952381D01*
X175390476Y-66904762D01*
X175342857Y-66857143D01*
X178402381Y-80488095D02*
X177402381Y-80488095D01*
X177402381Y-80250000D01*
X177450000Y-80107142D01*
X177545238Y-80011904D01*
X177640476Y-79964285D01*
X177830952Y-79916666D01*
X177973810Y-79916666D01*
X178164286Y-79964285D01*
X178259524Y-80011904D01*
X178354762Y-80107142D01*
X178402381Y-80250000D01*
X178402381Y-80488095D01*
X177497619Y-79535714D02*
X177450000Y-79488095D01*
X177402381Y-79392857D01*
X177402381Y-79154761D01*
X177450000Y-79059523D01*
X177497619Y-79011904D01*
X177592857Y-78964285D01*
X177688095Y-78964285D01*
X177830952Y-79011904D01*
X178402381Y-79583333D01*
X178402381Y-78964285D01*
X177502381Y-108488095D02*
X176502381Y-108488095D01*
X176502381Y-108250000D01*
X176550000Y-108107142D01*
X176645238Y-108011904D01*
X176740476Y-107964285D01*
X176930952Y-107916666D01*
X177073810Y-107916666D01*
X177264286Y-107964285D01*
X177359524Y-108011904D01*
X177454762Y-108107142D01*
X177502381Y-108250000D01*
X177502381Y-108488095D01*
X176502381Y-107583333D02*
X176502381Y-106964285D01*
X176883333Y-107297619D01*
X176883333Y-107154761D01*
X176930952Y-107059523D01*
X176978571Y-107011904D01*
X177073810Y-106964285D01*
X177311905Y-106964285D01*
X177407143Y-107011904D01*
X177454762Y-107059523D01*
X177502381Y-107154761D01*
X177502381Y-107440476D01*
X177454762Y-107535714D01*
X177407143Y-107583333D01*
X171252381Y-108488095D02*
X170252381Y-108488095D01*
X170252381Y-108250000D01*
X170300000Y-108107142D01*
X170395238Y-108011904D01*
X170490476Y-107964285D01*
X170680952Y-107916666D01*
X170823810Y-107916666D01*
X171014286Y-107964285D01*
X171109524Y-108011904D01*
X171204762Y-108107142D01*
X171252381Y-108250000D01*
X171252381Y-108488095D01*
X170585714Y-107059523D02*
X171252381Y-107059523D01*
X170204762Y-107297619D02*
X170919048Y-107535714D01*
X170919048Y-106916666D01*
X178325181Y-50788095D02*
X177325181Y-50788095D01*
X177325181Y-50550000D01*
X177372800Y-50407142D01*
X177468038Y-50311904D01*
X177563276Y-50264285D01*
X177753752Y-50216666D01*
X177896610Y-50216666D01*
X178087086Y-50264285D01*
X178182324Y-50311904D01*
X178277562Y-50407142D01*
X178325181Y-50550000D01*
X178325181Y-50788095D01*
X177325181Y-49311904D02*
X177325181Y-49788095D01*
X177801371Y-49835714D01*
X177753752Y-49788095D01*
X177706133Y-49692857D01*
X177706133Y-49454761D01*
X177753752Y-49359523D01*
X177801371Y-49311904D01*
X177896610Y-49264285D01*
X178134705Y-49264285D01*
X178229943Y-49311904D01*
X178277562Y-49359523D01*
X178325181Y-49454761D01*
X178325181Y-49692857D01*
X178277562Y-49788095D01*
X178229943Y-49835714D01*
X178425181Y-50801369D02*
X177425181Y-50801369D01*
X177425181Y-50563274D01*
X177472800Y-50420416D01*
X177568038Y-50325178D01*
X177663276Y-50277559D01*
X177853752Y-50229940D01*
X177996610Y-50229940D01*
X178187086Y-50277559D01*
X178282324Y-50325178D01*
X178377562Y-50420416D01*
X178425181Y-50563274D01*
X178425181Y-50801369D01*
X177425181Y-49372797D02*
X177425181Y-49563274D01*
X177472800Y-49658512D01*
X177520419Y-49706131D01*
X177663276Y-49801369D01*
X177853752Y-49848988D01*
X178234705Y-49848988D01*
X178329943Y-49801369D01*
X178377562Y-49753750D01*
X178425181Y-49658512D01*
X178425181Y-49468035D01*
X178377562Y-49372797D01*
X178329943Y-49325178D01*
X178234705Y-49277559D01*
X177996610Y-49277559D01*
X177901371Y-49325178D01*
X177853752Y-49372797D01*
X177806133Y-49468035D01*
X177806133Y-49658512D01*
X177853752Y-49753750D01*
X177901371Y-49801369D01*
X177996610Y-49848988D01*
X171925181Y-50801369D02*
X170925181Y-50801369D01*
X170925181Y-50563274D01*
X170972800Y-50420416D01*
X171068038Y-50325178D01*
X171163276Y-50277559D01*
X171353752Y-50229940D01*
X171496610Y-50229940D01*
X171687086Y-50277559D01*
X171782324Y-50325178D01*
X171877562Y-50420416D01*
X171925181Y-50563274D01*
X171925181Y-50801369D01*
X170925181Y-49896607D02*
X170925181Y-49229940D01*
X171925181Y-49658512D01*
X172325181Y-50801369D02*
X171325181Y-50801369D01*
X171325181Y-50563274D01*
X171372800Y-50420416D01*
X171468038Y-50325178D01*
X171563276Y-50277559D01*
X171753752Y-50229940D01*
X171896610Y-50229940D01*
X172087086Y-50277559D01*
X172182324Y-50325178D01*
X172277562Y-50420416D01*
X172325181Y-50563274D01*
X172325181Y-50801369D01*
X171753752Y-49658512D02*
X171706133Y-49753750D01*
X171658514Y-49801369D01*
X171563276Y-49848988D01*
X171515657Y-49848988D01*
X171420419Y-49801369D01*
X171372800Y-49753750D01*
X171325181Y-49658512D01*
X171325181Y-49468035D01*
X171372800Y-49372797D01*
X171420419Y-49325178D01*
X171515657Y-49277559D01*
X171563276Y-49277559D01*
X171658514Y-49325178D01*
X171706133Y-49372797D01*
X171753752Y-49468035D01*
X171753752Y-49658512D01*
X171801371Y-49753750D01*
X171848990Y-49801369D01*
X171944229Y-49848988D01*
X172134705Y-49848988D01*
X172229943Y-49801369D01*
X172277562Y-49753750D01*
X172325181Y-49658512D01*
X172325181Y-49468035D01*
X172277562Y-49372797D01*
X172229943Y-49325178D01*
X172134705Y-49277559D01*
X171944229Y-49277559D01*
X171848990Y-49325178D01*
X171801371Y-49372797D01*
X171753752Y-49468035D01*
X191352381Y-102842857D02*
X190876190Y-103176191D01*
X191352381Y-103414286D02*
X190352381Y-103414286D01*
X190352381Y-103033333D01*
X190400000Y-102938095D01*
X190447619Y-102890476D01*
X190542857Y-102842857D01*
X190685714Y-102842857D01*
X190780952Y-102890476D01*
X190828571Y-102938095D01*
X190876190Y-103033333D01*
X190876190Y-103414286D01*
X190447619Y-102461905D02*
X190400000Y-102414286D01*
X190352381Y-102319048D01*
X190352381Y-102080952D01*
X190400000Y-101985714D01*
X190447619Y-101938095D01*
X190542857Y-101890476D01*
X190638095Y-101890476D01*
X190780952Y-101938095D01*
X191352381Y-102509524D01*
X191352381Y-101890476D01*
X190780952Y-101319048D02*
X190733333Y-101414286D01*
X190685714Y-101461905D01*
X190590476Y-101509524D01*
X190542857Y-101509524D01*
X190447619Y-101461905D01*
X190400000Y-101414286D01*
X190352381Y-101319048D01*
X190352381Y-101128571D01*
X190400000Y-101033333D01*
X190447619Y-100985714D01*
X190542857Y-100938095D01*
X190590476Y-100938095D01*
X190685714Y-100985714D01*
X190733333Y-101033333D01*
X190780952Y-101128571D01*
X190780952Y-101319048D01*
X190828571Y-101414286D01*
X190876190Y-101461905D01*
X190971429Y-101509524D01*
X191161905Y-101509524D01*
X191257143Y-101461905D01*
X191304762Y-101414286D01*
X191352381Y-101319048D01*
X191352381Y-101128571D01*
X191304762Y-101033333D01*
X191257143Y-100985714D01*
X191161905Y-100938095D01*
X190971429Y-100938095D01*
X190876190Y-100985714D01*
X190828571Y-101033333D01*
X190780952Y-101128571D01*
X175552381Y-115842857D02*
X175076190Y-116176191D01*
X175552381Y-116414286D02*
X174552381Y-116414286D01*
X174552381Y-116033333D01*
X174600000Y-115938095D01*
X174647619Y-115890476D01*
X174742857Y-115842857D01*
X174885714Y-115842857D01*
X174980952Y-115890476D01*
X175028571Y-115938095D01*
X175076190Y-116033333D01*
X175076190Y-116414286D01*
X174552381Y-115509524D02*
X174552381Y-114890476D01*
X174933333Y-115223810D01*
X174933333Y-115080952D01*
X174980952Y-114985714D01*
X175028571Y-114938095D01*
X175123810Y-114890476D01*
X175361905Y-114890476D01*
X175457143Y-114938095D01*
X175504762Y-114985714D01*
X175552381Y-115080952D01*
X175552381Y-115366667D01*
X175504762Y-115461905D01*
X175457143Y-115509524D01*
X174980952Y-114319048D02*
X174933333Y-114414286D01*
X174885714Y-114461905D01*
X174790476Y-114509524D01*
X174742857Y-114509524D01*
X174647619Y-114461905D01*
X174600000Y-114414286D01*
X174552381Y-114319048D01*
X174552381Y-114128571D01*
X174600000Y-114033333D01*
X174647619Y-113985714D01*
X174742857Y-113938095D01*
X174790476Y-113938095D01*
X174885714Y-113985714D01*
X174933333Y-114033333D01*
X174980952Y-114128571D01*
X174980952Y-114319048D01*
X175028571Y-114414286D01*
X175076190Y-114461905D01*
X175171429Y-114509524D01*
X175361905Y-114509524D01*
X175457143Y-114461905D01*
X175504762Y-114414286D01*
X175552381Y-114319048D01*
X175552381Y-114128571D01*
X175504762Y-114033333D01*
X175457143Y-113985714D01*
X175361905Y-113938095D01*
X175171429Y-113938095D01*
X175076190Y-113985714D01*
X175028571Y-114033333D01*
X174980952Y-114128571D01*
M02*
