%TF.GenerationSoftware,KiCad,Pcbnew,4.0.7*%
%TF.CreationDate,2018-02-11T21:06:32+01:00*%
%TF.ProjectId,vco,76636F2E6B696361645F706362000000,rev?*%
%TF.FileFunction,Soldermask,Top*%
%FSLAX46Y46*%
G04 Gerber Fmt 4.6, Leading zero omitted, Abs format (unit mm)*
G04 Created by KiCad (PCBNEW 4.0.7) date 02/11/18 21:06:32*
%MOMM*%
%LPD*%
G01*
G04 APERTURE LIST*
%ADD10C,0.100000*%
%ADD11C,2.200000*%
%ADD12C,4.400000*%
%ADD13R,2.300000X2.300000*%
%ADD14C,2.300000*%
%ADD15C,1.700000*%
%ADD16R,1.650000X1.900000*%
%ADD17R,1.900000X1.650000*%
%ADD18R,2.100000X3.700000*%
%ADD19R,1.700000X1.900000*%
G04 APERTURE END LIST*
D10*
D11*
X155500000Y-36900000D03*
X155500000Y-39400000D03*
X155500000Y-41900000D03*
D12*
X162500000Y-35000000D03*
X162500000Y-43800000D03*
D11*
X180500000Y-36900000D03*
X180500000Y-39400000D03*
X180500000Y-41900000D03*
D12*
X187500000Y-35000000D03*
X187500000Y-43800000D03*
D11*
X155500000Y-56900000D03*
X155500000Y-59400000D03*
X155500000Y-61900000D03*
D12*
X162500000Y-55000000D03*
X162500000Y-63800000D03*
D11*
X182300000Y-69600000D03*
X190400000Y-69600000D03*
X185000000Y-65000000D03*
D13*
X152650000Y-109750000D03*
D14*
X152650000Y-112250000D03*
X152650000Y-114750000D03*
X152650000Y-117250000D03*
X152650000Y-119750000D03*
X152650000Y-122250000D03*
X152650000Y-124750000D03*
X152650000Y-127250000D03*
X155150000Y-109750000D03*
X155150000Y-112250000D03*
X155150000Y-114750000D03*
X155150000Y-117250000D03*
X155150000Y-119750000D03*
X155150000Y-122250000D03*
X155150000Y-124750000D03*
X155150000Y-127250000D03*
D15*
X151310000Y-118500000D03*
D11*
X182300000Y-57100000D03*
X190400000Y-57100000D03*
X185000000Y-52500000D03*
X182300000Y-82100000D03*
X190400000Y-82100000D03*
X185000000Y-77500000D03*
X182300000Y-97100000D03*
X190400000Y-97100000D03*
X185000000Y-92500000D03*
X182300000Y-111600000D03*
X190400000Y-111600000D03*
X185000000Y-107000000D03*
X182300000Y-124600000D03*
X190400000Y-124600000D03*
X185000000Y-120000000D03*
X158700000Y-124700000D03*
X166800000Y-124700000D03*
X161400000Y-120100000D03*
X158700000Y-112200000D03*
X166800000Y-112200000D03*
X161400000Y-107600000D03*
X158700000Y-97200000D03*
X166800000Y-97200000D03*
X161400000Y-92600000D03*
X158700000Y-82200000D03*
X166800000Y-82200000D03*
X161400000Y-77600000D03*
D16*
X174100000Y-114050000D03*
X174100000Y-116550000D03*
D17*
X173400000Y-73500000D03*
X175900000Y-73500000D03*
X173450000Y-68250000D03*
X175950000Y-68250000D03*
D18*
X179700000Y-82500000D03*
X179700000Y-77000000D03*
X178800000Y-110500000D03*
X178800000Y-105000000D03*
X172550000Y-110500000D03*
X172550000Y-105000000D03*
X179622800Y-52800000D03*
X179622800Y-47300000D03*
X176222800Y-47313274D03*
X176222800Y-52813274D03*
X173222800Y-52813274D03*
X173222800Y-47313274D03*
X170122800Y-47313274D03*
X170122800Y-52813274D03*
D19*
X189200000Y-100850000D03*
X189200000Y-103550000D03*
X176800000Y-116550000D03*
X176800000Y-113850000D03*
M02*
