%TF.GenerationSoftware,KiCad,Pcbnew,4.0.7*%
%TF.CreationDate,2018-02-11T21:06:32+01:00*%
%TF.ProjectId,vco,76636F2E6B696361645F706362000000,rev?*%
%TF.FileFunction,Copper,L1,Top,Signal*%
%FSLAX46Y46*%
G04 Gerber Fmt 4.6, Leading zero omitted, Abs format (unit mm)*
G04 Created by KiCad (PCBNEW 4.0.7) date 02/11/18 21:06:32*
%MOMM*%
%LPD*%
G01*
G04 APERTURE LIST*
%ADD10C,0.100000*%
%ADD11C,1.800000*%
%ADD12C,4.000000*%
%ADD13R,1.900000X1.900000*%
%ADD14C,1.900000*%
%ADD15R,1.250000X1.500000*%
%ADD16R,1.500000X1.250000*%
%ADD17R,1.700000X3.300000*%
%ADD18R,1.300000X1.500000*%
%ADD19C,0.600000*%
%ADD20C,0.400000*%
%ADD21C,0.254000*%
G04 APERTURE END LIST*
D10*
D11*
X155500000Y-36900000D03*
X155500000Y-39400000D03*
X155500000Y-41900000D03*
D12*
X162500000Y-35000000D03*
X162500000Y-43800000D03*
D11*
X180500000Y-36900000D03*
X180500000Y-39400000D03*
X180500000Y-41900000D03*
D12*
X187500000Y-35000000D03*
X187500000Y-43800000D03*
D11*
X155500000Y-56900000D03*
X155500000Y-59400000D03*
X155500000Y-61900000D03*
D12*
X162500000Y-55000000D03*
X162500000Y-63800000D03*
D11*
X182300000Y-69600000D03*
X190400000Y-69600000D03*
X185000000Y-65000000D03*
D13*
X152650000Y-109750000D03*
D14*
X152650000Y-112250000D03*
X152650000Y-114750000D03*
X152650000Y-117250000D03*
X152650000Y-119750000D03*
X152650000Y-122250000D03*
X152650000Y-124750000D03*
X152650000Y-127250000D03*
X155150000Y-109750000D03*
X155150000Y-112250000D03*
X155150000Y-114750000D03*
X155150000Y-117250000D03*
X155150000Y-119750000D03*
X155150000Y-122250000D03*
X155150000Y-124750000D03*
X155150000Y-127250000D03*
D11*
X182300000Y-57100000D03*
X190400000Y-57100000D03*
X185000000Y-52500000D03*
X182300000Y-82100000D03*
X190400000Y-82100000D03*
X185000000Y-77500000D03*
X182300000Y-97100000D03*
X190400000Y-97100000D03*
X185000000Y-92500000D03*
X182300000Y-111600000D03*
X190400000Y-111600000D03*
X185000000Y-107000000D03*
X182300000Y-124600000D03*
X190400000Y-124600000D03*
X185000000Y-120000000D03*
X158700000Y-124700000D03*
X166800000Y-124700000D03*
X161400000Y-120100000D03*
X158700000Y-112200000D03*
X166800000Y-112200000D03*
X161400000Y-107600000D03*
X158700000Y-97200000D03*
X166800000Y-97200000D03*
X161400000Y-92600000D03*
X158700000Y-82200000D03*
X166800000Y-82200000D03*
X161400000Y-77600000D03*
D15*
X174100000Y-114050000D03*
X174100000Y-116550000D03*
D16*
X173400000Y-73500000D03*
X175900000Y-73500000D03*
X173450000Y-68250000D03*
X175950000Y-68250000D03*
D17*
X179700000Y-82500000D03*
X179700000Y-77000000D03*
X178800000Y-110500000D03*
X178800000Y-105000000D03*
X172550000Y-110500000D03*
X172550000Y-105000000D03*
X179622800Y-52800000D03*
X179622800Y-47300000D03*
X176222800Y-47313274D03*
X176222800Y-52813274D03*
X173222800Y-52813274D03*
X173222800Y-47313274D03*
X170122800Y-47313274D03*
X170122800Y-52813274D03*
D18*
X189200000Y-100850000D03*
X189200000Y-103550000D03*
X176800000Y-116550000D03*
X176800000Y-113850000D03*
D19*
X157350000Y-108400000D03*
X158350000Y-108300000D03*
X157550000Y-107400000D03*
X156750000Y-107050000D03*
X157650000Y-106700000D03*
X174550010Y-96350000D03*
X184100000Y-95300000D03*
X194396433Y-104022181D03*
X192600000Y-116600000D03*
X167150000Y-89550000D03*
X170100000Y-92400000D03*
X176750000Y-87150000D03*
X185350000Y-88300000D03*
X179050000Y-92000000D03*
X195450000Y-103400000D03*
X195500000Y-110050000D03*
X179950000Y-116350000D03*
X190650000Y-105650000D03*
X174650000Y-97650000D03*
X170400000Y-97150000D03*
X168200000Y-57250000D03*
X159550000Y-60050000D03*
X192400000Y-73800000D03*
X186250000Y-69900000D03*
X180400000Y-64750000D03*
X177704990Y-81250000D03*
X189966192Y-105064827D03*
X177448334Y-126931311D03*
X164700000Y-88800000D03*
X173000000Y-88450000D03*
X178249998Y-82000000D03*
X179700000Y-79700000D03*
X194550000Y-68250000D03*
X179700000Y-59550000D03*
X153390698Y-50709312D03*
X175250000Y-44050000D03*
X178500000Y-115600000D03*
X173700000Y-77700000D03*
X174729033Y-94479033D03*
X180850000Y-99450000D03*
X176800000Y-101550000D03*
X179500000Y-93950000D03*
X172850000Y-91550000D03*
X164150000Y-89850000D03*
X188350000Y-80900000D03*
X181700000Y-109700010D03*
X193553261Y-71515354D03*
X199400000Y-104500000D03*
X186750000Y-127550000D03*
X176450000Y-124700000D03*
X180600000Y-111650000D03*
X173450000Y-85150000D03*
X180800000Y-71750000D03*
X170700000Y-64850000D03*
X171850000Y-34200000D03*
X168600000Y-93600000D03*
X177600000Y-70100000D03*
X174800000Y-62100000D03*
X170900000Y-60900000D03*
X187550000Y-98750000D03*
X177850000Y-49650000D03*
X194100000Y-100800000D03*
X183600000Y-104800000D03*
X194050000Y-97550000D03*
X194300000Y-102550000D03*
D20*
X158350000Y-108300000D02*
X157450000Y-108300000D01*
X157450000Y-108300000D02*
X157350000Y-108400000D01*
X156750000Y-107050000D02*
X157200000Y-107050000D01*
X157200000Y-107050000D02*
X157550000Y-107400000D01*
X157650000Y-106600000D02*
X157650000Y-106700000D01*
X175600010Y-95300000D02*
X174850009Y-96050001D01*
X184100000Y-95300000D02*
X175600010Y-95300000D01*
X174850009Y-96050001D02*
X174550010Y-96350000D01*
X194396433Y-104446445D02*
X194396433Y-104022181D01*
X194396433Y-114803567D02*
X194396433Y-104446445D01*
X192600000Y-116600000D02*
X194396433Y-114803567D01*
X161400000Y-92600000D02*
X164100000Y-92600000D01*
X164100000Y-92600000D02*
X167150000Y-89550000D01*
X170100000Y-92400000D02*
X170400000Y-92700000D01*
X170400000Y-92700000D02*
X170400000Y-97150000D01*
X173750000Y-94326680D02*
X173750000Y-98550000D01*
X176376680Y-91700000D02*
X173750000Y-94326680D01*
X173750000Y-98550000D02*
X172950000Y-99350000D01*
X178750000Y-91700000D02*
X176376680Y-91700000D01*
X176750000Y-89700000D02*
X178750000Y-91700000D01*
X174650000Y-97650000D02*
X173750000Y-98550000D01*
X178750000Y-91700000D02*
X179050000Y-92000000D01*
X176750000Y-87150000D02*
X176750000Y-89700000D01*
X179050000Y-92000000D02*
X184500000Y-92000000D01*
X184500000Y-92000000D02*
X185000000Y-92500000D01*
X185350000Y-88300000D02*
X185000000Y-88650000D01*
X185000000Y-88650000D02*
X185000000Y-92500000D01*
X195500000Y-110050000D02*
X195500000Y-103450000D01*
X195500000Y-103450000D02*
X195450000Y-103400000D01*
X185000000Y-107000000D02*
X185000000Y-111300000D01*
X185000000Y-111300000D02*
X179950000Y-116350000D01*
X185000000Y-107000000D02*
X189300000Y-107000000D01*
X189300000Y-107000000D02*
X190650000Y-105650000D01*
X170699999Y-98300001D02*
X169650000Y-99350000D01*
X172950000Y-99350000D02*
X169650000Y-99350000D01*
X169650000Y-99350000D02*
X162299999Y-106700001D01*
X170400000Y-97150000D02*
X170699999Y-97449999D01*
X170699999Y-97449999D02*
X170699999Y-98300001D01*
X162299999Y-106700001D02*
X161400000Y-107600000D01*
X175950000Y-68250000D02*
X175825000Y-68250000D01*
X175825000Y-68250000D02*
X168200000Y-60625000D01*
X168200000Y-60625000D02*
X168200000Y-57250000D01*
X192884611Y-71000000D02*
X193169259Y-70715352D01*
X187350000Y-71000000D02*
X192884611Y-71000000D01*
X185350000Y-69000000D02*
X187350000Y-71000000D01*
X193169259Y-70715352D02*
X194665352Y-70715352D01*
X194450000Y-71750000D02*
X190450000Y-75750000D01*
X194665352Y-70715352D02*
X195700000Y-71750000D01*
X192400000Y-73800000D02*
X190450000Y-75750000D01*
X190450000Y-75750000D02*
X188700000Y-77500000D01*
X195700000Y-71750000D02*
X194450000Y-71750000D01*
X185350000Y-69000000D02*
X186250000Y-69900000D01*
X181300000Y-64950000D02*
X185350000Y-69000000D01*
X185000000Y-61250000D02*
X183550000Y-62700000D01*
X183550000Y-62700000D02*
X181300000Y-64950000D01*
X185000000Y-65000000D02*
X185000000Y-63727208D01*
X185000000Y-63727208D02*
X183972792Y-62700000D01*
X183972792Y-62700000D02*
X183550000Y-62700000D01*
X181100000Y-64750000D02*
X181300000Y-64950000D01*
X185000000Y-52500000D02*
X185000000Y-61250000D01*
X159550000Y-60050000D02*
X159250001Y-60349999D01*
X159250001Y-60349999D02*
X159250001Y-75450001D01*
X160500001Y-76700001D02*
X161400000Y-77600000D01*
X159250001Y-75450001D02*
X160500001Y-76700001D01*
X188700000Y-77500000D02*
X185000000Y-77500000D01*
X180400000Y-64750000D02*
X181100000Y-64750000D01*
X180400000Y-64750000D02*
X180400000Y-65174264D01*
X180400000Y-65174264D02*
X177324264Y-68250000D01*
X177324264Y-68250000D02*
X177100000Y-68250000D01*
X177100000Y-68250000D02*
X175950000Y-68250000D01*
X179500000Y-71500000D02*
X179500000Y-70650000D01*
X179500000Y-70650000D02*
X177100000Y-68250000D01*
X176875000Y-71500000D02*
X179500000Y-71500000D01*
X175900000Y-73500000D02*
X175900000Y-72475000D01*
X175900000Y-72475000D02*
X176875000Y-71500000D01*
X177704990Y-79795010D02*
X177704990Y-80825736D01*
X179700000Y-77800000D02*
X177704990Y-79795010D01*
X177704990Y-80825736D02*
X177704990Y-81250000D01*
X179700000Y-77000000D02*
X179700000Y-77800000D01*
X172700001Y-88150001D02*
X173000000Y-88450000D01*
X171899976Y-87349976D02*
X172700001Y-88150001D01*
X166150024Y-87349976D02*
X171899976Y-87349976D01*
X164700000Y-88800000D02*
X166150024Y-87349976D01*
X191498832Y-104764828D02*
X190266191Y-104764828D01*
X180484004Y-117250000D02*
X191850002Y-105884002D01*
X191850002Y-105115998D02*
X191498832Y-104764828D01*
X190266191Y-104764828D02*
X189966192Y-105064827D01*
X178500000Y-117250000D02*
X180484004Y-117250000D01*
X191850002Y-105884002D02*
X191850002Y-105115998D01*
X188384003Y-122000000D02*
X178500000Y-122000000D01*
X196700000Y-79350000D02*
X196700000Y-113684003D01*
X196700000Y-113684003D02*
X188384003Y-122000000D01*
X178500000Y-125879645D02*
X177748333Y-126631312D01*
X178500000Y-122000000D02*
X178500000Y-125879645D01*
X177748333Y-126631312D02*
X177448334Y-126931311D01*
X177450000Y-83224262D02*
X177450000Y-84000000D01*
X177450000Y-84000000D02*
X173000000Y-88450000D01*
X178249998Y-82000000D02*
X178249998Y-82424264D01*
X178249998Y-82424264D02*
X177450000Y-83224262D01*
X180050000Y-79350000D02*
X182750000Y-79350000D01*
X182750000Y-79350000D02*
X196700000Y-79350000D01*
X175850000Y-76750000D02*
X177750001Y-74849999D01*
X177750001Y-74849999D02*
X180950001Y-74849999D01*
X180950001Y-74849999D02*
X182750000Y-76649998D01*
X182750000Y-76649998D02*
X182750000Y-79350000D01*
X173400000Y-76750000D02*
X173400000Y-77400000D01*
X173400000Y-73500000D02*
X173400000Y-76750000D01*
X173400000Y-76750000D02*
X175850000Y-76750000D01*
X196700000Y-68000000D02*
X196700000Y-79350000D01*
X179700000Y-79700000D02*
X180050000Y-79350000D01*
X196700000Y-42850000D02*
X196700000Y-68000000D01*
X196450000Y-68250000D02*
X196700000Y-68000000D01*
X194550000Y-68250000D02*
X196450000Y-68250000D01*
X183172003Y-41299999D02*
X180972002Y-43500000D01*
X179700000Y-59550000D02*
X180899999Y-58350001D01*
X180972002Y-43500000D02*
X180422002Y-44050000D01*
X180899999Y-58350001D02*
X180899999Y-54922803D01*
X180899999Y-54922803D02*
X180972801Y-54850001D01*
X180972801Y-54850001D02*
X180972801Y-43500799D01*
X180972801Y-43500799D02*
X180972002Y-43500000D01*
X165950002Y-44050000D02*
X159290690Y-50709312D01*
X153814962Y-50709312D02*
X153390698Y-50709312D01*
X159290690Y-50709312D02*
X153814962Y-50709312D01*
X176400000Y-44050000D02*
X165950002Y-44050000D01*
X176400000Y-44050000D02*
X175250000Y-44050000D01*
X180422002Y-44050000D02*
X176400000Y-44050000D01*
X196700000Y-38050000D02*
X196700000Y-42850000D01*
X196700000Y-42850000D02*
X195149999Y-41299999D01*
X195149999Y-41299999D02*
X183172003Y-41299999D01*
X178500000Y-117250000D02*
X178500000Y-122000000D01*
X178500000Y-116400000D02*
X178500000Y-117250000D01*
X178500000Y-115600000D02*
X178500000Y-116400000D01*
X178500000Y-116400000D02*
X178500000Y-117150002D01*
X178500000Y-117150002D02*
X174150001Y-121500001D01*
X174150001Y-121500001D02*
X156900001Y-121500001D01*
X156900001Y-121500001D02*
X156099999Y-120699999D01*
X156099999Y-120699999D02*
X155150000Y-119750000D01*
X155150000Y-119750000D02*
X152650000Y-119750000D01*
X173400000Y-77400000D02*
X173700000Y-77700000D01*
X179500000Y-93950000D02*
X175258066Y-93950000D01*
X175258066Y-93950000D02*
X175029032Y-94179034D01*
X175029032Y-94179034D02*
X174729033Y-94479033D01*
X176800000Y-101550000D02*
X178750000Y-101550000D01*
X178750000Y-101550000D02*
X180850000Y-99450000D01*
X164150000Y-89850000D02*
X164870072Y-89850000D01*
X172550001Y-91250001D02*
X172850000Y-91550000D01*
X165649987Y-89070085D02*
X165649987Y-88876044D01*
X164870072Y-89850000D02*
X165649987Y-89070085D01*
X169349987Y-88049987D02*
X172550001Y-91250001D01*
X166476044Y-88049987D02*
X169349987Y-88049987D01*
X165649987Y-88876044D02*
X166476044Y-88049987D01*
X188350000Y-80900000D02*
X187925736Y-80900000D01*
X187925736Y-80900000D02*
X184275736Y-84550000D01*
X184275736Y-84550000D02*
X180950000Y-84550000D01*
X180950000Y-84550000D02*
X179700000Y-83300000D01*
X179700000Y-83300000D02*
X179700000Y-82500000D01*
X181400001Y-110000009D02*
X181700000Y-109700010D01*
X178800000Y-110500000D02*
X180900010Y-110500000D01*
X180900010Y-110500000D02*
X181400001Y-110000009D01*
X176800000Y-113850000D02*
X176800000Y-111250000D01*
X176800000Y-111250000D02*
X177550000Y-110500000D01*
X177550000Y-110500000D02*
X178800000Y-110500000D01*
X172550000Y-110500000D02*
X172550000Y-111300000D01*
X172550000Y-111300000D02*
X174100000Y-112850000D01*
X174100000Y-112850000D02*
X174100000Y-112900000D01*
X174100000Y-112900000D02*
X174100000Y-114050000D01*
X176800000Y-113850000D02*
X174300000Y-113850000D01*
X174300000Y-113850000D02*
X174100000Y-114050000D01*
X177550000Y-110500000D02*
X172550000Y-110500000D01*
X166765998Y-88749998D02*
X166349998Y-89165998D01*
X162750000Y-91500000D02*
X162750000Y-88322002D01*
X168600000Y-93600000D02*
X168600000Y-89815996D01*
X169522002Y-81550000D02*
X172149999Y-81550000D01*
X162750000Y-88322002D02*
X169522002Y-81550000D01*
X164210036Y-91500000D02*
X162750000Y-91500000D01*
X166349998Y-89165998D02*
X166349998Y-89360038D01*
X168600000Y-89815996D02*
X167534002Y-88749998D01*
X167534002Y-88749998D02*
X166765998Y-88749998D01*
X166349998Y-89360038D02*
X164210036Y-91500000D01*
X180800000Y-71750000D02*
X193318615Y-71750000D01*
X193318615Y-71750000D02*
X193553261Y-71515354D01*
X185950000Y-127731312D02*
X185950000Y-125423967D01*
X185950000Y-127731312D02*
X186568688Y-127731312D01*
X177064333Y-127731312D02*
X185950000Y-127731312D01*
X185950000Y-125423967D02*
X199400000Y-111973967D01*
X199400000Y-111973967D02*
X199400000Y-104500000D01*
X176648333Y-126547310D02*
X176648333Y-127315312D01*
X176648333Y-127315312D02*
X177064333Y-127731312D01*
X177799990Y-125450000D02*
X177799990Y-125589693D01*
X175700000Y-125450000D02*
X177799990Y-125450000D01*
X177799990Y-125589693D02*
X177258373Y-126131310D01*
X177258373Y-126131310D02*
X177064333Y-126131310D01*
X177064333Y-126131310D02*
X176648333Y-126547310D01*
X186568688Y-127731312D02*
X186750000Y-127550000D01*
X176450000Y-124700000D02*
X175700000Y-125450000D01*
X176800000Y-116550000D02*
X176800000Y-116150002D01*
X176800000Y-116150002D02*
X180600000Y-112350002D01*
X180600000Y-112350002D02*
X180600000Y-111650000D01*
X158900000Y-103027998D02*
X168327998Y-93600000D01*
X168277998Y-116550000D02*
X173075000Y-116550000D01*
X155150000Y-106777998D02*
X158900000Y-103027998D01*
X158900000Y-103027998D02*
X158900000Y-107172002D01*
X158900000Y-107172002D02*
X168277998Y-116550000D01*
X173075000Y-116550000D02*
X174100000Y-116550000D01*
X172149999Y-83849999D02*
X172149999Y-81550000D01*
X172149999Y-81550000D02*
X172149999Y-78799999D01*
X169650000Y-76300000D02*
X169650000Y-73075000D01*
X169650000Y-73075000D02*
X173450000Y-69275000D01*
X173450000Y-69275000D02*
X173450000Y-68250000D01*
X172149999Y-78799999D02*
X169650000Y-76300000D01*
X173450000Y-85150000D02*
X172149999Y-83849999D01*
X165349999Y-61299999D02*
X169800000Y-65750000D01*
X169800000Y-65750000D02*
X172300000Y-68250000D01*
X170700000Y-64850000D02*
X170275736Y-64850000D01*
X170275736Y-64850000D02*
X169800000Y-65325736D01*
X169800000Y-65325736D02*
X169800000Y-65750000D01*
X151750000Y-50200000D02*
X162849999Y-61299999D01*
X162849999Y-61299999D02*
X165349999Y-61299999D01*
X172300000Y-68250000D02*
X173450000Y-68250000D01*
X151750000Y-47950002D02*
X151750000Y-50200000D01*
X151600000Y-34900000D02*
X151600000Y-47800002D01*
X151600000Y-47800002D02*
X151750000Y-47950002D01*
X154000001Y-32499999D02*
X151600000Y-34900000D01*
X171850000Y-34200000D02*
X170149999Y-32499999D01*
X170149999Y-32499999D02*
X154000001Y-32499999D01*
X155150000Y-109750000D02*
X155150000Y-106777998D01*
X168327998Y-93600000D02*
X168600000Y-93600000D01*
X155150000Y-109750000D02*
X152650000Y-109750000D01*
X176800000Y-116550000D02*
X174100000Y-116550000D01*
X173450000Y-68250000D02*
X173575000Y-68250000D01*
X173575000Y-68250000D02*
X175425000Y-70100000D01*
X175425000Y-70100000D02*
X177600000Y-70100000D01*
X179622800Y-52913274D02*
X179622800Y-57277200D01*
X179622800Y-57277200D02*
X174800000Y-62100000D01*
X170122800Y-60122800D02*
X170900000Y-60900000D01*
X170122800Y-52813274D02*
X170122800Y-60122800D01*
X178800000Y-105000000D02*
X181300000Y-105000000D01*
X181300000Y-105000000D02*
X187550000Y-98750000D01*
X176222800Y-47313274D02*
X178200000Y-47313274D01*
X178200000Y-47313274D02*
X179522800Y-47313274D01*
X177850000Y-49650000D02*
X177850000Y-47663274D01*
X177850000Y-47663274D02*
X178200000Y-47313274D01*
X179522800Y-47313274D02*
X179622800Y-47413274D01*
X183899999Y-104500001D02*
X183600000Y-104800000D01*
X193550000Y-101350000D02*
X187050000Y-101350000D01*
X187050000Y-101350000D02*
X183899999Y-104500001D01*
X194100000Y-100800000D02*
X193550000Y-101350000D01*
X193550000Y-101350000D02*
X193050000Y-100850000D01*
X193050000Y-100850000D02*
X189200000Y-100850000D01*
X183600000Y-104800000D02*
X181249999Y-107150001D01*
X173800000Y-105000000D02*
X172550000Y-105000000D01*
X181249999Y-107150001D02*
X175950001Y-107150001D01*
X175950001Y-107150001D02*
X173800000Y-105000000D01*
X173222800Y-52813274D02*
X176222800Y-52813274D01*
X170122800Y-47313274D02*
X173222800Y-47313274D01*
X195350000Y-99274264D02*
X195350000Y-101500000D01*
X195350000Y-101500000D02*
X194300000Y-102550000D01*
X194050000Y-97550000D02*
X194050000Y-97974264D01*
X194050000Y-97974264D02*
X195350000Y-99274264D01*
X193300000Y-103550000D02*
X194300000Y-102550000D01*
X189200000Y-103550000D02*
X193300000Y-103550000D01*
D21*
G36*
X193561433Y-104449759D02*
X193561433Y-114457699D01*
X192311667Y-115707465D01*
X192071057Y-115806883D01*
X191807808Y-116069673D01*
X191665162Y-116413201D01*
X191664838Y-116785167D01*
X191806883Y-117128943D01*
X191940421Y-117262714D01*
X188038135Y-121165000D01*
X185871972Y-121165000D01*
X185900554Y-121080159D01*
X185000000Y-120179605D01*
X184099446Y-121080159D01*
X184128028Y-121165000D01*
X179335000Y-121165000D01*
X179335000Y-119759336D01*
X183453542Y-119759336D01*
X183479161Y-120369460D01*
X183663357Y-120814148D01*
X183919841Y-120900554D01*
X184820395Y-120000000D01*
X185179605Y-120000000D01*
X186080159Y-120900554D01*
X186336643Y-120814148D01*
X186546458Y-120240664D01*
X186520839Y-119630540D01*
X186336643Y-119185852D01*
X186080159Y-119099446D01*
X185179605Y-120000000D01*
X184820395Y-120000000D01*
X183919841Y-119099446D01*
X183663357Y-119185852D01*
X183453542Y-119759336D01*
X179335000Y-119759336D01*
X179335000Y-118919841D01*
X184099446Y-118919841D01*
X185000000Y-119820395D01*
X185900554Y-118919841D01*
X185814148Y-118663357D01*
X185240664Y-118453542D01*
X184630540Y-118479161D01*
X184185852Y-118663357D01*
X184099446Y-118919841D01*
X179335000Y-118919841D01*
X179335000Y-118085000D01*
X180484004Y-118085000D01*
X180803545Y-118021439D01*
X181074438Y-117840434D01*
X187010881Y-111903991D01*
X188864735Y-111903991D01*
X189097932Y-112468371D01*
X189529357Y-112900551D01*
X190093330Y-113134733D01*
X190703991Y-113135265D01*
X191268371Y-112902068D01*
X191700551Y-112470643D01*
X191934733Y-111906670D01*
X191935265Y-111296009D01*
X191702068Y-110731629D01*
X191270643Y-110299449D01*
X190706670Y-110065267D01*
X190096009Y-110064735D01*
X189531629Y-110297932D01*
X189099449Y-110729357D01*
X188865267Y-111293330D01*
X188864735Y-111903991D01*
X187010881Y-111903991D01*
X192440437Y-106474436D01*
X192621442Y-106203542D01*
X192685002Y-105884002D01*
X192685002Y-105115998D01*
X192621441Y-104796457D01*
X192440436Y-104525564D01*
X192299872Y-104385000D01*
X193300000Y-104385000D01*
X193516852Y-104341865D01*
X193561433Y-104449759D01*
X193561433Y-104449759D01*
G37*
X193561433Y-104449759D02*
X193561433Y-114457699D01*
X192311667Y-115707465D01*
X192071057Y-115806883D01*
X191807808Y-116069673D01*
X191665162Y-116413201D01*
X191664838Y-116785167D01*
X191806883Y-117128943D01*
X191940421Y-117262714D01*
X188038135Y-121165000D01*
X185871972Y-121165000D01*
X185900554Y-121080159D01*
X185000000Y-120179605D01*
X184099446Y-121080159D01*
X184128028Y-121165000D01*
X179335000Y-121165000D01*
X179335000Y-119759336D01*
X183453542Y-119759336D01*
X183479161Y-120369460D01*
X183663357Y-120814148D01*
X183919841Y-120900554D01*
X184820395Y-120000000D01*
X185179605Y-120000000D01*
X186080159Y-120900554D01*
X186336643Y-120814148D01*
X186546458Y-120240664D01*
X186520839Y-119630540D01*
X186336643Y-119185852D01*
X186080159Y-119099446D01*
X185179605Y-120000000D01*
X184820395Y-120000000D01*
X183919841Y-119099446D01*
X183663357Y-119185852D01*
X183453542Y-119759336D01*
X179335000Y-119759336D01*
X179335000Y-118919841D01*
X184099446Y-118919841D01*
X185000000Y-119820395D01*
X185900554Y-118919841D01*
X185814148Y-118663357D01*
X185240664Y-118453542D01*
X184630540Y-118479161D01*
X184185852Y-118663357D01*
X184099446Y-118919841D01*
X179335000Y-118919841D01*
X179335000Y-118085000D01*
X180484004Y-118085000D01*
X180803545Y-118021439D01*
X181074438Y-117840434D01*
X187010881Y-111903991D01*
X188864735Y-111903991D01*
X189097932Y-112468371D01*
X189529357Y-112900551D01*
X190093330Y-113134733D01*
X190703991Y-113135265D01*
X191268371Y-112902068D01*
X191700551Y-112470643D01*
X191934733Y-111906670D01*
X191935265Y-111296009D01*
X191702068Y-110731629D01*
X191270643Y-110299449D01*
X190706670Y-110065267D01*
X190096009Y-110064735D01*
X189531629Y-110297932D01*
X189099449Y-110729357D01*
X188865267Y-111293330D01*
X188864735Y-111903991D01*
X187010881Y-111903991D01*
X192440437Y-106474436D01*
X192621442Y-106203542D01*
X192685002Y-105884002D01*
X192685002Y-105115998D01*
X192621441Y-104796457D01*
X192440436Y-104525564D01*
X192299872Y-104385000D01*
X193300000Y-104385000D01*
X193516852Y-104341865D01*
X193561433Y-104449759D01*
G36*
X199290000Y-103564903D02*
X199214833Y-103564838D01*
X198871057Y-103706883D01*
X198607808Y-103969673D01*
X198465162Y-104313201D01*
X198464838Y-104685167D01*
X198565000Y-104927578D01*
X198565000Y-111628099D01*
X197535000Y-112658099D01*
X197535000Y-38050000D01*
X197471439Y-37730459D01*
X197290434Y-37459566D01*
X197019541Y-37278561D01*
X196700000Y-37215000D01*
X196380459Y-37278561D01*
X196109566Y-37459566D01*
X195928561Y-37730459D01*
X195865000Y-38050000D01*
X195865000Y-40834132D01*
X195740433Y-40709565D01*
X195726943Y-40700551D01*
X195469540Y-40528560D01*
X195149999Y-40464999D01*
X183172003Y-40464999D01*
X182852462Y-40528560D01*
X182595059Y-40700551D01*
X182581569Y-40709565D01*
X181935814Y-41355320D01*
X181802068Y-41031629D01*
X181420818Y-40649712D01*
X181800551Y-40270643D01*
X182034733Y-39706670D01*
X182035265Y-39096009D01*
X181802068Y-38531629D01*
X181420818Y-38149712D01*
X181800551Y-37770643D01*
X182034733Y-37206670D01*
X182035265Y-36596009D01*
X181802068Y-36031629D01*
X181370643Y-35599449D01*
X181183726Y-35521834D01*
X184864543Y-35521834D01*
X185264853Y-36490658D01*
X186005443Y-37232542D01*
X186973567Y-37634542D01*
X188021834Y-37635457D01*
X188990658Y-37235147D01*
X189732542Y-36494557D01*
X190134542Y-35526433D01*
X190135457Y-34478166D01*
X189735147Y-33509342D01*
X188994557Y-32767458D01*
X188026433Y-32365458D01*
X186978166Y-32364543D01*
X186009342Y-32764853D01*
X185267458Y-33505443D01*
X184865458Y-34473567D01*
X184864543Y-35521834D01*
X181183726Y-35521834D01*
X180806670Y-35365267D01*
X180196009Y-35364735D01*
X179631629Y-35597932D01*
X179199449Y-36029357D01*
X178965267Y-36593330D01*
X178964735Y-37203991D01*
X179197932Y-37768371D01*
X179579182Y-38150288D01*
X179199449Y-38529357D01*
X178965267Y-39093330D01*
X178964735Y-39703991D01*
X179197932Y-40268371D01*
X179579182Y-40650288D01*
X179199449Y-41029357D01*
X178965267Y-41593330D01*
X178964735Y-42203991D01*
X179197932Y-42768371D01*
X179629357Y-43200551D01*
X179664154Y-43215000D01*
X175677234Y-43215000D01*
X175436799Y-43115162D01*
X175064833Y-43114838D01*
X174822422Y-43215000D01*
X165950002Y-43215000D01*
X165630461Y-43278561D01*
X165396733Y-43434733D01*
X165359568Y-43459566D01*
X165135103Y-43684031D01*
X165135457Y-43278166D01*
X164735147Y-42309342D01*
X163994557Y-41567458D01*
X163026433Y-41165458D01*
X161978166Y-41164543D01*
X161009342Y-41564853D01*
X160267458Y-42305443D01*
X159865458Y-43273567D01*
X159864543Y-44321834D01*
X160264853Y-45290658D01*
X161005443Y-46032542D01*
X161973567Y-46434542D01*
X162384234Y-46434900D01*
X158944822Y-49874312D01*
X153817932Y-49874312D01*
X153577497Y-49774474D01*
X153205531Y-49774150D01*
X152861755Y-49916195D01*
X152754315Y-50023447D01*
X152585000Y-49854132D01*
X152585000Y-47950002D01*
X152521439Y-47630461D01*
X152435000Y-47501096D01*
X152435000Y-37203991D01*
X153964735Y-37203991D01*
X154197932Y-37768371D01*
X154579182Y-38150288D01*
X154199449Y-38529357D01*
X153965267Y-39093330D01*
X153964735Y-39703991D01*
X154197932Y-40268371D01*
X154579182Y-40650288D01*
X154199449Y-41029357D01*
X153965267Y-41593330D01*
X153964735Y-42203991D01*
X154197932Y-42768371D01*
X154629357Y-43200551D01*
X155193330Y-43434733D01*
X155803991Y-43435265D01*
X156368371Y-43202068D01*
X156800551Y-42770643D01*
X157034733Y-42206670D01*
X157035265Y-41596009D01*
X156802068Y-41031629D01*
X156420818Y-40649712D01*
X156800551Y-40270643D01*
X157034733Y-39706670D01*
X157035265Y-39096009D01*
X156802068Y-38531629D01*
X156420818Y-38149712D01*
X156800551Y-37770643D01*
X157034733Y-37206670D01*
X157035265Y-36596009D01*
X156802068Y-36031629D01*
X156370643Y-35599449D01*
X155806670Y-35365267D01*
X155196009Y-35364735D01*
X154631629Y-35597932D01*
X154199449Y-36029357D01*
X153965267Y-36593330D01*
X153964735Y-37203991D01*
X152435000Y-37203991D01*
X152435000Y-35245868D01*
X154345869Y-33334999D01*
X160438200Y-33334999D01*
X160267458Y-33505443D01*
X159865458Y-34473567D01*
X159864543Y-35521834D01*
X160264853Y-36490658D01*
X161005443Y-37232542D01*
X161973567Y-37634542D01*
X163021834Y-37635457D01*
X163990658Y-37235147D01*
X164732542Y-36494557D01*
X165134542Y-35526433D01*
X165135457Y-34478166D01*
X164735147Y-33509342D01*
X164561108Y-33334999D01*
X169804131Y-33334999D01*
X170957465Y-34488333D01*
X171056883Y-34728943D01*
X171319673Y-34992192D01*
X171663201Y-35134838D01*
X172035167Y-35135162D01*
X172378943Y-34993117D01*
X172642192Y-34730327D01*
X172784838Y-34386799D01*
X172785162Y-34014833D01*
X172643117Y-33671057D01*
X172380327Y-33407808D01*
X172138090Y-33307222D01*
X170740433Y-31909565D01*
X170469540Y-31728560D01*
X170149999Y-31664999D01*
X154000001Y-31664999D01*
X153680460Y-31728560D01*
X153409567Y-31909565D01*
X151009566Y-34309566D01*
X150828561Y-34580459D01*
X150765000Y-34900000D01*
X150765000Y-47800002D01*
X150828561Y-48119543D01*
X150915000Y-48248908D01*
X150915000Y-50200000D01*
X150978561Y-50519541D01*
X151159566Y-50790434D01*
X155734336Y-55365204D01*
X155196009Y-55364735D01*
X154631629Y-55597932D01*
X154199449Y-56029357D01*
X153965267Y-56593330D01*
X153964735Y-57203991D01*
X154197932Y-57768371D01*
X154579182Y-58150288D01*
X154199449Y-58529357D01*
X153965267Y-59093330D01*
X153964735Y-59703991D01*
X154197932Y-60268371D01*
X154579182Y-60650288D01*
X154199449Y-61029357D01*
X153965267Y-61593330D01*
X153964735Y-62203991D01*
X154197932Y-62768371D01*
X154629357Y-63200551D01*
X155193330Y-63434733D01*
X155803991Y-63435265D01*
X156368371Y-63202068D01*
X156800551Y-62770643D01*
X157034733Y-62206670D01*
X157035265Y-61596009D01*
X156802068Y-61031629D01*
X156420818Y-60649712D01*
X156800551Y-60270643D01*
X157034733Y-59706670D01*
X157035265Y-59096009D01*
X156802068Y-58531629D01*
X156420818Y-58149712D01*
X156800551Y-57770643D01*
X157034733Y-57206670D01*
X157035204Y-56666072D01*
X161663636Y-61294504D01*
X161009342Y-61564853D01*
X160267458Y-62305443D01*
X159865458Y-63273567D01*
X159864543Y-64321834D01*
X160264853Y-65290658D01*
X161005443Y-66032542D01*
X161973567Y-66434542D01*
X163021834Y-66435457D01*
X163990658Y-66035147D01*
X164732542Y-65294557D01*
X165134542Y-64326433D01*
X165135457Y-63278166D01*
X164735147Y-62309342D01*
X164561108Y-62134999D01*
X165004131Y-62134999D01*
X171709566Y-68840434D01*
X171980459Y-69021439D01*
X172083989Y-69042033D01*
X172096838Y-69110317D01*
X172228777Y-69315355D01*
X169059566Y-72484566D01*
X168878561Y-72755459D01*
X168815000Y-73075000D01*
X168815000Y-76300000D01*
X168878561Y-76619541D01*
X168975862Y-76765162D01*
X169059566Y-76890434D01*
X171314999Y-79145868D01*
X171314999Y-80715000D01*
X169522002Y-80715000D01*
X169202461Y-80778561D01*
X169020715Y-80900000D01*
X168931568Y-80959566D01*
X168235814Y-81655320D01*
X168102068Y-81331629D01*
X167670643Y-80899449D01*
X167106670Y-80665267D01*
X166496009Y-80664735D01*
X165931629Y-80897932D01*
X165499449Y-81329357D01*
X165265267Y-81893330D01*
X165264735Y-82503991D01*
X165497932Y-83068371D01*
X165929357Y-83500551D01*
X166255257Y-83635877D01*
X162159566Y-87731568D01*
X161978561Y-88002461D01*
X161915000Y-88322002D01*
X161915000Y-91153911D01*
X161640664Y-91053542D01*
X161030540Y-91079161D01*
X160585852Y-91263357D01*
X160499446Y-91519841D01*
X161400000Y-92420395D01*
X161414143Y-92406253D01*
X161593748Y-92585858D01*
X161579605Y-92600000D01*
X162480159Y-93500554D01*
X162736643Y-93414148D01*
X162946458Y-92840664D01*
X162925225Y-92335000D01*
X164210036Y-92335000D01*
X164529577Y-92271439D01*
X164800470Y-92090434D01*
X166940432Y-89950472D01*
X167007565Y-89850000D01*
X167121437Y-89679579D01*
X167140250Y-89584998D01*
X167188134Y-89584998D01*
X167765000Y-90161864D01*
X167765000Y-92991234D01*
X167737564Y-93009566D01*
X154559566Y-106187564D01*
X154378561Y-106458457D01*
X154315000Y-106777998D01*
X154315000Y-108380043D01*
X154253343Y-108405519D01*
X154160428Y-108498272D01*
X154064090Y-108348559D01*
X153851890Y-108203569D01*
X153600000Y-108152560D01*
X151700000Y-108152560D01*
X151464683Y-108196838D01*
X151248559Y-108335910D01*
X151103569Y-108548110D01*
X151052560Y-108800000D01*
X151052560Y-110700000D01*
X151096838Y-110935317D01*
X151235910Y-111151441D01*
X151448110Y-111296431D01*
X151532754Y-111313572D01*
X151271981Y-111405792D01*
X151053812Y-111997398D01*
X151078648Y-112627461D01*
X151271981Y-113094208D01*
X151533650Y-113186745D01*
X152470395Y-112250000D01*
X152456253Y-112235858D01*
X152635858Y-112056253D01*
X152650000Y-112070395D01*
X152664143Y-112056253D01*
X152843748Y-112235858D01*
X152829605Y-112250000D01*
X153766350Y-113186745D01*
X153900000Y-113139481D01*
X154033650Y-113186745D01*
X154970395Y-112250000D01*
X155329605Y-112250000D01*
X156266350Y-113186745D01*
X156528019Y-113094208D01*
X156745675Y-112503991D01*
X157164735Y-112503991D01*
X157397932Y-113068371D01*
X157829357Y-113500551D01*
X158393330Y-113734733D01*
X159003991Y-113735265D01*
X159568371Y-113502068D01*
X160000551Y-113070643D01*
X160234733Y-112506670D01*
X160235265Y-111896009D01*
X160002068Y-111331629D01*
X159570643Y-110899449D01*
X159006670Y-110665267D01*
X158396009Y-110664735D01*
X157831629Y-110897932D01*
X157399449Y-111329357D01*
X157165267Y-111893330D01*
X157164735Y-112503991D01*
X156745675Y-112503991D01*
X156746188Y-112502602D01*
X156721352Y-111872539D01*
X156528019Y-111405792D01*
X156266350Y-111313255D01*
X155329605Y-112250000D01*
X154970395Y-112250000D01*
X154956253Y-112235858D01*
X155135858Y-112056253D01*
X155150000Y-112070395D01*
X156086745Y-111133650D01*
X156066048Y-111075124D01*
X156492914Y-110649003D01*
X156734724Y-110066659D01*
X156735275Y-109436107D01*
X156494481Y-108853343D01*
X156049003Y-108407086D01*
X155985000Y-108380510D01*
X155985000Y-107607109D01*
X156219673Y-107842192D01*
X156517813Y-107965991D01*
X156415162Y-108213201D01*
X156414838Y-108585167D01*
X156556883Y-108928943D01*
X156819673Y-109192192D01*
X157163201Y-109334838D01*
X157535167Y-109335162D01*
X157878943Y-109193117D01*
X157932932Y-109139222D01*
X158163201Y-109234838D01*
X158535167Y-109235162D01*
X158878943Y-109093117D01*
X159142192Y-108830327D01*
X159211220Y-108664090D01*
X167687564Y-117140434D01*
X167958457Y-117321439D01*
X168277998Y-117385000D01*
X172843554Y-117385000D01*
X172871838Y-117535317D01*
X173010910Y-117751441D01*
X173223110Y-117896431D01*
X173475000Y-117947440D01*
X174725000Y-117947440D01*
X174960317Y-117903162D01*
X175176441Y-117764090D01*
X175321431Y-117551890D01*
X175355227Y-117385000D01*
X175518554Y-117385000D01*
X175546838Y-117535317D01*
X175685910Y-117751441D01*
X175898110Y-117896431D01*
X176150000Y-117947440D01*
X176521694Y-117947440D01*
X173804133Y-120665001D01*
X162827465Y-120665001D01*
X162934733Y-120406670D01*
X162935265Y-119796009D01*
X162702068Y-119231629D01*
X162270643Y-118799449D01*
X161706670Y-118565267D01*
X161096009Y-118564735D01*
X160531629Y-118797932D01*
X160099449Y-119229357D01*
X159865267Y-119793330D01*
X159864735Y-120403991D01*
X159972582Y-120665001D01*
X157245869Y-120665001D01*
X156709140Y-120128272D01*
X156734724Y-120066659D01*
X156735275Y-119436107D01*
X156494481Y-118853343D01*
X156066235Y-118424348D01*
X156086745Y-118366350D01*
X155150000Y-117429605D01*
X154213255Y-118366350D01*
X154233952Y-118424876D01*
X153899774Y-118758471D01*
X153566235Y-118424348D01*
X153586745Y-118366350D01*
X152650000Y-117429605D01*
X152635858Y-117443748D01*
X152456253Y-117264143D01*
X152470395Y-117250000D01*
X152829605Y-117250000D01*
X153766350Y-118186745D01*
X153900000Y-118139481D01*
X154033650Y-118186745D01*
X154970395Y-117250000D01*
X155329605Y-117250000D01*
X156266350Y-118186745D01*
X156528019Y-118094208D01*
X156746188Y-117502602D01*
X156721352Y-116872539D01*
X156528019Y-116405792D01*
X156266350Y-116313255D01*
X155329605Y-117250000D01*
X154970395Y-117250000D01*
X154033650Y-116313255D01*
X153900000Y-116360519D01*
X153766350Y-116313255D01*
X152829605Y-117250000D01*
X152470395Y-117250000D01*
X151533650Y-116313255D01*
X151271981Y-116405792D01*
X151053812Y-116997398D01*
X151062381Y-117214783D01*
X151055519Y-117214777D01*
X150710000Y-117357543D01*
X150710000Y-115866350D01*
X151713255Y-115866350D01*
X151760519Y-116000000D01*
X151713255Y-116133650D01*
X152650000Y-117070395D01*
X153586745Y-116133650D01*
X153539481Y-116000000D01*
X153586745Y-115866350D01*
X154213255Y-115866350D01*
X154260519Y-116000000D01*
X154213255Y-116133650D01*
X155150000Y-117070395D01*
X156086745Y-116133650D01*
X156039481Y-116000000D01*
X156086745Y-115866350D01*
X155150000Y-114929605D01*
X154213255Y-115866350D01*
X153586745Y-115866350D01*
X152650000Y-114929605D01*
X151713255Y-115866350D01*
X150710000Y-115866350D01*
X150710000Y-114497398D01*
X151053812Y-114497398D01*
X151078648Y-115127461D01*
X151271981Y-115594208D01*
X151533650Y-115686745D01*
X152470395Y-114750000D01*
X152829605Y-114750000D01*
X153766350Y-115686745D01*
X153900000Y-115639481D01*
X154033650Y-115686745D01*
X154970395Y-114750000D01*
X155329605Y-114750000D01*
X156266350Y-115686745D01*
X156528019Y-115594208D01*
X156746188Y-115002602D01*
X156721352Y-114372539D01*
X156528019Y-113905792D01*
X156266350Y-113813255D01*
X155329605Y-114750000D01*
X154970395Y-114750000D01*
X154033650Y-113813255D01*
X153900000Y-113860519D01*
X153766350Y-113813255D01*
X152829605Y-114750000D01*
X152470395Y-114750000D01*
X151533650Y-113813255D01*
X151271981Y-113905792D01*
X151053812Y-114497398D01*
X150710000Y-114497398D01*
X150710000Y-113366350D01*
X151713255Y-113366350D01*
X151760519Y-113500000D01*
X151713255Y-113633650D01*
X152650000Y-114570395D01*
X153586745Y-113633650D01*
X153539481Y-113500000D01*
X153586745Y-113366350D01*
X154213255Y-113366350D01*
X154260519Y-113500000D01*
X154213255Y-113633650D01*
X155150000Y-114570395D01*
X156086745Y-113633650D01*
X156039481Y-113500000D01*
X156086745Y-113366350D01*
X155150000Y-112429605D01*
X154213255Y-113366350D01*
X153586745Y-113366350D01*
X152650000Y-112429605D01*
X151713255Y-113366350D01*
X150710000Y-113366350D01*
X150710000Y-97503991D01*
X157164735Y-97503991D01*
X157397932Y-98068371D01*
X157829357Y-98500551D01*
X158393330Y-98734733D01*
X159003991Y-98735265D01*
X159568371Y-98502068D01*
X160000551Y-98070643D01*
X160234733Y-97506670D01*
X160235265Y-96896009D01*
X160002068Y-96331629D01*
X159570643Y-95899449D01*
X159006670Y-95665267D01*
X158396009Y-95664735D01*
X157831629Y-95897932D01*
X157399449Y-96329357D01*
X157165267Y-96893330D01*
X157164735Y-97503991D01*
X150710000Y-97503991D01*
X150710000Y-93680159D01*
X160499446Y-93680159D01*
X160585852Y-93936643D01*
X161159336Y-94146458D01*
X161769460Y-94120839D01*
X162214148Y-93936643D01*
X162300554Y-93680159D01*
X161400000Y-92779605D01*
X160499446Y-93680159D01*
X150710000Y-93680159D01*
X150710000Y-92359336D01*
X159853542Y-92359336D01*
X159879161Y-92969460D01*
X160063357Y-93414148D01*
X160319841Y-93500554D01*
X161220395Y-92600000D01*
X160319841Y-91699446D01*
X160063357Y-91785852D01*
X159853542Y-92359336D01*
X150710000Y-92359336D01*
X150710000Y-82503991D01*
X157164735Y-82503991D01*
X157397932Y-83068371D01*
X157829357Y-83500551D01*
X158393330Y-83734733D01*
X159003991Y-83735265D01*
X159568371Y-83502068D01*
X160000551Y-83070643D01*
X160234733Y-82506670D01*
X160235265Y-81896009D01*
X160002068Y-81331629D01*
X159570643Y-80899449D01*
X159006670Y-80665267D01*
X158396009Y-80664735D01*
X157831629Y-80897932D01*
X157399449Y-81329357D01*
X157165267Y-81893330D01*
X157164735Y-82503991D01*
X150710000Y-82503991D01*
X150710000Y-78680159D01*
X160499446Y-78680159D01*
X160585852Y-78936643D01*
X161159336Y-79146458D01*
X161769460Y-79120839D01*
X162214148Y-78936643D01*
X162300554Y-78680159D01*
X161400000Y-77779605D01*
X160499446Y-78680159D01*
X150710000Y-78680159D01*
X150710000Y-77359336D01*
X159853542Y-77359336D01*
X159879161Y-77969460D01*
X160063357Y-78414148D01*
X160319841Y-78500554D01*
X161220395Y-77600000D01*
X161579605Y-77600000D01*
X162480159Y-78500554D01*
X162736643Y-78414148D01*
X162946458Y-77840664D01*
X162920839Y-77230540D01*
X162736643Y-76785852D01*
X162480159Y-76699446D01*
X161579605Y-77600000D01*
X161220395Y-77600000D01*
X160319841Y-76699446D01*
X160063357Y-76785852D01*
X159853542Y-77359336D01*
X150710000Y-77359336D01*
X150710000Y-76519841D01*
X160499446Y-76519841D01*
X161400000Y-77420395D01*
X162300554Y-76519841D01*
X162214148Y-76263357D01*
X161640664Y-76053542D01*
X161030540Y-76079161D01*
X160585852Y-76263357D01*
X160499446Y-76519841D01*
X150710000Y-76519841D01*
X150710000Y-30710000D01*
X199290000Y-30710000D01*
X199290000Y-103564903D01*
X199290000Y-103564903D01*
G37*
X199290000Y-103564903D02*
X199214833Y-103564838D01*
X198871057Y-103706883D01*
X198607808Y-103969673D01*
X198465162Y-104313201D01*
X198464838Y-104685167D01*
X198565000Y-104927578D01*
X198565000Y-111628099D01*
X197535000Y-112658099D01*
X197535000Y-38050000D01*
X197471439Y-37730459D01*
X197290434Y-37459566D01*
X197019541Y-37278561D01*
X196700000Y-37215000D01*
X196380459Y-37278561D01*
X196109566Y-37459566D01*
X195928561Y-37730459D01*
X195865000Y-38050000D01*
X195865000Y-40834132D01*
X195740433Y-40709565D01*
X195726943Y-40700551D01*
X195469540Y-40528560D01*
X195149999Y-40464999D01*
X183172003Y-40464999D01*
X182852462Y-40528560D01*
X182595059Y-40700551D01*
X182581569Y-40709565D01*
X181935814Y-41355320D01*
X181802068Y-41031629D01*
X181420818Y-40649712D01*
X181800551Y-40270643D01*
X182034733Y-39706670D01*
X182035265Y-39096009D01*
X181802068Y-38531629D01*
X181420818Y-38149712D01*
X181800551Y-37770643D01*
X182034733Y-37206670D01*
X182035265Y-36596009D01*
X181802068Y-36031629D01*
X181370643Y-35599449D01*
X181183726Y-35521834D01*
X184864543Y-35521834D01*
X185264853Y-36490658D01*
X186005443Y-37232542D01*
X186973567Y-37634542D01*
X188021834Y-37635457D01*
X188990658Y-37235147D01*
X189732542Y-36494557D01*
X190134542Y-35526433D01*
X190135457Y-34478166D01*
X189735147Y-33509342D01*
X188994557Y-32767458D01*
X188026433Y-32365458D01*
X186978166Y-32364543D01*
X186009342Y-32764853D01*
X185267458Y-33505443D01*
X184865458Y-34473567D01*
X184864543Y-35521834D01*
X181183726Y-35521834D01*
X180806670Y-35365267D01*
X180196009Y-35364735D01*
X179631629Y-35597932D01*
X179199449Y-36029357D01*
X178965267Y-36593330D01*
X178964735Y-37203991D01*
X179197932Y-37768371D01*
X179579182Y-38150288D01*
X179199449Y-38529357D01*
X178965267Y-39093330D01*
X178964735Y-39703991D01*
X179197932Y-40268371D01*
X179579182Y-40650288D01*
X179199449Y-41029357D01*
X178965267Y-41593330D01*
X178964735Y-42203991D01*
X179197932Y-42768371D01*
X179629357Y-43200551D01*
X179664154Y-43215000D01*
X175677234Y-43215000D01*
X175436799Y-43115162D01*
X175064833Y-43114838D01*
X174822422Y-43215000D01*
X165950002Y-43215000D01*
X165630461Y-43278561D01*
X165396733Y-43434733D01*
X165359568Y-43459566D01*
X165135103Y-43684031D01*
X165135457Y-43278166D01*
X164735147Y-42309342D01*
X163994557Y-41567458D01*
X163026433Y-41165458D01*
X161978166Y-41164543D01*
X161009342Y-41564853D01*
X160267458Y-42305443D01*
X159865458Y-43273567D01*
X159864543Y-44321834D01*
X160264853Y-45290658D01*
X161005443Y-46032542D01*
X161973567Y-46434542D01*
X162384234Y-46434900D01*
X158944822Y-49874312D01*
X153817932Y-49874312D01*
X153577497Y-49774474D01*
X153205531Y-49774150D01*
X152861755Y-49916195D01*
X152754315Y-50023447D01*
X152585000Y-49854132D01*
X152585000Y-47950002D01*
X152521439Y-47630461D01*
X152435000Y-47501096D01*
X152435000Y-37203991D01*
X153964735Y-37203991D01*
X154197932Y-37768371D01*
X154579182Y-38150288D01*
X154199449Y-38529357D01*
X153965267Y-39093330D01*
X153964735Y-39703991D01*
X154197932Y-40268371D01*
X154579182Y-40650288D01*
X154199449Y-41029357D01*
X153965267Y-41593330D01*
X153964735Y-42203991D01*
X154197932Y-42768371D01*
X154629357Y-43200551D01*
X155193330Y-43434733D01*
X155803991Y-43435265D01*
X156368371Y-43202068D01*
X156800551Y-42770643D01*
X157034733Y-42206670D01*
X157035265Y-41596009D01*
X156802068Y-41031629D01*
X156420818Y-40649712D01*
X156800551Y-40270643D01*
X157034733Y-39706670D01*
X157035265Y-39096009D01*
X156802068Y-38531629D01*
X156420818Y-38149712D01*
X156800551Y-37770643D01*
X157034733Y-37206670D01*
X157035265Y-36596009D01*
X156802068Y-36031629D01*
X156370643Y-35599449D01*
X155806670Y-35365267D01*
X155196009Y-35364735D01*
X154631629Y-35597932D01*
X154199449Y-36029357D01*
X153965267Y-36593330D01*
X153964735Y-37203991D01*
X152435000Y-37203991D01*
X152435000Y-35245868D01*
X154345869Y-33334999D01*
X160438200Y-33334999D01*
X160267458Y-33505443D01*
X159865458Y-34473567D01*
X159864543Y-35521834D01*
X160264853Y-36490658D01*
X161005443Y-37232542D01*
X161973567Y-37634542D01*
X163021834Y-37635457D01*
X163990658Y-37235147D01*
X164732542Y-36494557D01*
X165134542Y-35526433D01*
X165135457Y-34478166D01*
X164735147Y-33509342D01*
X164561108Y-33334999D01*
X169804131Y-33334999D01*
X170957465Y-34488333D01*
X171056883Y-34728943D01*
X171319673Y-34992192D01*
X171663201Y-35134838D01*
X172035167Y-35135162D01*
X172378943Y-34993117D01*
X172642192Y-34730327D01*
X172784838Y-34386799D01*
X172785162Y-34014833D01*
X172643117Y-33671057D01*
X172380327Y-33407808D01*
X172138090Y-33307222D01*
X170740433Y-31909565D01*
X170469540Y-31728560D01*
X170149999Y-31664999D01*
X154000001Y-31664999D01*
X153680460Y-31728560D01*
X153409567Y-31909565D01*
X151009566Y-34309566D01*
X150828561Y-34580459D01*
X150765000Y-34900000D01*
X150765000Y-47800002D01*
X150828561Y-48119543D01*
X150915000Y-48248908D01*
X150915000Y-50200000D01*
X150978561Y-50519541D01*
X151159566Y-50790434D01*
X155734336Y-55365204D01*
X155196009Y-55364735D01*
X154631629Y-55597932D01*
X154199449Y-56029357D01*
X153965267Y-56593330D01*
X153964735Y-57203991D01*
X154197932Y-57768371D01*
X154579182Y-58150288D01*
X154199449Y-58529357D01*
X153965267Y-59093330D01*
X153964735Y-59703991D01*
X154197932Y-60268371D01*
X154579182Y-60650288D01*
X154199449Y-61029357D01*
X153965267Y-61593330D01*
X153964735Y-62203991D01*
X154197932Y-62768371D01*
X154629357Y-63200551D01*
X155193330Y-63434733D01*
X155803991Y-63435265D01*
X156368371Y-63202068D01*
X156800551Y-62770643D01*
X157034733Y-62206670D01*
X157035265Y-61596009D01*
X156802068Y-61031629D01*
X156420818Y-60649712D01*
X156800551Y-60270643D01*
X157034733Y-59706670D01*
X157035265Y-59096009D01*
X156802068Y-58531629D01*
X156420818Y-58149712D01*
X156800551Y-57770643D01*
X157034733Y-57206670D01*
X157035204Y-56666072D01*
X161663636Y-61294504D01*
X161009342Y-61564853D01*
X160267458Y-62305443D01*
X159865458Y-63273567D01*
X159864543Y-64321834D01*
X160264853Y-65290658D01*
X161005443Y-66032542D01*
X161973567Y-66434542D01*
X163021834Y-66435457D01*
X163990658Y-66035147D01*
X164732542Y-65294557D01*
X165134542Y-64326433D01*
X165135457Y-63278166D01*
X164735147Y-62309342D01*
X164561108Y-62134999D01*
X165004131Y-62134999D01*
X171709566Y-68840434D01*
X171980459Y-69021439D01*
X172083989Y-69042033D01*
X172096838Y-69110317D01*
X172228777Y-69315355D01*
X169059566Y-72484566D01*
X168878561Y-72755459D01*
X168815000Y-73075000D01*
X168815000Y-76300000D01*
X168878561Y-76619541D01*
X168975862Y-76765162D01*
X169059566Y-76890434D01*
X171314999Y-79145868D01*
X171314999Y-80715000D01*
X169522002Y-80715000D01*
X169202461Y-80778561D01*
X169020715Y-80900000D01*
X168931568Y-80959566D01*
X168235814Y-81655320D01*
X168102068Y-81331629D01*
X167670643Y-80899449D01*
X167106670Y-80665267D01*
X166496009Y-80664735D01*
X165931629Y-80897932D01*
X165499449Y-81329357D01*
X165265267Y-81893330D01*
X165264735Y-82503991D01*
X165497932Y-83068371D01*
X165929357Y-83500551D01*
X166255257Y-83635877D01*
X162159566Y-87731568D01*
X161978561Y-88002461D01*
X161915000Y-88322002D01*
X161915000Y-91153911D01*
X161640664Y-91053542D01*
X161030540Y-91079161D01*
X160585852Y-91263357D01*
X160499446Y-91519841D01*
X161400000Y-92420395D01*
X161414143Y-92406253D01*
X161593748Y-92585858D01*
X161579605Y-92600000D01*
X162480159Y-93500554D01*
X162736643Y-93414148D01*
X162946458Y-92840664D01*
X162925225Y-92335000D01*
X164210036Y-92335000D01*
X164529577Y-92271439D01*
X164800470Y-92090434D01*
X166940432Y-89950472D01*
X167007565Y-89850000D01*
X167121437Y-89679579D01*
X167140250Y-89584998D01*
X167188134Y-89584998D01*
X167765000Y-90161864D01*
X167765000Y-92991234D01*
X167737564Y-93009566D01*
X154559566Y-106187564D01*
X154378561Y-106458457D01*
X154315000Y-106777998D01*
X154315000Y-108380043D01*
X154253343Y-108405519D01*
X154160428Y-108498272D01*
X154064090Y-108348559D01*
X153851890Y-108203569D01*
X153600000Y-108152560D01*
X151700000Y-108152560D01*
X151464683Y-108196838D01*
X151248559Y-108335910D01*
X151103569Y-108548110D01*
X151052560Y-108800000D01*
X151052560Y-110700000D01*
X151096838Y-110935317D01*
X151235910Y-111151441D01*
X151448110Y-111296431D01*
X151532754Y-111313572D01*
X151271981Y-111405792D01*
X151053812Y-111997398D01*
X151078648Y-112627461D01*
X151271981Y-113094208D01*
X151533650Y-113186745D01*
X152470395Y-112250000D01*
X152456253Y-112235858D01*
X152635858Y-112056253D01*
X152650000Y-112070395D01*
X152664143Y-112056253D01*
X152843748Y-112235858D01*
X152829605Y-112250000D01*
X153766350Y-113186745D01*
X153900000Y-113139481D01*
X154033650Y-113186745D01*
X154970395Y-112250000D01*
X155329605Y-112250000D01*
X156266350Y-113186745D01*
X156528019Y-113094208D01*
X156745675Y-112503991D01*
X157164735Y-112503991D01*
X157397932Y-113068371D01*
X157829357Y-113500551D01*
X158393330Y-113734733D01*
X159003991Y-113735265D01*
X159568371Y-113502068D01*
X160000551Y-113070643D01*
X160234733Y-112506670D01*
X160235265Y-111896009D01*
X160002068Y-111331629D01*
X159570643Y-110899449D01*
X159006670Y-110665267D01*
X158396009Y-110664735D01*
X157831629Y-110897932D01*
X157399449Y-111329357D01*
X157165267Y-111893330D01*
X157164735Y-112503991D01*
X156745675Y-112503991D01*
X156746188Y-112502602D01*
X156721352Y-111872539D01*
X156528019Y-111405792D01*
X156266350Y-111313255D01*
X155329605Y-112250000D01*
X154970395Y-112250000D01*
X154956253Y-112235858D01*
X155135858Y-112056253D01*
X155150000Y-112070395D01*
X156086745Y-111133650D01*
X156066048Y-111075124D01*
X156492914Y-110649003D01*
X156734724Y-110066659D01*
X156735275Y-109436107D01*
X156494481Y-108853343D01*
X156049003Y-108407086D01*
X155985000Y-108380510D01*
X155985000Y-107607109D01*
X156219673Y-107842192D01*
X156517813Y-107965991D01*
X156415162Y-108213201D01*
X156414838Y-108585167D01*
X156556883Y-108928943D01*
X156819673Y-109192192D01*
X157163201Y-109334838D01*
X157535167Y-109335162D01*
X157878943Y-109193117D01*
X157932932Y-109139222D01*
X158163201Y-109234838D01*
X158535167Y-109235162D01*
X158878943Y-109093117D01*
X159142192Y-108830327D01*
X159211220Y-108664090D01*
X167687564Y-117140434D01*
X167958457Y-117321439D01*
X168277998Y-117385000D01*
X172843554Y-117385000D01*
X172871838Y-117535317D01*
X173010910Y-117751441D01*
X173223110Y-117896431D01*
X173475000Y-117947440D01*
X174725000Y-117947440D01*
X174960317Y-117903162D01*
X175176441Y-117764090D01*
X175321431Y-117551890D01*
X175355227Y-117385000D01*
X175518554Y-117385000D01*
X175546838Y-117535317D01*
X175685910Y-117751441D01*
X175898110Y-117896431D01*
X176150000Y-117947440D01*
X176521694Y-117947440D01*
X173804133Y-120665001D01*
X162827465Y-120665001D01*
X162934733Y-120406670D01*
X162935265Y-119796009D01*
X162702068Y-119231629D01*
X162270643Y-118799449D01*
X161706670Y-118565267D01*
X161096009Y-118564735D01*
X160531629Y-118797932D01*
X160099449Y-119229357D01*
X159865267Y-119793330D01*
X159864735Y-120403991D01*
X159972582Y-120665001D01*
X157245869Y-120665001D01*
X156709140Y-120128272D01*
X156734724Y-120066659D01*
X156735275Y-119436107D01*
X156494481Y-118853343D01*
X156066235Y-118424348D01*
X156086745Y-118366350D01*
X155150000Y-117429605D01*
X154213255Y-118366350D01*
X154233952Y-118424876D01*
X153899774Y-118758471D01*
X153566235Y-118424348D01*
X153586745Y-118366350D01*
X152650000Y-117429605D01*
X152635858Y-117443748D01*
X152456253Y-117264143D01*
X152470395Y-117250000D01*
X152829605Y-117250000D01*
X153766350Y-118186745D01*
X153900000Y-118139481D01*
X154033650Y-118186745D01*
X154970395Y-117250000D01*
X155329605Y-117250000D01*
X156266350Y-118186745D01*
X156528019Y-118094208D01*
X156746188Y-117502602D01*
X156721352Y-116872539D01*
X156528019Y-116405792D01*
X156266350Y-116313255D01*
X155329605Y-117250000D01*
X154970395Y-117250000D01*
X154033650Y-116313255D01*
X153900000Y-116360519D01*
X153766350Y-116313255D01*
X152829605Y-117250000D01*
X152470395Y-117250000D01*
X151533650Y-116313255D01*
X151271981Y-116405792D01*
X151053812Y-116997398D01*
X151062381Y-117214783D01*
X151055519Y-117214777D01*
X150710000Y-117357543D01*
X150710000Y-115866350D01*
X151713255Y-115866350D01*
X151760519Y-116000000D01*
X151713255Y-116133650D01*
X152650000Y-117070395D01*
X153586745Y-116133650D01*
X153539481Y-116000000D01*
X153586745Y-115866350D01*
X154213255Y-115866350D01*
X154260519Y-116000000D01*
X154213255Y-116133650D01*
X155150000Y-117070395D01*
X156086745Y-116133650D01*
X156039481Y-116000000D01*
X156086745Y-115866350D01*
X155150000Y-114929605D01*
X154213255Y-115866350D01*
X153586745Y-115866350D01*
X152650000Y-114929605D01*
X151713255Y-115866350D01*
X150710000Y-115866350D01*
X150710000Y-114497398D01*
X151053812Y-114497398D01*
X151078648Y-115127461D01*
X151271981Y-115594208D01*
X151533650Y-115686745D01*
X152470395Y-114750000D01*
X152829605Y-114750000D01*
X153766350Y-115686745D01*
X153900000Y-115639481D01*
X154033650Y-115686745D01*
X154970395Y-114750000D01*
X155329605Y-114750000D01*
X156266350Y-115686745D01*
X156528019Y-115594208D01*
X156746188Y-115002602D01*
X156721352Y-114372539D01*
X156528019Y-113905792D01*
X156266350Y-113813255D01*
X155329605Y-114750000D01*
X154970395Y-114750000D01*
X154033650Y-113813255D01*
X153900000Y-113860519D01*
X153766350Y-113813255D01*
X152829605Y-114750000D01*
X152470395Y-114750000D01*
X151533650Y-113813255D01*
X151271981Y-113905792D01*
X151053812Y-114497398D01*
X150710000Y-114497398D01*
X150710000Y-113366350D01*
X151713255Y-113366350D01*
X151760519Y-113500000D01*
X151713255Y-113633650D01*
X152650000Y-114570395D01*
X153586745Y-113633650D01*
X153539481Y-113500000D01*
X153586745Y-113366350D01*
X154213255Y-113366350D01*
X154260519Y-113500000D01*
X154213255Y-113633650D01*
X155150000Y-114570395D01*
X156086745Y-113633650D01*
X156039481Y-113500000D01*
X156086745Y-113366350D01*
X155150000Y-112429605D01*
X154213255Y-113366350D01*
X153586745Y-113366350D01*
X152650000Y-112429605D01*
X151713255Y-113366350D01*
X150710000Y-113366350D01*
X150710000Y-97503991D01*
X157164735Y-97503991D01*
X157397932Y-98068371D01*
X157829357Y-98500551D01*
X158393330Y-98734733D01*
X159003991Y-98735265D01*
X159568371Y-98502068D01*
X160000551Y-98070643D01*
X160234733Y-97506670D01*
X160235265Y-96896009D01*
X160002068Y-96331629D01*
X159570643Y-95899449D01*
X159006670Y-95665267D01*
X158396009Y-95664735D01*
X157831629Y-95897932D01*
X157399449Y-96329357D01*
X157165267Y-96893330D01*
X157164735Y-97503991D01*
X150710000Y-97503991D01*
X150710000Y-93680159D01*
X160499446Y-93680159D01*
X160585852Y-93936643D01*
X161159336Y-94146458D01*
X161769460Y-94120839D01*
X162214148Y-93936643D01*
X162300554Y-93680159D01*
X161400000Y-92779605D01*
X160499446Y-93680159D01*
X150710000Y-93680159D01*
X150710000Y-92359336D01*
X159853542Y-92359336D01*
X159879161Y-92969460D01*
X160063357Y-93414148D01*
X160319841Y-93500554D01*
X161220395Y-92600000D01*
X160319841Y-91699446D01*
X160063357Y-91785852D01*
X159853542Y-92359336D01*
X150710000Y-92359336D01*
X150710000Y-82503991D01*
X157164735Y-82503991D01*
X157397932Y-83068371D01*
X157829357Y-83500551D01*
X158393330Y-83734733D01*
X159003991Y-83735265D01*
X159568371Y-83502068D01*
X160000551Y-83070643D01*
X160234733Y-82506670D01*
X160235265Y-81896009D01*
X160002068Y-81331629D01*
X159570643Y-80899449D01*
X159006670Y-80665267D01*
X158396009Y-80664735D01*
X157831629Y-80897932D01*
X157399449Y-81329357D01*
X157165267Y-81893330D01*
X157164735Y-82503991D01*
X150710000Y-82503991D01*
X150710000Y-78680159D01*
X160499446Y-78680159D01*
X160585852Y-78936643D01*
X161159336Y-79146458D01*
X161769460Y-79120839D01*
X162214148Y-78936643D01*
X162300554Y-78680159D01*
X161400000Y-77779605D01*
X160499446Y-78680159D01*
X150710000Y-78680159D01*
X150710000Y-77359336D01*
X159853542Y-77359336D01*
X159879161Y-77969460D01*
X160063357Y-78414148D01*
X160319841Y-78500554D01*
X161220395Y-77600000D01*
X161579605Y-77600000D01*
X162480159Y-78500554D01*
X162736643Y-78414148D01*
X162946458Y-77840664D01*
X162920839Y-77230540D01*
X162736643Y-76785852D01*
X162480159Y-76699446D01*
X161579605Y-77600000D01*
X161220395Y-77600000D01*
X160319841Y-76699446D01*
X160063357Y-76785852D01*
X159853542Y-77359336D01*
X150710000Y-77359336D01*
X150710000Y-76519841D01*
X160499446Y-76519841D01*
X161400000Y-77420395D01*
X162300554Y-76519841D01*
X162214148Y-76263357D01*
X161640664Y-76053542D01*
X161030540Y-76079161D01*
X160585852Y-76263357D01*
X160499446Y-76519841D01*
X150710000Y-76519841D01*
X150710000Y-30710000D01*
X199290000Y-30710000D01*
X199290000Y-103564903D01*
G36*
X195865000Y-98608396D02*
X194984845Y-97728241D01*
X194985162Y-97364833D01*
X194843117Y-97021057D01*
X194580327Y-96757808D01*
X194236799Y-96615162D01*
X193864833Y-96614838D01*
X193521057Y-96756883D01*
X193257808Y-97019673D01*
X193115162Y-97363201D01*
X193114838Y-97735167D01*
X193216271Y-97980655D01*
X193278561Y-98293805D01*
X193350900Y-98402068D01*
X193459566Y-98564698D01*
X194515000Y-99620132D01*
X194515000Y-99959920D01*
X194286799Y-99865162D01*
X193914833Y-99864838D01*
X193571057Y-100006883D01*
X193447244Y-100130480D01*
X193369541Y-100078561D01*
X193050000Y-100015000D01*
X190481446Y-100015000D01*
X190453162Y-99864683D01*
X190314090Y-99648559D01*
X190101890Y-99503569D01*
X189850000Y-99452560D01*
X188550000Y-99452560D01*
X188314683Y-99496838D01*
X188098559Y-99635910D01*
X187953569Y-99848110D01*
X187902560Y-100100000D01*
X187902560Y-100515000D01*
X187050000Y-100515000D01*
X186944978Y-100535890D01*
X187838333Y-99642535D01*
X188078943Y-99543117D01*
X188342192Y-99280327D01*
X188484838Y-98936799D01*
X188485162Y-98564833D01*
X188343117Y-98221057D01*
X188080327Y-97957808D01*
X187736799Y-97815162D01*
X187364833Y-97814838D01*
X187021057Y-97956883D01*
X186757808Y-98219673D01*
X186657222Y-98461910D01*
X180954132Y-104165000D01*
X180297440Y-104165000D01*
X180297440Y-103350000D01*
X180253162Y-103114683D01*
X180114090Y-102898559D01*
X179901890Y-102753569D01*
X179650000Y-102702560D01*
X177950000Y-102702560D01*
X177714683Y-102746838D01*
X177498559Y-102885910D01*
X177353569Y-103098110D01*
X177302560Y-103350000D01*
X177302560Y-106315001D01*
X176295869Y-106315001D01*
X174390434Y-104409566D01*
X174293144Y-104344559D01*
X174119541Y-104228561D01*
X174047440Y-104214219D01*
X174047440Y-103350000D01*
X174003162Y-103114683D01*
X173864090Y-102898559D01*
X173651890Y-102753569D01*
X173400000Y-102702560D01*
X171700000Y-102702560D01*
X171464683Y-102746838D01*
X171248559Y-102885910D01*
X171103569Y-103098110D01*
X171052560Y-103350000D01*
X171052560Y-106650000D01*
X171096838Y-106885317D01*
X171235910Y-107101441D01*
X171448110Y-107246431D01*
X171700000Y-107297440D01*
X173400000Y-107297440D01*
X173635317Y-107253162D01*
X173851441Y-107114090D01*
X173996431Y-106901890D01*
X174047440Y-106650000D01*
X174047440Y-106428308D01*
X175359567Y-107740435D01*
X175630461Y-107921441D01*
X175950001Y-107985001D01*
X181249999Y-107985001D01*
X181569540Y-107921440D01*
X181840433Y-107740435D01*
X182821532Y-106759336D01*
X183453542Y-106759336D01*
X183479161Y-107369460D01*
X183663357Y-107814148D01*
X183919841Y-107900554D01*
X184820395Y-107000000D01*
X185179605Y-107000000D01*
X186080159Y-107900554D01*
X186336643Y-107814148D01*
X186546458Y-107240664D01*
X186520839Y-106630540D01*
X186336643Y-106185852D01*
X186080159Y-106099446D01*
X185179605Y-107000000D01*
X184820395Y-107000000D01*
X183919841Y-106099446D01*
X183663357Y-106185852D01*
X183453542Y-106759336D01*
X182821532Y-106759336D01*
X183661027Y-105919841D01*
X184099446Y-105919841D01*
X185000000Y-106820395D01*
X185900554Y-105919841D01*
X185814148Y-105663357D01*
X185240664Y-105453542D01*
X184630540Y-105479161D01*
X184185852Y-105663357D01*
X184099446Y-105919841D01*
X183661027Y-105919841D01*
X183888333Y-105692535D01*
X184128943Y-105593117D01*
X184392192Y-105330327D01*
X184492778Y-105088090D01*
X187395868Y-102185000D01*
X188281380Y-102185000D01*
X188298110Y-102196431D01*
X188311197Y-102199081D01*
X188098559Y-102335910D01*
X187953569Y-102548110D01*
X187902560Y-102800000D01*
X187902560Y-104300000D01*
X187946838Y-104535317D01*
X188085910Y-104751441D01*
X188298110Y-104896431D01*
X188550000Y-104947440D01*
X189031294Y-104947440D01*
X189031030Y-105249994D01*
X189173075Y-105593770D01*
X189435865Y-105857019D01*
X189779393Y-105999665D01*
X190151359Y-105999989D01*
X190495135Y-105857944D01*
X190753702Y-105599828D01*
X190953307Y-105599828D01*
X180138136Y-116415000D01*
X179335000Y-116415000D01*
X179335000Y-116027234D01*
X179434838Y-115786799D01*
X179435162Y-115414833D01*
X179293117Y-115071057D01*
X179176567Y-114954303D01*
X181190434Y-112940436D01*
X181302198Y-112773170D01*
X181429357Y-112900551D01*
X181993330Y-113134733D01*
X182603991Y-113135265D01*
X183168371Y-112902068D01*
X183600551Y-112470643D01*
X183834733Y-111906670D01*
X183835265Y-111296009D01*
X183602068Y-110731629D01*
X183170643Y-110299449D01*
X182606670Y-110065267D01*
X182560752Y-110065227D01*
X182634838Y-109886809D01*
X182635162Y-109514843D01*
X182493117Y-109171067D01*
X182230327Y-108907818D01*
X181886799Y-108765172D01*
X181514833Y-108764848D01*
X181171057Y-108906893D01*
X180907808Y-109169683D01*
X180807222Y-109411920D01*
X180554142Y-109665000D01*
X180297440Y-109665000D01*
X180297440Y-108850000D01*
X180253162Y-108614683D01*
X180114090Y-108398559D01*
X179901890Y-108253569D01*
X179650000Y-108202560D01*
X177950000Y-108202560D01*
X177714683Y-108246838D01*
X177498559Y-108385910D01*
X177353569Y-108598110D01*
X177302560Y-108850000D01*
X177302560Y-109665000D01*
X174047440Y-109665000D01*
X174047440Y-108850000D01*
X174003162Y-108614683D01*
X173864090Y-108398559D01*
X173651890Y-108253569D01*
X173400000Y-108202560D01*
X171700000Y-108202560D01*
X171464683Y-108246838D01*
X171248559Y-108385910D01*
X171103569Y-108598110D01*
X171052560Y-108850000D01*
X171052560Y-112150000D01*
X171096838Y-112385317D01*
X171235910Y-112601441D01*
X171448110Y-112746431D01*
X171700000Y-112797440D01*
X172866572Y-112797440D01*
X172975451Y-112906319D01*
X172878569Y-113048110D01*
X172827560Y-113300000D01*
X172827560Y-114800000D01*
X172871838Y-115035317D01*
X173010910Y-115251441D01*
X173080711Y-115299134D01*
X173023559Y-115335910D01*
X172878569Y-115548110D01*
X172844773Y-115715000D01*
X168623866Y-115715000D01*
X166643730Y-113734864D01*
X167103991Y-113735265D01*
X167668371Y-113502068D01*
X168100551Y-113070643D01*
X168334733Y-112506670D01*
X168335265Y-111896009D01*
X168102068Y-111331629D01*
X167670643Y-110899449D01*
X167106670Y-110665267D01*
X166496009Y-110664735D01*
X165931629Y-110897932D01*
X165499449Y-111329357D01*
X165265267Y-111893330D01*
X165264864Y-112355998D01*
X161953481Y-109044615D01*
X162214148Y-108936643D01*
X162300554Y-108680159D01*
X161400000Y-107779605D01*
X161385858Y-107793748D01*
X161206253Y-107614143D01*
X161220395Y-107600000D01*
X161579605Y-107600000D01*
X162480159Y-108500554D01*
X162736643Y-108414148D01*
X162858836Y-108080159D01*
X184099446Y-108080159D01*
X184185852Y-108336643D01*
X184759336Y-108546458D01*
X185369460Y-108520839D01*
X185814148Y-108336643D01*
X185900554Y-108080159D01*
X185000000Y-107179605D01*
X184099446Y-108080159D01*
X162858836Y-108080159D01*
X162946458Y-107840664D01*
X162920839Y-107230540D01*
X162736643Y-106785852D01*
X162480159Y-106699446D01*
X161579605Y-107600000D01*
X161220395Y-107600000D01*
X160319841Y-106699446D01*
X160063357Y-106785852D01*
X159964613Y-107055747D01*
X159735000Y-106826134D01*
X159735000Y-106519841D01*
X160499446Y-106519841D01*
X161400000Y-107420395D01*
X162300554Y-106519841D01*
X162214148Y-106263357D01*
X161640664Y-106053542D01*
X161030540Y-106079161D01*
X160585852Y-106263357D01*
X160499446Y-106519841D01*
X159735000Y-106519841D01*
X159735000Y-103373866D01*
X161373699Y-101735167D01*
X175864838Y-101735167D01*
X176006883Y-102078943D01*
X176269673Y-102342192D01*
X176613201Y-102484838D01*
X176985167Y-102485162D01*
X177227578Y-102385000D01*
X178750000Y-102385000D01*
X179069541Y-102321439D01*
X179340434Y-102140434D01*
X181138335Y-100342534D01*
X181378943Y-100243117D01*
X181642192Y-99980327D01*
X181784838Y-99636799D01*
X181785162Y-99264833D01*
X181643117Y-98921057D01*
X181380327Y-98657808D01*
X181036799Y-98515162D01*
X180664833Y-98514838D01*
X180321057Y-98656883D01*
X180057808Y-98919673D01*
X179957222Y-99161909D01*
X178404132Y-100715000D01*
X177227234Y-100715000D01*
X176986799Y-100615162D01*
X176614833Y-100614838D01*
X176271057Y-100756883D01*
X176007808Y-101019673D01*
X175865162Y-101363201D01*
X175864838Y-101735167D01*
X161373699Y-101735167D01*
X165364186Y-97744680D01*
X165497932Y-98068371D01*
X165929357Y-98500551D01*
X166493330Y-98734733D01*
X167103991Y-98735265D01*
X167668371Y-98502068D01*
X168100551Y-98070643D01*
X168334733Y-97506670D01*
X168335265Y-96896009D01*
X168186169Y-96535167D01*
X173614848Y-96535167D01*
X173756893Y-96878943D01*
X174019683Y-97142192D01*
X174363211Y-97284838D01*
X174735177Y-97285162D01*
X175078953Y-97143117D01*
X175342202Y-96880327D01*
X175442788Y-96638090D01*
X175945878Y-96135000D01*
X181093971Y-96135000D01*
X180999449Y-96229357D01*
X180765267Y-96793330D01*
X180764735Y-97403991D01*
X180997932Y-97968371D01*
X181429357Y-98400551D01*
X181993330Y-98634733D01*
X182603991Y-98635265D01*
X183168371Y-98402068D01*
X183600551Y-97970643D01*
X183834733Y-97406670D01*
X183834735Y-97403991D01*
X188864735Y-97403991D01*
X189097932Y-97968371D01*
X189529357Y-98400551D01*
X190093330Y-98634733D01*
X190703991Y-98635265D01*
X191268371Y-98402068D01*
X191700551Y-97970643D01*
X191934733Y-97406670D01*
X191935265Y-96796009D01*
X191702068Y-96231629D01*
X191270643Y-95799449D01*
X190706670Y-95565267D01*
X190096009Y-95564735D01*
X189531629Y-95797932D01*
X189099449Y-96229357D01*
X188865267Y-96793330D01*
X188864735Y-97403991D01*
X183834735Y-97403991D01*
X183835265Y-96796009D01*
X183602068Y-96231629D01*
X183505608Y-96135000D01*
X183672766Y-96135000D01*
X183913201Y-96234838D01*
X184285167Y-96235162D01*
X184628943Y-96093117D01*
X184892192Y-95830327D01*
X185034838Y-95486799D01*
X185035162Y-95114833D01*
X184893117Y-94771057D01*
X184630327Y-94507808D01*
X184286799Y-94365162D01*
X183914833Y-94364838D01*
X183672422Y-94465000D01*
X180298556Y-94465000D01*
X180434838Y-94136799D01*
X180435162Y-93764833D01*
X180358857Y-93580159D01*
X184099446Y-93580159D01*
X184185852Y-93836643D01*
X184759336Y-94046458D01*
X185369460Y-94020839D01*
X185814148Y-93836643D01*
X185900554Y-93580159D01*
X185000000Y-92679605D01*
X184099446Y-93580159D01*
X180358857Y-93580159D01*
X180293117Y-93421057D01*
X180030327Y-93157808D01*
X179686799Y-93015162D01*
X179314833Y-93014838D01*
X179072422Y-93115000D01*
X175258066Y-93115000D01*
X174938525Y-93178561D01*
X174735605Y-93314148D01*
X174667632Y-93359566D01*
X174440700Y-93586498D01*
X174200090Y-93685916D01*
X173936841Y-93948706D01*
X173794195Y-94292234D01*
X173793871Y-94664200D01*
X173935916Y-95007976D01*
X174198706Y-95271225D01*
X174374797Y-95344345D01*
X174261677Y-95457465D01*
X174021067Y-95556883D01*
X173757818Y-95819673D01*
X173615172Y-96163201D01*
X173614848Y-96535167D01*
X168186169Y-96535167D01*
X168102068Y-96331629D01*
X167670643Y-95899449D01*
X167344743Y-95764123D01*
X168573888Y-94534978D01*
X168785167Y-94535162D01*
X169128943Y-94393117D01*
X169392192Y-94130327D01*
X169534838Y-93786799D01*
X169535162Y-93414833D01*
X169435000Y-93172422D01*
X169435000Y-89815996D01*
X169371439Y-89496455D01*
X169190434Y-89225562D01*
X168849859Y-88884987D01*
X169004119Y-88884987D01*
X171957465Y-91838333D01*
X172056883Y-92078943D01*
X172319673Y-92342192D01*
X172663201Y-92484838D01*
X173035167Y-92485162D01*
X173378943Y-92343117D01*
X173462870Y-92259336D01*
X183453542Y-92259336D01*
X183479161Y-92869460D01*
X183663357Y-93314148D01*
X183919841Y-93400554D01*
X184820395Y-92500000D01*
X185179605Y-92500000D01*
X186080159Y-93400554D01*
X186336643Y-93314148D01*
X186546458Y-92740664D01*
X186520839Y-92130540D01*
X186336643Y-91685852D01*
X186080159Y-91599446D01*
X185179605Y-92500000D01*
X184820395Y-92500000D01*
X183919841Y-91599446D01*
X183663357Y-91685852D01*
X183453542Y-92259336D01*
X173462870Y-92259336D01*
X173642192Y-92080327D01*
X173784838Y-91736799D01*
X173785114Y-91419841D01*
X184099446Y-91419841D01*
X185000000Y-92320395D01*
X185900554Y-91419841D01*
X185814148Y-91163357D01*
X185240664Y-90953542D01*
X184630540Y-90979161D01*
X184185852Y-91163357D01*
X184099446Y-91419841D01*
X173785114Y-91419841D01*
X173785162Y-91364833D01*
X173643117Y-91021057D01*
X173380327Y-90757808D01*
X173138090Y-90657222D01*
X170665844Y-88184976D01*
X171554108Y-88184976D01*
X172107465Y-88738333D01*
X172206883Y-88978943D01*
X172469673Y-89242192D01*
X172813201Y-89384838D01*
X173185167Y-89385162D01*
X173528943Y-89243117D01*
X173792192Y-88980327D01*
X173892778Y-88738090D01*
X178040434Y-84590434D01*
X178067451Y-84550000D01*
X178221439Y-84319541D01*
X178228131Y-84285898D01*
X178246838Y-84385317D01*
X178385910Y-84601441D01*
X178598110Y-84746431D01*
X178850000Y-84797440D01*
X180016572Y-84797440D01*
X180359566Y-85140434D01*
X180630459Y-85321439D01*
X180950000Y-85385000D01*
X184275736Y-85385000D01*
X184595277Y-85321439D01*
X184866170Y-85140434D01*
X188171759Y-81834845D01*
X188535167Y-81835162D01*
X188878943Y-81693117D01*
X188926657Y-81645486D01*
X188865267Y-81793330D01*
X188864735Y-82403991D01*
X189097932Y-82968371D01*
X189529357Y-83400551D01*
X190093330Y-83634733D01*
X190703991Y-83635265D01*
X191268371Y-83402068D01*
X191700551Y-82970643D01*
X191934733Y-82406670D01*
X191935265Y-81796009D01*
X191702068Y-81231629D01*
X191270643Y-80799449D01*
X190706670Y-80565267D01*
X190096009Y-80564735D01*
X189531629Y-80797932D01*
X189284875Y-81044255D01*
X189285162Y-80714833D01*
X189143117Y-80371057D01*
X188957384Y-80185000D01*
X195865000Y-80185000D01*
X195865000Y-98608396D01*
X195865000Y-98608396D01*
G37*
X195865000Y-98608396D02*
X194984845Y-97728241D01*
X194985162Y-97364833D01*
X194843117Y-97021057D01*
X194580327Y-96757808D01*
X194236799Y-96615162D01*
X193864833Y-96614838D01*
X193521057Y-96756883D01*
X193257808Y-97019673D01*
X193115162Y-97363201D01*
X193114838Y-97735167D01*
X193216271Y-97980655D01*
X193278561Y-98293805D01*
X193350900Y-98402068D01*
X193459566Y-98564698D01*
X194515000Y-99620132D01*
X194515000Y-99959920D01*
X194286799Y-99865162D01*
X193914833Y-99864838D01*
X193571057Y-100006883D01*
X193447244Y-100130480D01*
X193369541Y-100078561D01*
X193050000Y-100015000D01*
X190481446Y-100015000D01*
X190453162Y-99864683D01*
X190314090Y-99648559D01*
X190101890Y-99503569D01*
X189850000Y-99452560D01*
X188550000Y-99452560D01*
X188314683Y-99496838D01*
X188098559Y-99635910D01*
X187953569Y-99848110D01*
X187902560Y-100100000D01*
X187902560Y-100515000D01*
X187050000Y-100515000D01*
X186944978Y-100535890D01*
X187838333Y-99642535D01*
X188078943Y-99543117D01*
X188342192Y-99280327D01*
X188484838Y-98936799D01*
X188485162Y-98564833D01*
X188343117Y-98221057D01*
X188080327Y-97957808D01*
X187736799Y-97815162D01*
X187364833Y-97814838D01*
X187021057Y-97956883D01*
X186757808Y-98219673D01*
X186657222Y-98461910D01*
X180954132Y-104165000D01*
X180297440Y-104165000D01*
X180297440Y-103350000D01*
X180253162Y-103114683D01*
X180114090Y-102898559D01*
X179901890Y-102753569D01*
X179650000Y-102702560D01*
X177950000Y-102702560D01*
X177714683Y-102746838D01*
X177498559Y-102885910D01*
X177353569Y-103098110D01*
X177302560Y-103350000D01*
X177302560Y-106315001D01*
X176295869Y-106315001D01*
X174390434Y-104409566D01*
X174293144Y-104344559D01*
X174119541Y-104228561D01*
X174047440Y-104214219D01*
X174047440Y-103350000D01*
X174003162Y-103114683D01*
X173864090Y-102898559D01*
X173651890Y-102753569D01*
X173400000Y-102702560D01*
X171700000Y-102702560D01*
X171464683Y-102746838D01*
X171248559Y-102885910D01*
X171103569Y-103098110D01*
X171052560Y-103350000D01*
X171052560Y-106650000D01*
X171096838Y-106885317D01*
X171235910Y-107101441D01*
X171448110Y-107246431D01*
X171700000Y-107297440D01*
X173400000Y-107297440D01*
X173635317Y-107253162D01*
X173851441Y-107114090D01*
X173996431Y-106901890D01*
X174047440Y-106650000D01*
X174047440Y-106428308D01*
X175359567Y-107740435D01*
X175630461Y-107921441D01*
X175950001Y-107985001D01*
X181249999Y-107985001D01*
X181569540Y-107921440D01*
X181840433Y-107740435D01*
X182821532Y-106759336D01*
X183453542Y-106759336D01*
X183479161Y-107369460D01*
X183663357Y-107814148D01*
X183919841Y-107900554D01*
X184820395Y-107000000D01*
X185179605Y-107000000D01*
X186080159Y-107900554D01*
X186336643Y-107814148D01*
X186546458Y-107240664D01*
X186520839Y-106630540D01*
X186336643Y-106185852D01*
X186080159Y-106099446D01*
X185179605Y-107000000D01*
X184820395Y-107000000D01*
X183919841Y-106099446D01*
X183663357Y-106185852D01*
X183453542Y-106759336D01*
X182821532Y-106759336D01*
X183661027Y-105919841D01*
X184099446Y-105919841D01*
X185000000Y-106820395D01*
X185900554Y-105919841D01*
X185814148Y-105663357D01*
X185240664Y-105453542D01*
X184630540Y-105479161D01*
X184185852Y-105663357D01*
X184099446Y-105919841D01*
X183661027Y-105919841D01*
X183888333Y-105692535D01*
X184128943Y-105593117D01*
X184392192Y-105330327D01*
X184492778Y-105088090D01*
X187395868Y-102185000D01*
X188281380Y-102185000D01*
X188298110Y-102196431D01*
X188311197Y-102199081D01*
X188098559Y-102335910D01*
X187953569Y-102548110D01*
X187902560Y-102800000D01*
X187902560Y-104300000D01*
X187946838Y-104535317D01*
X188085910Y-104751441D01*
X188298110Y-104896431D01*
X188550000Y-104947440D01*
X189031294Y-104947440D01*
X189031030Y-105249994D01*
X189173075Y-105593770D01*
X189435865Y-105857019D01*
X189779393Y-105999665D01*
X190151359Y-105999989D01*
X190495135Y-105857944D01*
X190753702Y-105599828D01*
X190953307Y-105599828D01*
X180138136Y-116415000D01*
X179335000Y-116415000D01*
X179335000Y-116027234D01*
X179434838Y-115786799D01*
X179435162Y-115414833D01*
X179293117Y-115071057D01*
X179176567Y-114954303D01*
X181190434Y-112940436D01*
X181302198Y-112773170D01*
X181429357Y-112900551D01*
X181993330Y-113134733D01*
X182603991Y-113135265D01*
X183168371Y-112902068D01*
X183600551Y-112470643D01*
X183834733Y-111906670D01*
X183835265Y-111296009D01*
X183602068Y-110731629D01*
X183170643Y-110299449D01*
X182606670Y-110065267D01*
X182560752Y-110065227D01*
X182634838Y-109886809D01*
X182635162Y-109514843D01*
X182493117Y-109171067D01*
X182230327Y-108907818D01*
X181886799Y-108765172D01*
X181514833Y-108764848D01*
X181171057Y-108906893D01*
X180907808Y-109169683D01*
X180807222Y-109411920D01*
X180554142Y-109665000D01*
X180297440Y-109665000D01*
X180297440Y-108850000D01*
X180253162Y-108614683D01*
X180114090Y-108398559D01*
X179901890Y-108253569D01*
X179650000Y-108202560D01*
X177950000Y-108202560D01*
X177714683Y-108246838D01*
X177498559Y-108385910D01*
X177353569Y-108598110D01*
X177302560Y-108850000D01*
X177302560Y-109665000D01*
X174047440Y-109665000D01*
X174047440Y-108850000D01*
X174003162Y-108614683D01*
X173864090Y-108398559D01*
X173651890Y-108253569D01*
X173400000Y-108202560D01*
X171700000Y-108202560D01*
X171464683Y-108246838D01*
X171248559Y-108385910D01*
X171103569Y-108598110D01*
X171052560Y-108850000D01*
X171052560Y-112150000D01*
X171096838Y-112385317D01*
X171235910Y-112601441D01*
X171448110Y-112746431D01*
X171700000Y-112797440D01*
X172866572Y-112797440D01*
X172975451Y-112906319D01*
X172878569Y-113048110D01*
X172827560Y-113300000D01*
X172827560Y-114800000D01*
X172871838Y-115035317D01*
X173010910Y-115251441D01*
X173080711Y-115299134D01*
X173023559Y-115335910D01*
X172878569Y-115548110D01*
X172844773Y-115715000D01*
X168623866Y-115715000D01*
X166643730Y-113734864D01*
X167103991Y-113735265D01*
X167668371Y-113502068D01*
X168100551Y-113070643D01*
X168334733Y-112506670D01*
X168335265Y-111896009D01*
X168102068Y-111331629D01*
X167670643Y-110899449D01*
X167106670Y-110665267D01*
X166496009Y-110664735D01*
X165931629Y-110897932D01*
X165499449Y-111329357D01*
X165265267Y-111893330D01*
X165264864Y-112355998D01*
X161953481Y-109044615D01*
X162214148Y-108936643D01*
X162300554Y-108680159D01*
X161400000Y-107779605D01*
X161385858Y-107793748D01*
X161206253Y-107614143D01*
X161220395Y-107600000D01*
X161579605Y-107600000D01*
X162480159Y-108500554D01*
X162736643Y-108414148D01*
X162858836Y-108080159D01*
X184099446Y-108080159D01*
X184185852Y-108336643D01*
X184759336Y-108546458D01*
X185369460Y-108520839D01*
X185814148Y-108336643D01*
X185900554Y-108080159D01*
X185000000Y-107179605D01*
X184099446Y-108080159D01*
X162858836Y-108080159D01*
X162946458Y-107840664D01*
X162920839Y-107230540D01*
X162736643Y-106785852D01*
X162480159Y-106699446D01*
X161579605Y-107600000D01*
X161220395Y-107600000D01*
X160319841Y-106699446D01*
X160063357Y-106785852D01*
X159964613Y-107055747D01*
X159735000Y-106826134D01*
X159735000Y-106519841D01*
X160499446Y-106519841D01*
X161400000Y-107420395D01*
X162300554Y-106519841D01*
X162214148Y-106263357D01*
X161640664Y-106053542D01*
X161030540Y-106079161D01*
X160585852Y-106263357D01*
X160499446Y-106519841D01*
X159735000Y-106519841D01*
X159735000Y-103373866D01*
X161373699Y-101735167D01*
X175864838Y-101735167D01*
X176006883Y-102078943D01*
X176269673Y-102342192D01*
X176613201Y-102484838D01*
X176985167Y-102485162D01*
X177227578Y-102385000D01*
X178750000Y-102385000D01*
X179069541Y-102321439D01*
X179340434Y-102140434D01*
X181138335Y-100342534D01*
X181378943Y-100243117D01*
X181642192Y-99980327D01*
X181784838Y-99636799D01*
X181785162Y-99264833D01*
X181643117Y-98921057D01*
X181380327Y-98657808D01*
X181036799Y-98515162D01*
X180664833Y-98514838D01*
X180321057Y-98656883D01*
X180057808Y-98919673D01*
X179957222Y-99161909D01*
X178404132Y-100715000D01*
X177227234Y-100715000D01*
X176986799Y-100615162D01*
X176614833Y-100614838D01*
X176271057Y-100756883D01*
X176007808Y-101019673D01*
X175865162Y-101363201D01*
X175864838Y-101735167D01*
X161373699Y-101735167D01*
X165364186Y-97744680D01*
X165497932Y-98068371D01*
X165929357Y-98500551D01*
X166493330Y-98734733D01*
X167103991Y-98735265D01*
X167668371Y-98502068D01*
X168100551Y-98070643D01*
X168334733Y-97506670D01*
X168335265Y-96896009D01*
X168186169Y-96535167D01*
X173614848Y-96535167D01*
X173756893Y-96878943D01*
X174019683Y-97142192D01*
X174363211Y-97284838D01*
X174735177Y-97285162D01*
X175078953Y-97143117D01*
X175342202Y-96880327D01*
X175442788Y-96638090D01*
X175945878Y-96135000D01*
X181093971Y-96135000D01*
X180999449Y-96229357D01*
X180765267Y-96793330D01*
X180764735Y-97403991D01*
X180997932Y-97968371D01*
X181429357Y-98400551D01*
X181993330Y-98634733D01*
X182603991Y-98635265D01*
X183168371Y-98402068D01*
X183600551Y-97970643D01*
X183834733Y-97406670D01*
X183834735Y-97403991D01*
X188864735Y-97403991D01*
X189097932Y-97968371D01*
X189529357Y-98400551D01*
X190093330Y-98634733D01*
X190703991Y-98635265D01*
X191268371Y-98402068D01*
X191700551Y-97970643D01*
X191934733Y-97406670D01*
X191935265Y-96796009D01*
X191702068Y-96231629D01*
X191270643Y-95799449D01*
X190706670Y-95565267D01*
X190096009Y-95564735D01*
X189531629Y-95797932D01*
X189099449Y-96229357D01*
X188865267Y-96793330D01*
X188864735Y-97403991D01*
X183834735Y-97403991D01*
X183835265Y-96796009D01*
X183602068Y-96231629D01*
X183505608Y-96135000D01*
X183672766Y-96135000D01*
X183913201Y-96234838D01*
X184285167Y-96235162D01*
X184628943Y-96093117D01*
X184892192Y-95830327D01*
X185034838Y-95486799D01*
X185035162Y-95114833D01*
X184893117Y-94771057D01*
X184630327Y-94507808D01*
X184286799Y-94365162D01*
X183914833Y-94364838D01*
X183672422Y-94465000D01*
X180298556Y-94465000D01*
X180434838Y-94136799D01*
X180435162Y-93764833D01*
X180358857Y-93580159D01*
X184099446Y-93580159D01*
X184185852Y-93836643D01*
X184759336Y-94046458D01*
X185369460Y-94020839D01*
X185814148Y-93836643D01*
X185900554Y-93580159D01*
X185000000Y-92679605D01*
X184099446Y-93580159D01*
X180358857Y-93580159D01*
X180293117Y-93421057D01*
X180030327Y-93157808D01*
X179686799Y-93015162D01*
X179314833Y-93014838D01*
X179072422Y-93115000D01*
X175258066Y-93115000D01*
X174938525Y-93178561D01*
X174735605Y-93314148D01*
X174667632Y-93359566D01*
X174440700Y-93586498D01*
X174200090Y-93685916D01*
X173936841Y-93948706D01*
X173794195Y-94292234D01*
X173793871Y-94664200D01*
X173935916Y-95007976D01*
X174198706Y-95271225D01*
X174374797Y-95344345D01*
X174261677Y-95457465D01*
X174021067Y-95556883D01*
X173757818Y-95819673D01*
X173615172Y-96163201D01*
X173614848Y-96535167D01*
X168186169Y-96535167D01*
X168102068Y-96331629D01*
X167670643Y-95899449D01*
X167344743Y-95764123D01*
X168573888Y-94534978D01*
X168785167Y-94535162D01*
X169128943Y-94393117D01*
X169392192Y-94130327D01*
X169534838Y-93786799D01*
X169535162Y-93414833D01*
X169435000Y-93172422D01*
X169435000Y-89815996D01*
X169371439Y-89496455D01*
X169190434Y-89225562D01*
X168849859Y-88884987D01*
X169004119Y-88884987D01*
X171957465Y-91838333D01*
X172056883Y-92078943D01*
X172319673Y-92342192D01*
X172663201Y-92484838D01*
X173035167Y-92485162D01*
X173378943Y-92343117D01*
X173462870Y-92259336D01*
X183453542Y-92259336D01*
X183479161Y-92869460D01*
X183663357Y-93314148D01*
X183919841Y-93400554D01*
X184820395Y-92500000D01*
X185179605Y-92500000D01*
X186080159Y-93400554D01*
X186336643Y-93314148D01*
X186546458Y-92740664D01*
X186520839Y-92130540D01*
X186336643Y-91685852D01*
X186080159Y-91599446D01*
X185179605Y-92500000D01*
X184820395Y-92500000D01*
X183919841Y-91599446D01*
X183663357Y-91685852D01*
X183453542Y-92259336D01*
X173462870Y-92259336D01*
X173642192Y-92080327D01*
X173784838Y-91736799D01*
X173785114Y-91419841D01*
X184099446Y-91419841D01*
X185000000Y-92320395D01*
X185900554Y-91419841D01*
X185814148Y-91163357D01*
X185240664Y-90953542D01*
X184630540Y-90979161D01*
X184185852Y-91163357D01*
X184099446Y-91419841D01*
X173785114Y-91419841D01*
X173785162Y-91364833D01*
X173643117Y-91021057D01*
X173380327Y-90757808D01*
X173138090Y-90657222D01*
X170665844Y-88184976D01*
X171554108Y-88184976D01*
X172107465Y-88738333D01*
X172206883Y-88978943D01*
X172469673Y-89242192D01*
X172813201Y-89384838D01*
X173185167Y-89385162D01*
X173528943Y-89243117D01*
X173792192Y-88980327D01*
X173892778Y-88738090D01*
X178040434Y-84590434D01*
X178067451Y-84550000D01*
X178221439Y-84319541D01*
X178228131Y-84285898D01*
X178246838Y-84385317D01*
X178385910Y-84601441D01*
X178598110Y-84746431D01*
X178850000Y-84797440D01*
X180016572Y-84797440D01*
X180359566Y-85140434D01*
X180630459Y-85321439D01*
X180950000Y-85385000D01*
X184275736Y-85385000D01*
X184595277Y-85321439D01*
X184866170Y-85140434D01*
X188171759Y-81834845D01*
X188535167Y-81835162D01*
X188878943Y-81693117D01*
X188926657Y-81645486D01*
X188865267Y-81793330D01*
X188864735Y-82403991D01*
X189097932Y-82968371D01*
X189529357Y-83400551D01*
X190093330Y-83634733D01*
X190703991Y-83635265D01*
X191268371Y-83402068D01*
X191700551Y-82970643D01*
X191934733Y-82406670D01*
X191935265Y-81796009D01*
X191702068Y-81231629D01*
X191270643Y-80799449D01*
X190706670Y-80565267D01*
X190096009Y-80564735D01*
X189531629Y-80797932D01*
X189284875Y-81044255D01*
X189285162Y-80714833D01*
X189143117Y-80371057D01*
X188957384Y-80185000D01*
X195865000Y-80185000D01*
X195865000Y-98608396D01*
G36*
X195865000Y-113338135D02*
X195231433Y-113971702D01*
X195231433Y-104449415D01*
X195331271Y-104208980D01*
X195331595Y-103837014D01*
X195189550Y-103493238D01*
X194934501Y-103237743D01*
X195092192Y-103080327D01*
X195192778Y-102838090D01*
X195865000Y-102165868D01*
X195865000Y-113338135D01*
X195865000Y-113338135D01*
G37*
X195865000Y-113338135D02*
X195231433Y-113971702D01*
X195231433Y-104449415D01*
X195331271Y-104208980D01*
X195331595Y-103837014D01*
X195189550Y-103493238D01*
X194934501Y-103237743D01*
X195092192Y-103080327D01*
X195192778Y-102838090D01*
X195865000Y-102165868D01*
X195865000Y-113338135D01*
G36*
X185267458Y-42305443D02*
X184865458Y-43273567D01*
X184864543Y-44321834D01*
X185264853Y-45290658D01*
X186005443Y-46032542D01*
X186973567Y-46434542D01*
X188021834Y-46435457D01*
X188990658Y-46035147D01*
X189732542Y-45294557D01*
X190134542Y-44326433D01*
X190135457Y-43278166D01*
X189735147Y-42309342D01*
X189561108Y-42134999D01*
X194804131Y-42134999D01*
X195865000Y-43195868D01*
X195865000Y-67415000D01*
X194977234Y-67415000D01*
X194736799Y-67315162D01*
X194364833Y-67314838D01*
X194021057Y-67456883D01*
X193757808Y-67719673D01*
X193615162Y-68063201D01*
X193614838Y-68435167D01*
X193756883Y-68778943D01*
X194019673Y-69042192D01*
X194363201Y-69184838D01*
X194735167Y-69185162D01*
X194977578Y-69085000D01*
X195865000Y-69085000D01*
X195865000Y-78515000D01*
X186194608Y-78515000D01*
X186080161Y-78400553D01*
X186336643Y-78314148D01*
X186546458Y-77740664D01*
X186520839Y-77130540D01*
X186336643Y-76685852D01*
X186080159Y-76599446D01*
X185179605Y-77500000D01*
X185193748Y-77514143D01*
X185014143Y-77693748D01*
X185000000Y-77679605D01*
X184985858Y-77693748D01*
X184806253Y-77514143D01*
X184820395Y-77500000D01*
X183919841Y-76599446D01*
X183663357Y-76685852D01*
X183585000Y-76900024D01*
X183585000Y-76649998D01*
X183539219Y-76419841D01*
X184099446Y-76419841D01*
X185000000Y-77320395D01*
X185900554Y-76419841D01*
X185814148Y-76163357D01*
X185240664Y-75953542D01*
X184630540Y-75979161D01*
X184185852Y-76163357D01*
X184099446Y-76419841D01*
X183539219Y-76419841D01*
X183521439Y-76330457D01*
X183340434Y-76059564D01*
X181540435Y-74259565D01*
X181269542Y-74078560D01*
X180950001Y-74014999D01*
X177750001Y-74014999D01*
X177430460Y-74078560D01*
X177285000Y-74175753D01*
X177285000Y-73785750D01*
X177126250Y-73627000D01*
X176027000Y-73627000D01*
X176027000Y-74601250D01*
X176185750Y-74760000D01*
X176659132Y-74760000D01*
X175504132Y-75915000D01*
X174235000Y-75915000D01*
X174235000Y-74756446D01*
X174385317Y-74728162D01*
X174601441Y-74589090D01*
X174647969Y-74520994D01*
X174790302Y-74663327D01*
X175023691Y-74760000D01*
X175614250Y-74760000D01*
X175773000Y-74601250D01*
X175773000Y-73627000D01*
X175753000Y-73627000D01*
X175753000Y-73373000D01*
X175773000Y-73373000D01*
X175773000Y-72398750D01*
X176027000Y-72398750D01*
X176027000Y-73373000D01*
X177126250Y-73373000D01*
X177285000Y-73214250D01*
X177285000Y-72748690D01*
X177188327Y-72515301D01*
X177009698Y-72336673D01*
X176776309Y-72240000D01*
X176185750Y-72240000D01*
X176027000Y-72398750D01*
X175773000Y-72398750D01*
X175614250Y-72240000D01*
X175023691Y-72240000D01*
X174790302Y-72336673D01*
X174649064Y-72477910D01*
X174614090Y-72423559D01*
X174401890Y-72278569D01*
X174150000Y-72227560D01*
X172650000Y-72227560D01*
X172414683Y-72271838D01*
X172198559Y-72410910D01*
X172053569Y-72623110D01*
X172002560Y-72875000D01*
X172002560Y-74125000D01*
X172046838Y-74360317D01*
X172185910Y-74576441D01*
X172398110Y-74721431D01*
X172565000Y-74755227D01*
X172565000Y-77400000D01*
X172628561Y-77719541D01*
X172792571Y-77964999D01*
X172806336Y-77985600D01*
X172906883Y-78228943D01*
X173169673Y-78492192D01*
X173513201Y-78634838D01*
X173885167Y-78635162D01*
X174228943Y-78493117D01*
X174492192Y-78230327D01*
X174634838Y-77886799D01*
X174635101Y-77585000D01*
X175850000Y-77585000D01*
X176169541Y-77521439D01*
X176440434Y-77340434D01*
X178095869Y-75684999D01*
X178202560Y-75684999D01*
X178202560Y-78116572D01*
X177114556Y-79204576D01*
X176933551Y-79475469D01*
X176869990Y-79795010D01*
X176869990Y-80822766D01*
X176770152Y-81063201D01*
X176769828Y-81435167D01*
X176911873Y-81778943D01*
X177174663Y-82042192D01*
X177314910Y-82100428D01*
X177314842Y-82178552D01*
X176859566Y-82633828D01*
X176678561Y-82904721D01*
X176615000Y-83224262D01*
X176615000Y-83654132D01*
X173000000Y-87269132D01*
X172490410Y-86759542D01*
X172219517Y-86578537D01*
X171899976Y-86514976D01*
X166150024Y-86514976D01*
X165830484Y-86578536D01*
X165559590Y-86759542D01*
X164411667Y-87907465D01*
X164298748Y-87954122D01*
X169867870Y-82385000D01*
X171314999Y-82385000D01*
X171314999Y-83849999D01*
X171378560Y-84169540D01*
X171478787Y-84319540D01*
X171559565Y-84440433D01*
X172557465Y-85438333D01*
X172656883Y-85678943D01*
X172919673Y-85942192D01*
X173263201Y-86084838D01*
X173635167Y-86085162D01*
X173978943Y-85943117D01*
X174242192Y-85680327D01*
X174384838Y-85336799D01*
X174385162Y-84964833D01*
X174243117Y-84621057D01*
X173980327Y-84357808D01*
X173738090Y-84257222D01*
X172984999Y-83504131D01*
X172984999Y-78799999D01*
X172921438Y-78480458D01*
X172794468Y-78290434D01*
X172740433Y-78209564D01*
X170485000Y-75954132D01*
X170485000Y-73420868D01*
X171970701Y-71935167D01*
X179864838Y-71935167D01*
X180006883Y-72278943D01*
X180269673Y-72542192D01*
X180613201Y-72684838D01*
X180985167Y-72685162D01*
X181227578Y-72585000D01*
X193318615Y-72585000D01*
X193638156Y-72521439D01*
X193753814Y-72444158D01*
X194082204Y-72308471D01*
X194345453Y-72045681D01*
X194488099Y-71702153D01*
X194488423Y-71330187D01*
X194346378Y-70986411D01*
X194083588Y-70723162D01*
X193740060Y-70580516D01*
X193368094Y-70580192D01*
X193024318Y-70722237D01*
X192831218Y-70915000D01*
X191237073Y-70915000D01*
X191268371Y-70902068D01*
X191700551Y-70470643D01*
X191934733Y-69906670D01*
X191935265Y-69296009D01*
X191702068Y-68731629D01*
X191270643Y-68299449D01*
X190706670Y-68065267D01*
X190096009Y-68064735D01*
X189531629Y-68297932D01*
X189099449Y-68729357D01*
X188865267Y-69293330D01*
X188864735Y-69903991D01*
X189097932Y-70468371D01*
X189529357Y-70900551D01*
X189564154Y-70915000D01*
X183137073Y-70915000D01*
X183168371Y-70902068D01*
X183600551Y-70470643D01*
X183834733Y-69906670D01*
X183835265Y-69296009D01*
X183602068Y-68731629D01*
X183170643Y-68299449D01*
X182606670Y-68065267D01*
X181996009Y-68064735D01*
X181431629Y-68297932D01*
X180999449Y-68729357D01*
X180765267Y-69293330D01*
X180764735Y-69903991D01*
X180997932Y-70468371D01*
X181429357Y-70900551D01*
X181464154Y-70915000D01*
X181227234Y-70915000D01*
X180986799Y-70815162D01*
X180614833Y-70814838D01*
X180271057Y-70956883D01*
X180007808Y-71219673D01*
X179865162Y-71563201D01*
X179864838Y-71935167D01*
X171970701Y-71935167D01*
X174025000Y-69880868D01*
X174834566Y-70690434D01*
X175105459Y-70871439D01*
X175425000Y-70935000D01*
X177172766Y-70935000D01*
X177413201Y-71034838D01*
X177785167Y-71035162D01*
X178128943Y-70893117D01*
X178392192Y-70630327D01*
X178534838Y-70286799D01*
X178535162Y-69914833D01*
X178393117Y-69571057D01*
X178130327Y-69307808D01*
X177786799Y-69165162D01*
X177414833Y-69164838D01*
X177233096Y-69239930D01*
X177238327Y-69234699D01*
X177335000Y-69001310D01*
X177335000Y-68535750D01*
X177176250Y-68377000D01*
X176077000Y-68377000D01*
X176077000Y-68397000D01*
X175823000Y-68397000D01*
X175823000Y-68377000D01*
X175803000Y-68377000D01*
X175803000Y-68123000D01*
X175823000Y-68123000D01*
X175823000Y-67148750D01*
X176077000Y-67148750D01*
X176077000Y-68123000D01*
X177176250Y-68123000D01*
X177335000Y-67964250D01*
X177335000Y-67498690D01*
X177238327Y-67265301D01*
X177059698Y-67086673D01*
X176826309Y-66990000D01*
X176235750Y-66990000D01*
X176077000Y-67148750D01*
X175823000Y-67148750D01*
X175664250Y-66990000D01*
X175073691Y-66990000D01*
X174840302Y-67086673D01*
X174699064Y-67227910D01*
X174664090Y-67173559D01*
X174451890Y-67028569D01*
X174200000Y-66977560D01*
X172700000Y-66977560D01*
X172464683Y-67021838D01*
X172335703Y-67104835D01*
X171311027Y-66080159D01*
X184099446Y-66080159D01*
X184185852Y-66336643D01*
X184759336Y-66546458D01*
X185369460Y-66520839D01*
X185814148Y-66336643D01*
X185900554Y-66080159D01*
X185000000Y-65179605D01*
X184099446Y-66080159D01*
X171311027Y-66080159D01*
X170977768Y-65746900D01*
X171228943Y-65643117D01*
X171492192Y-65380327D01*
X171634838Y-65036799D01*
X171635079Y-64759336D01*
X183453542Y-64759336D01*
X183479161Y-65369460D01*
X183663357Y-65814148D01*
X183919841Y-65900554D01*
X184820395Y-65000000D01*
X185179605Y-65000000D01*
X186080159Y-65900554D01*
X186336643Y-65814148D01*
X186546458Y-65240664D01*
X186520839Y-64630540D01*
X186336643Y-64185852D01*
X186080159Y-64099446D01*
X185179605Y-65000000D01*
X184820395Y-65000000D01*
X183919841Y-64099446D01*
X183663357Y-64185852D01*
X183453542Y-64759336D01*
X171635079Y-64759336D01*
X171635162Y-64664833D01*
X171493117Y-64321057D01*
X171230327Y-64057808D01*
X170898068Y-63919841D01*
X184099446Y-63919841D01*
X185000000Y-64820395D01*
X185900554Y-63919841D01*
X185814148Y-63663357D01*
X185240664Y-63453542D01*
X184630540Y-63479161D01*
X184185852Y-63663357D01*
X184099446Y-63919841D01*
X170898068Y-63919841D01*
X170886799Y-63915162D01*
X170514833Y-63914838D01*
X170269345Y-64016271D01*
X169956195Y-64078561D01*
X169795623Y-64185852D01*
X169685302Y-64259566D01*
X169587868Y-64357000D01*
X165940433Y-60709565D01*
X165926943Y-60700551D01*
X165669540Y-60528560D01*
X165349999Y-60464999D01*
X163195867Y-60464999D01*
X158252702Y-55521834D01*
X159864543Y-55521834D01*
X160264853Y-56490658D01*
X161005443Y-57232542D01*
X161973567Y-57634542D01*
X163021834Y-57635457D01*
X163990658Y-57235147D01*
X164732542Y-56494557D01*
X165134542Y-55526433D01*
X165135457Y-54478166D01*
X164735147Y-53509342D01*
X163994557Y-52767458D01*
X163026433Y-52365458D01*
X161978166Y-52364543D01*
X161009342Y-52764853D01*
X160267458Y-53505443D01*
X159865458Y-54473567D01*
X159864543Y-55521834D01*
X158252702Y-55521834D01*
X154275180Y-51544312D01*
X159290690Y-51544312D01*
X159610231Y-51480751D01*
X159881124Y-51299746D01*
X160017596Y-51163274D01*
X168625360Y-51163274D01*
X168625360Y-54463274D01*
X168669638Y-54698591D01*
X168808710Y-54914715D01*
X169020910Y-55059705D01*
X169272800Y-55110714D01*
X169287800Y-55110714D01*
X169287800Y-60122800D01*
X169351361Y-60442341D01*
X169524905Y-60702068D01*
X169532366Y-60713234D01*
X170007465Y-61188333D01*
X170106883Y-61428943D01*
X170369673Y-61692192D01*
X170713201Y-61834838D01*
X171085167Y-61835162D01*
X171428943Y-61693117D01*
X171692192Y-61430327D01*
X171834838Y-61086799D01*
X171835162Y-60714833D01*
X171693117Y-60371057D01*
X171430327Y-60107808D01*
X171188090Y-60007222D01*
X170957800Y-59776932D01*
X170957800Y-55110714D01*
X170972800Y-55110714D01*
X171208117Y-55066436D01*
X171424241Y-54927364D01*
X171569231Y-54715164D01*
X171620240Y-54463274D01*
X171620240Y-51163274D01*
X171725360Y-51163274D01*
X171725360Y-54463274D01*
X171769638Y-54698591D01*
X171908710Y-54914715D01*
X172120910Y-55059705D01*
X172372800Y-55110714D01*
X174072800Y-55110714D01*
X174308117Y-55066436D01*
X174524241Y-54927364D01*
X174669231Y-54715164D01*
X174720240Y-54463274D01*
X174720240Y-53648274D01*
X174725360Y-53648274D01*
X174725360Y-54463274D01*
X174769638Y-54698591D01*
X174908710Y-54914715D01*
X175120910Y-55059705D01*
X175372800Y-55110714D01*
X177072800Y-55110714D01*
X177308117Y-55066436D01*
X177524241Y-54927364D01*
X177669231Y-54715164D01*
X177720240Y-54463274D01*
X177720240Y-51163274D01*
X177675962Y-50927957D01*
X177536890Y-50711833D01*
X177324690Y-50566843D01*
X177072800Y-50515834D01*
X175372800Y-50515834D01*
X175137483Y-50560112D01*
X174921359Y-50699184D01*
X174776369Y-50911384D01*
X174725360Y-51163274D01*
X174725360Y-51978274D01*
X174720240Y-51978274D01*
X174720240Y-51163274D01*
X174675962Y-50927957D01*
X174536890Y-50711833D01*
X174324690Y-50566843D01*
X174072800Y-50515834D01*
X172372800Y-50515834D01*
X172137483Y-50560112D01*
X171921359Y-50699184D01*
X171776369Y-50911384D01*
X171725360Y-51163274D01*
X171620240Y-51163274D01*
X171575962Y-50927957D01*
X171436890Y-50711833D01*
X171224690Y-50566843D01*
X170972800Y-50515834D01*
X169272800Y-50515834D01*
X169037483Y-50560112D01*
X168821359Y-50699184D01*
X168676369Y-50911384D01*
X168625360Y-51163274D01*
X160017596Y-51163274D01*
X165517596Y-45663274D01*
X168625360Y-45663274D01*
X168625360Y-48963274D01*
X168669638Y-49198591D01*
X168808710Y-49414715D01*
X169020910Y-49559705D01*
X169272800Y-49610714D01*
X170972800Y-49610714D01*
X171208117Y-49566436D01*
X171424241Y-49427364D01*
X171569231Y-49215164D01*
X171620240Y-48963274D01*
X171620240Y-48148274D01*
X171725360Y-48148274D01*
X171725360Y-48963274D01*
X171769638Y-49198591D01*
X171908710Y-49414715D01*
X172120910Y-49559705D01*
X172372800Y-49610714D01*
X174072800Y-49610714D01*
X174308117Y-49566436D01*
X174524241Y-49427364D01*
X174669231Y-49215164D01*
X174720240Y-48963274D01*
X174720240Y-45663274D01*
X174675962Y-45427957D01*
X174536890Y-45211833D01*
X174324690Y-45066843D01*
X174072800Y-45015834D01*
X172372800Y-45015834D01*
X172137483Y-45060112D01*
X171921359Y-45199184D01*
X171776369Y-45411384D01*
X171725360Y-45663274D01*
X171725360Y-46478274D01*
X171620240Y-46478274D01*
X171620240Y-45663274D01*
X171575962Y-45427957D01*
X171436890Y-45211833D01*
X171224690Y-45066843D01*
X170972800Y-45015834D01*
X169272800Y-45015834D01*
X169037483Y-45060112D01*
X168821359Y-45199184D01*
X168676369Y-45411384D01*
X168625360Y-45663274D01*
X165517596Y-45663274D01*
X166295870Y-44885000D01*
X174822766Y-44885000D01*
X175063201Y-44984838D01*
X175435167Y-44985162D01*
X175677578Y-44885000D01*
X180137801Y-44885000D01*
X180137801Y-45002560D01*
X178772800Y-45002560D01*
X178537483Y-45046838D01*
X178321359Y-45185910D01*
X178176369Y-45398110D01*
X178125360Y-45650000D01*
X178125360Y-46478274D01*
X177720240Y-46478274D01*
X177720240Y-45663274D01*
X177675962Y-45427957D01*
X177536890Y-45211833D01*
X177324690Y-45066843D01*
X177072800Y-45015834D01*
X175372800Y-45015834D01*
X175137483Y-45060112D01*
X174921359Y-45199184D01*
X174776369Y-45411384D01*
X174725360Y-45663274D01*
X174725360Y-48963274D01*
X174769638Y-49198591D01*
X174908710Y-49414715D01*
X175120910Y-49559705D01*
X175372800Y-49610714D01*
X176915034Y-49610714D01*
X176914838Y-49835167D01*
X177056883Y-50178943D01*
X177319673Y-50442192D01*
X177663201Y-50584838D01*
X178035167Y-50585162D01*
X178378943Y-50443117D01*
X178642192Y-50180327D01*
X178784838Y-49836799D01*
X178785046Y-49597440D01*
X180137801Y-49597440D01*
X180137801Y-50502560D01*
X178772800Y-50502560D01*
X178537483Y-50546838D01*
X178321359Y-50685910D01*
X178176369Y-50898110D01*
X178125360Y-51150000D01*
X178125360Y-54450000D01*
X178169638Y-54685317D01*
X178308710Y-54901441D01*
X178520910Y-55046431D01*
X178772800Y-55097440D01*
X178787800Y-55097440D01*
X178787800Y-56931332D01*
X174511667Y-61207465D01*
X174271057Y-61306883D01*
X174007808Y-61569673D01*
X173865162Y-61913201D01*
X173864838Y-62285167D01*
X174006883Y-62628943D01*
X174269673Y-62892192D01*
X174613201Y-63034838D01*
X174985167Y-63035162D01*
X175328943Y-62893117D01*
X175592192Y-62630327D01*
X175692778Y-62388090D01*
X178798888Y-59281980D01*
X178765162Y-59363201D01*
X178764838Y-59735167D01*
X178906883Y-60078943D01*
X179169673Y-60342192D01*
X179513201Y-60484838D01*
X179885167Y-60485162D01*
X180228943Y-60343117D01*
X180492192Y-60080327D01*
X180592778Y-59838090D01*
X181490433Y-58940435D01*
X181671438Y-58669542D01*
X181702392Y-58513925D01*
X181993330Y-58634733D01*
X182603991Y-58635265D01*
X183168371Y-58402068D01*
X183600551Y-57970643D01*
X183834733Y-57406670D01*
X183834735Y-57403991D01*
X188864735Y-57403991D01*
X189097932Y-57968371D01*
X189529357Y-58400551D01*
X190093330Y-58634733D01*
X190703991Y-58635265D01*
X191268371Y-58402068D01*
X191700551Y-57970643D01*
X191934733Y-57406670D01*
X191935265Y-56796009D01*
X191702068Y-56231629D01*
X191270643Y-55799449D01*
X190706670Y-55565267D01*
X190096009Y-55564735D01*
X189531629Y-55797932D01*
X189099449Y-56229357D01*
X188865267Y-56793330D01*
X188864735Y-57403991D01*
X183834735Y-57403991D01*
X183835265Y-56796009D01*
X183602068Y-56231629D01*
X183170643Y-55799449D01*
X182606670Y-55565267D01*
X181996009Y-55564735D01*
X181734999Y-55672582D01*
X181734999Y-55183373D01*
X181744241Y-55169541D01*
X181807801Y-54850001D01*
X181807801Y-53580159D01*
X184099446Y-53580159D01*
X184185852Y-53836643D01*
X184759336Y-54046458D01*
X185369460Y-54020839D01*
X185814148Y-53836643D01*
X185900554Y-53580159D01*
X185000000Y-52679605D01*
X184099446Y-53580159D01*
X181807801Y-53580159D01*
X181807801Y-52259336D01*
X183453542Y-52259336D01*
X183479161Y-52869460D01*
X183663357Y-53314148D01*
X183919841Y-53400554D01*
X184820395Y-52500000D01*
X185179605Y-52500000D01*
X186080159Y-53400554D01*
X186336643Y-53314148D01*
X186546458Y-52740664D01*
X186520839Y-52130540D01*
X186336643Y-51685852D01*
X186080159Y-51599446D01*
X185179605Y-52500000D01*
X184820395Y-52500000D01*
X183919841Y-51599446D01*
X183663357Y-51685852D01*
X183453542Y-52259336D01*
X181807801Y-52259336D01*
X181807801Y-51419841D01*
X184099446Y-51419841D01*
X185000000Y-52320395D01*
X185900554Y-51419841D01*
X185814148Y-51163357D01*
X185240664Y-50953542D01*
X184630540Y-50979161D01*
X184185852Y-51163357D01*
X184099446Y-51419841D01*
X181807801Y-51419841D01*
X181807801Y-43845069D01*
X183517871Y-42134999D01*
X185438200Y-42134999D01*
X185267458Y-42305443D01*
X185267458Y-42305443D01*
G37*
X185267458Y-42305443D02*
X184865458Y-43273567D01*
X184864543Y-44321834D01*
X185264853Y-45290658D01*
X186005443Y-46032542D01*
X186973567Y-46434542D01*
X188021834Y-46435457D01*
X188990658Y-46035147D01*
X189732542Y-45294557D01*
X190134542Y-44326433D01*
X190135457Y-43278166D01*
X189735147Y-42309342D01*
X189561108Y-42134999D01*
X194804131Y-42134999D01*
X195865000Y-43195868D01*
X195865000Y-67415000D01*
X194977234Y-67415000D01*
X194736799Y-67315162D01*
X194364833Y-67314838D01*
X194021057Y-67456883D01*
X193757808Y-67719673D01*
X193615162Y-68063201D01*
X193614838Y-68435167D01*
X193756883Y-68778943D01*
X194019673Y-69042192D01*
X194363201Y-69184838D01*
X194735167Y-69185162D01*
X194977578Y-69085000D01*
X195865000Y-69085000D01*
X195865000Y-78515000D01*
X186194608Y-78515000D01*
X186080161Y-78400553D01*
X186336643Y-78314148D01*
X186546458Y-77740664D01*
X186520839Y-77130540D01*
X186336643Y-76685852D01*
X186080159Y-76599446D01*
X185179605Y-77500000D01*
X185193748Y-77514143D01*
X185014143Y-77693748D01*
X185000000Y-77679605D01*
X184985858Y-77693748D01*
X184806253Y-77514143D01*
X184820395Y-77500000D01*
X183919841Y-76599446D01*
X183663357Y-76685852D01*
X183585000Y-76900024D01*
X183585000Y-76649998D01*
X183539219Y-76419841D01*
X184099446Y-76419841D01*
X185000000Y-77320395D01*
X185900554Y-76419841D01*
X185814148Y-76163357D01*
X185240664Y-75953542D01*
X184630540Y-75979161D01*
X184185852Y-76163357D01*
X184099446Y-76419841D01*
X183539219Y-76419841D01*
X183521439Y-76330457D01*
X183340434Y-76059564D01*
X181540435Y-74259565D01*
X181269542Y-74078560D01*
X180950001Y-74014999D01*
X177750001Y-74014999D01*
X177430460Y-74078560D01*
X177285000Y-74175753D01*
X177285000Y-73785750D01*
X177126250Y-73627000D01*
X176027000Y-73627000D01*
X176027000Y-74601250D01*
X176185750Y-74760000D01*
X176659132Y-74760000D01*
X175504132Y-75915000D01*
X174235000Y-75915000D01*
X174235000Y-74756446D01*
X174385317Y-74728162D01*
X174601441Y-74589090D01*
X174647969Y-74520994D01*
X174790302Y-74663327D01*
X175023691Y-74760000D01*
X175614250Y-74760000D01*
X175773000Y-74601250D01*
X175773000Y-73627000D01*
X175753000Y-73627000D01*
X175753000Y-73373000D01*
X175773000Y-73373000D01*
X175773000Y-72398750D01*
X176027000Y-72398750D01*
X176027000Y-73373000D01*
X177126250Y-73373000D01*
X177285000Y-73214250D01*
X177285000Y-72748690D01*
X177188327Y-72515301D01*
X177009698Y-72336673D01*
X176776309Y-72240000D01*
X176185750Y-72240000D01*
X176027000Y-72398750D01*
X175773000Y-72398750D01*
X175614250Y-72240000D01*
X175023691Y-72240000D01*
X174790302Y-72336673D01*
X174649064Y-72477910D01*
X174614090Y-72423559D01*
X174401890Y-72278569D01*
X174150000Y-72227560D01*
X172650000Y-72227560D01*
X172414683Y-72271838D01*
X172198559Y-72410910D01*
X172053569Y-72623110D01*
X172002560Y-72875000D01*
X172002560Y-74125000D01*
X172046838Y-74360317D01*
X172185910Y-74576441D01*
X172398110Y-74721431D01*
X172565000Y-74755227D01*
X172565000Y-77400000D01*
X172628561Y-77719541D01*
X172792571Y-77964999D01*
X172806336Y-77985600D01*
X172906883Y-78228943D01*
X173169673Y-78492192D01*
X173513201Y-78634838D01*
X173885167Y-78635162D01*
X174228943Y-78493117D01*
X174492192Y-78230327D01*
X174634838Y-77886799D01*
X174635101Y-77585000D01*
X175850000Y-77585000D01*
X176169541Y-77521439D01*
X176440434Y-77340434D01*
X178095869Y-75684999D01*
X178202560Y-75684999D01*
X178202560Y-78116572D01*
X177114556Y-79204576D01*
X176933551Y-79475469D01*
X176869990Y-79795010D01*
X176869990Y-80822766D01*
X176770152Y-81063201D01*
X176769828Y-81435167D01*
X176911873Y-81778943D01*
X177174663Y-82042192D01*
X177314910Y-82100428D01*
X177314842Y-82178552D01*
X176859566Y-82633828D01*
X176678561Y-82904721D01*
X176615000Y-83224262D01*
X176615000Y-83654132D01*
X173000000Y-87269132D01*
X172490410Y-86759542D01*
X172219517Y-86578537D01*
X171899976Y-86514976D01*
X166150024Y-86514976D01*
X165830484Y-86578536D01*
X165559590Y-86759542D01*
X164411667Y-87907465D01*
X164298748Y-87954122D01*
X169867870Y-82385000D01*
X171314999Y-82385000D01*
X171314999Y-83849999D01*
X171378560Y-84169540D01*
X171478787Y-84319540D01*
X171559565Y-84440433D01*
X172557465Y-85438333D01*
X172656883Y-85678943D01*
X172919673Y-85942192D01*
X173263201Y-86084838D01*
X173635167Y-86085162D01*
X173978943Y-85943117D01*
X174242192Y-85680327D01*
X174384838Y-85336799D01*
X174385162Y-84964833D01*
X174243117Y-84621057D01*
X173980327Y-84357808D01*
X173738090Y-84257222D01*
X172984999Y-83504131D01*
X172984999Y-78799999D01*
X172921438Y-78480458D01*
X172794468Y-78290434D01*
X172740433Y-78209564D01*
X170485000Y-75954132D01*
X170485000Y-73420868D01*
X171970701Y-71935167D01*
X179864838Y-71935167D01*
X180006883Y-72278943D01*
X180269673Y-72542192D01*
X180613201Y-72684838D01*
X180985167Y-72685162D01*
X181227578Y-72585000D01*
X193318615Y-72585000D01*
X193638156Y-72521439D01*
X193753814Y-72444158D01*
X194082204Y-72308471D01*
X194345453Y-72045681D01*
X194488099Y-71702153D01*
X194488423Y-71330187D01*
X194346378Y-70986411D01*
X194083588Y-70723162D01*
X193740060Y-70580516D01*
X193368094Y-70580192D01*
X193024318Y-70722237D01*
X192831218Y-70915000D01*
X191237073Y-70915000D01*
X191268371Y-70902068D01*
X191700551Y-70470643D01*
X191934733Y-69906670D01*
X191935265Y-69296009D01*
X191702068Y-68731629D01*
X191270643Y-68299449D01*
X190706670Y-68065267D01*
X190096009Y-68064735D01*
X189531629Y-68297932D01*
X189099449Y-68729357D01*
X188865267Y-69293330D01*
X188864735Y-69903991D01*
X189097932Y-70468371D01*
X189529357Y-70900551D01*
X189564154Y-70915000D01*
X183137073Y-70915000D01*
X183168371Y-70902068D01*
X183600551Y-70470643D01*
X183834733Y-69906670D01*
X183835265Y-69296009D01*
X183602068Y-68731629D01*
X183170643Y-68299449D01*
X182606670Y-68065267D01*
X181996009Y-68064735D01*
X181431629Y-68297932D01*
X180999449Y-68729357D01*
X180765267Y-69293330D01*
X180764735Y-69903991D01*
X180997932Y-70468371D01*
X181429357Y-70900551D01*
X181464154Y-70915000D01*
X181227234Y-70915000D01*
X180986799Y-70815162D01*
X180614833Y-70814838D01*
X180271057Y-70956883D01*
X180007808Y-71219673D01*
X179865162Y-71563201D01*
X179864838Y-71935167D01*
X171970701Y-71935167D01*
X174025000Y-69880868D01*
X174834566Y-70690434D01*
X175105459Y-70871439D01*
X175425000Y-70935000D01*
X177172766Y-70935000D01*
X177413201Y-71034838D01*
X177785167Y-71035162D01*
X178128943Y-70893117D01*
X178392192Y-70630327D01*
X178534838Y-70286799D01*
X178535162Y-69914833D01*
X178393117Y-69571057D01*
X178130327Y-69307808D01*
X177786799Y-69165162D01*
X177414833Y-69164838D01*
X177233096Y-69239930D01*
X177238327Y-69234699D01*
X177335000Y-69001310D01*
X177335000Y-68535750D01*
X177176250Y-68377000D01*
X176077000Y-68377000D01*
X176077000Y-68397000D01*
X175823000Y-68397000D01*
X175823000Y-68377000D01*
X175803000Y-68377000D01*
X175803000Y-68123000D01*
X175823000Y-68123000D01*
X175823000Y-67148750D01*
X176077000Y-67148750D01*
X176077000Y-68123000D01*
X177176250Y-68123000D01*
X177335000Y-67964250D01*
X177335000Y-67498690D01*
X177238327Y-67265301D01*
X177059698Y-67086673D01*
X176826309Y-66990000D01*
X176235750Y-66990000D01*
X176077000Y-67148750D01*
X175823000Y-67148750D01*
X175664250Y-66990000D01*
X175073691Y-66990000D01*
X174840302Y-67086673D01*
X174699064Y-67227910D01*
X174664090Y-67173559D01*
X174451890Y-67028569D01*
X174200000Y-66977560D01*
X172700000Y-66977560D01*
X172464683Y-67021838D01*
X172335703Y-67104835D01*
X171311027Y-66080159D01*
X184099446Y-66080159D01*
X184185852Y-66336643D01*
X184759336Y-66546458D01*
X185369460Y-66520839D01*
X185814148Y-66336643D01*
X185900554Y-66080159D01*
X185000000Y-65179605D01*
X184099446Y-66080159D01*
X171311027Y-66080159D01*
X170977768Y-65746900D01*
X171228943Y-65643117D01*
X171492192Y-65380327D01*
X171634838Y-65036799D01*
X171635079Y-64759336D01*
X183453542Y-64759336D01*
X183479161Y-65369460D01*
X183663357Y-65814148D01*
X183919841Y-65900554D01*
X184820395Y-65000000D01*
X185179605Y-65000000D01*
X186080159Y-65900554D01*
X186336643Y-65814148D01*
X186546458Y-65240664D01*
X186520839Y-64630540D01*
X186336643Y-64185852D01*
X186080159Y-64099446D01*
X185179605Y-65000000D01*
X184820395Y-65000000D01*
X183919841Y-64099446D01*
X183663357Y-64185852D01*
X183453542Y-64759336D01*
X171635079Y-64759336D01*
X171635162Y-64664833D01*
X171493117Y-64321057D01*
X171230327Y-64057808D01*
X170898068Y-63919841D01*
X184099446Y-63919841D01*
X185000000Y-64820395D01*
X185900554Y-63919841D01*
X185814148Y-63663357D01*
X185240664Y-63453542D01*
X184630540Y-63479161D01*
X184185852Y-63663357D01*
X184099446Y-63919841D01*
X170898068Y-63919841D01*
X170886799Y-63915162D01*
X170514833Y-63914838D01*
X170269345Y-64016271D01*
X169956195Y-64078561D01*
X169795623Y-64185852D01*
X169685302Y-64259566D01*
X169587868Y-64357000D01*
X165940433Y-60709565D01*
X165926943Y-60700551D01*
X165669540Y-60528560D01*
X165349999Y-60464999D01*
X163195867Y-60464999D01*
X158252702Y-55521834D01*
X159864543Y-55521834D01*
X160264853Y-56490658D01*
X161005443Y-57232542D01*
X161973567Y-57634542D01*
X163021834Y-57635457D01*
X163990658Y-57235147D01*
X164732542Y-56494557D01*
X165134542Y-55526433D01*
X165135457Y-54478166D01*
X164735147Y-53509342D01*
X163994557Y-52767458D01*
X163026433Y-52365458D01*
X161978166Y-52364543D01*
X161009342Y-52764853D01*
X160267458Y-53505443D01*
X159865458Y-54473567D01*
X159864543Y-55521834D01*
X158252702Y-55521834D01*
X154275180Y-51544312D01*
X159290690Y-51544312D01*
X159610231Y-51480751D01*
X159881124Y-51299746D01*
X160017596Y-51163274D01*
X168625360Y-51163274D01*
X168625360Y-54463274D01*
X168669638Y-54698591D01*
X168808710Y-54914715D01*
X169020910Y-55059705D01*
X169272800Y-55110714D01*
X169287800Y-55110714D01*
X169287800Y-60122800D01*
X169351361Y-60442341D01*
X169524905Y-60702068D01*
X169532366Y-60713234D01*
X170007465Y-61188333D01*
X170106883Y-61428943D01*
X170369673Y-61692192D01*
X170713201Y-61834838D01*
X171085167Y-61835162D01*
X171428943Y-61693117D01*
X171692192Y-61430327D01*
X171834838Y-61086799D01*
X171835162Y-60714833D01*
X171693117Y-60371057D01*
X171430327Y-60107808D01*
X171188090Y-60007222D01*
X170957800Y-59776932D01*
X170957800Y-55110714D01*
X170972800Y-55110714D01*
X171208117Y-55066436D01*
X171424241Y-54927364D01*
X171569231Y-54715164D01*
X171620240Y-54463274D01*
X171620240Y-51163274D01*
X171725360Y-51163274D01*
X171725360Y-54463274D01*
X171769638Y-54698591D01*
X171908710Y-54914715D01*
X172120910Y-55059705D01*
X172372800Y-55110714D01*
X174072800Y-55110714D01*
X174308117Y-55066436D01*
X174524241Y-54927364D01*
X174669231Y-54715164D01*
X174720240Y-54463274D01*
X174720240Y-53648274D01*
X174725360Y-53648274D01*
X174725360Y-54463274D01*
X174769638Y-54698591D01*
X174908710Y-54914715D01*
X175120910Y-55059705D01*
X175372800Y-55110714D01*
X177072800Y-55110714D01*
X177308117Y-55066436D01*
X177524241Y-54927364D01*
X177669231Y-54715164D01*
X177720240Y-54463274D01*
X177720240Y-51163274D01*
X177675962Y-50927957D01*
X177536890Y-50711833D01*
X177324690Y-50566843D01*
X177072800Y-50515834D01*
X175372800Y-50515834D01*
X175137483Y-50560112D01*
X174921359Y-50699184D01*
X174776369Y-50911384D01*
X174725360Y-51163274D01*
X174725360Y-51978274D01*
X174720240Y-51978274D01*
X174720240Y-51163274D01*
X174675962Y-50927957D01*
X174536890Y-50711833D01*
X174324690Y-50566843D01*
X174072800Y-50515834D01*
X172372800Y-50515834D01*
X172137483Y-50560112D01*
X171921359Y-50699184D01*
X171776369Y-50911384D01*
X171725360Y-51163274D01*
X171620240Y-51163274D01*
X171575962Y-50927957D01*
X171436890Y-50711833D01*
X171224690Y-50566843D01*
X170972800Y-50515834D01*
X169272800Y-50515834D01*
X169037483Y-50560112D01*
X168821359Y-50699184D01*
X168676369Y-50911384D01*
X168625360Y-51163274D01*
X160017596Y-51163274D01*
X165517596Y-45663274D01*
X168625360Y-45663274D01*
X168625360Y-48963274D01*
X168669638Y-49198591D01*
X168808710Y-49414715D01*
X169020910Y-49559705D01*
X169272800Y-49610714D01*
X170972800Y-49610714D01*
X171208117Y-49566436D01*
X171424241Y-49427364D01*
X171569231Y-49215164D01*
X171620240Y-48963274D01*
X171620240Y-48148274D01*
X171725360Y-48148274D01*
X171725360Y-48963274D01*
X171769638Y-49198591D01*
X171908710Y-49414715D01*
X172120910Y-49559705D01*
X172372800Y-49610714D01*
X174072800Y-49610714D01*
X174308117Y-49566436D01*
X174524241Y-49427364D01*
X174669231Y-49215164D01*
X174720240Y-48963274D01*
X174720240Y-45663274D01*
X174675962Y-45427957D01*
X174536890Y-45211833D01*
X174324690Y-45066843D01*
X174072800Y-45015834D01*
X172372800Y-45015834D01*
X172137483Y-45060112D01*
X171921359Y-45199184D01*
X171776369Y-45411384D01*
X171725360Y-45663274D01*
X171725360Y-46478274D01*
X171620240Y-46478274D01*
X171620240Y-45663274D01*
X171575962Y-45427957D01*
X171436890Y-45211833D01*
X171224690Y-45066843D01*
X170972800Y-45015834D01*
X169272800Y-45015834D01*
X169037483Y-45060112D01*
X168821359Y-45199184D01*
X168676369Y-45411384D01*
X168625360Y-45663274D01*
X165517596Y-45663274D01*
X166295870Y-44885000D01*
X174822766Y-44885000D01*
X175063201Y-44984838D01*
X175435167Y-44985162D01*
X175677578Y-44885000D01*
X180137801Y-44885000D01*
X180137801Y-45002560D01*
X178772800Y-45002560D01*
X178537483Y-45046838D01*
X178321359Y-45185910D01*
X178176369Y-45398110D01*
X178125360Y-45650000D01*
X178125360Y-46478274D01*
X177720240Y-46478274D01*
X177720240Y-45663274D01*
X177675962Y-45427957D01*
X177536890Y-45211833D01*
X177324690Y-45066843D01*
X177072800Y-45015834D01*
X175372800Y-45015834D01*
X175137483Y-45060112D01*
X174921359Y-45199184D01*
X174776369Y-45411384D01*
X174725360Y-45663274D01*
X174725360Y-48963274D01*
X174769638Y-49198591D01*
X174908710Y-49414715D01*
X175120910Y-49559705D01*
X175372800Y-49610714D01*
X176915034Y-49610714D01*
X176914838Y-49835167D01*
X177056883Y-50178943D01*
X177319673Y-50442192D01*
X177663201Y-50584838D01*
X178035167Y-50585162D01*
X178378943Y-50443117D01*
X178642192Y-50180327D01*
X178784838Y-49836799D01*
X178785046Y-49597440D01*
X180137801Y-49597440D01*
X180137801Y-50502560D01*
X178772800Y-50502560D01*
X178537483Y-50546838D01*
X178321359Y-50685910D01*
X178176369Y-50898110D01*
X178125360Y-51150000D01*
X178125360Y-54450000D01*
X178169638Y-54685317D01*
X178308710Y-54901441D01*
X178520910Y-55046431D01*
X178772800Y-55097440D01*
X178787800Y-55097440D01*
X178787800Y-56931332D01*
X174511667Y-61207465D01*
X174271057Y-61306883D01*
X174007808Y-61569673D01*
X173865162Y-61913201D01*
X173864838Y-62285167D01*
X174006883Y-62628943D01*
X174269673Y-62892192D01*
X174613201Y-63034838D01*
X174985167Y-63035162D01*
X175328943Y-62893117D01*
X175592192Y-62630327D01*
X175692778Y-62388090D01*
X178798888Y-59281980D01*
X178765162Y-59363201D01*
X178764838Y-59735167D01*
X178906883Y-60078943D01*
X179169673Y-60342192D01*
X179513201Y-60484838D01*
X179885167Y-60485162D01*
X180228943Y-60343117D01*
X180492192Y-60080327D01*
X180592778Y-59838090D01*
X181490433Y-58940435D01*
X181671438Y-58669542D01*
X181702392Y-58513925D01*
X181993330Y-58634733D01*
X182603991Y-58635265D01*
X183168371Y-58402068D01*
X183600551Y-57970643D01*
X183834733Y-57406670D01*
X183834735Y-57403991D01*
X188864735Y-57403991D01*
X189097932Y-57968371D01*
X189529357Y-58400551D01*
X190093330Y-58634733D01*
X190703991Y-58635265D01*
X191268371Y-58402068D01*
X191700551Y-57970643D01*
X191934733Y-57406670D01*
X191935265Y-56796009D01*
X191702068Y-56231629D01*
X191270643Y-55799449D01*
X190706670Y-55565267D01*
X190096009Y-55564735D01*
X189531629Y-55797932D01*
X189099449Y-56229357D01*
X188865267Y-56793330D01*
X188864735Y-57403991D01*
X183834735Y-57403991D01*
X183835265Y-56796009D01*
X183602068Y-56231629D01*
X183170643Y-55799449D01*
X182606670Y-55565267D01*
X181996009Y-55564735D01*
X181734999Y-55672582D01*
X181734999Y-55183373D01*
X181744241Y-55169541D01*
X181807801Y-54850001D01*
X181807801Y-53580159D01*
X184099446Y-53580159D01*
X184185852Y-53836643D01*
X184759336Y-54046458D01*
X185369460Y-54020839D01*
X185814148Y-53836643D01*
X185900554Y-53580159D01*
X185000000Y-52679605D01*
X184099446Y-53580159D01*
X181807801Y-53580159D01*
X181807801Y-52259336D01*
X183453542Y-52259336D01*
X183479161Y-52869460D01*
X183663357Y-53314148D01*
X183919841Y-53400554D01*
X184820395Y-52500000D01*
X185179605Y-52500000D01*
X186080159Y-53400554D01*
X186336643Y-53314148D01*
X186546458Y-52740664D01*
X186520839Y-52130540D01*
X186336643Y-51685852D01*
X186080159Y-51599446D01*
X185179605Y-52500000D01*
X184820395Y-52500000D01*
X183919841Y-51599446D01*
X183663357Y-51685852D01*
X183453542Y-52259336D01*
X181807801Y-52259336D01*
X181807801Y-51419841D01*
X184099446Y-51419841D01*
X185000000Y-52320395D01*
X185900554Y-51419841D01*
X185814148Y-51163357D01*
X185240664Y-50953542D01*
X184630540Y-50979161D01*
X184185852Y-51163357D01*
X184099446Y-51419841D01*
X181807801Y-51419841D01*
X181807801Y-43845069D01*
X183517871Y-42134999D01*
X185438200Y-42134999D01*
X185267458Y-42305443D01*
M02*
