%TF.GenerationSoftware,KiCad,Pcbnew,4.0.7*%
%TF.CreationDate,2018-02-11T21:06:32+01:00*%
%TF.ProjectId,vco,76636F2E6B696361645F706362000000,rev?*%
%TF.FileFunction,Soldermask,Bot*%
%FSLAX46Y46*%
G04 Gerber Fmt 4.6, Leading zero omitted, Abs format (unit mm)*
G04 Created by KiCad (PCBNEW 4.0.7) date 02/11/18 21:06:32*
%MOMM*%
%LPD*%
G01*
G04 APERTURE LIST*
%ADD10C,0.100000*%
%ADD11R,1.700000X1.900000*%
%ADD12R,1.000000X1.950000*%
%ADD13C,2.200000*%
%ADD14C,4.400000*%
%ADD15R,2.300000X2.300000*%
%ADD16C,2.300000*%
%ADD17C,1.700000*%
%ADD18R,1.150000X1.600000*%
%ADD19R,1.650000X1.900000*%
%ADD20R,1.600000X1.150000*%
%ADD21R,1.900000X1.650000*%
%ADD22R,2.100000X3.700000*%
%ADD23R,1.200000X1.300000*%
%ADD24R,1.900000X1.700000*%
%ADD25R,2.000000X1.700000*%
%ADD26R,2.000000X2.400000*%
%ADD27R,1.700000X2.000000*%
%ADD28R,2.400000X2.000000*%
%ADD29R,1.700000X2.300000*%
%ADD30R,2.400000X2.300000*%
%ADD31R,2.400000X2.100000*%
%ADD32R,2.100000X2.400000*%
%ADD33R,1.000000X1.900000*%
%ADD34R,1.900000X1.000000*%
G04 APERTURE END LIST*
D10*
D11*
X175000000Y-102000000D03*
X175000000Y-99300000D03*
D12*
X180155000Y-95500000D03*
X178885000Y-95500000D03*
X177615000Y-95500000D03*
X176345000Y-95500000D03*
X176345000Y-90100000D03*
X177615000Y-90100000D03*
X178885000Y-90100000D03*
X180155000Y-90100000D03*
D13*
X155500000Y-36900000D03*
X155500000Y-39400000D03*
X155500000Y-41900000D03*
D14*
X162500000Y-35000000D03*
X162500000Y-43800000D03*
D13*
X180500000Y-36900000D03*
X180500000Y-39400000D03*
X180500000Y-41900000D03*
D14*
X187500000Y-35000000D03*
X187500000Y-43800000D03*
D13*
X155500000Y-56900000D03*
X155500000Y-59400000D03*
X155500000Y-61900000D03*
D14*
X162500000Y-55000000D03*
X162500000Y-63800000D03*
D13*
X182300000Y-69600000D03*
X190400000Y-69600000D03*
X185000000Y-65000000D03*
D15*
X152650000Y-109750000D03*
D16*
X152650000Y-112250000D03*
X152650000Y-114750000D03*
X152650000Y-117250000D03*
X152650000Y-119750000D03*
X152650000Y-122250000D03*
X152650000Y-124750000D03*
X152650000Y-127250000D03*
X155150000Y-109750000D03*
X155150000Y-112250000D03*
X155150000Y-114750000D03*
X155150000Y-117250000D03*
X155150000Y-119750000D03*
X155150000Y-122250000D03*
X155150000Y-124750000D03*
X155150000Y-127250000D03*
D17*
X151310000Y-118500000D03*
D13*
X182300000Y-57100000D03*
X190400000Y-57100000D03*
X185000000Y-52500000D03*
X182300000Y-82100000D03*
X190400000Y-82100000D03*
X185000000Y-77500000D03*
X182300000Y-97100000D03*
X190400000Y-97100000D03*
X185000000Y-92500000D03*
X182300000Y-111600000D03*
X190400000Y-111600000D03*
X185000000Y-107000000D03*
X182300000Y-124600000D03*
X190400000Y-124600000D03*
X185000000Y-120000000D03*
X158700000Y-124700000D03*
X166800000Y-124700000D03*
X161400000Y-120100000D03*
X158700000Y-112200000D03*
X166800000Y-112200000D03*
X161400000Y-107600000D03*
X158700000Y-97200000D03*
X166800000Y-97200000D03*
X161400000Y-92600000D03*
X158700000Y-82200000D03*
X166800000Y-82200000D03*
X161400000Y-77600000D03*
D18*
X166800000Y-101850000D03*
X166800000Y-99950000D03*
D19*
X190800000Y-87500000D03*
X190800000Y-85000000D03*
D18*
X193250000Y-55200000D03*
X193250000Y-57100000D03*
D19*
X187100000Y-116850000D03*
X187100000Y-119350000D03*
X164200000Y-78200000D03*
X164200000Y-80700000D03*
X188600000Y-67000000D03*
X188600000Y-64500000D03*
D20*
X179500000Y-98900000D03*
X177600000Y-98900000D03*
D18*
X193950000Y-76300000D03*
X193950000Y-74400000D03*
D19*
X193850000Y-113900000D03*
X193850000Y-111400000D03*
X166050000Y-72050000D03*
X166050000Y-74550000D03*
D21*
X178300000Y-62600000D03*
X180800000Y-62600000D03*
X164950000Y-59550000D03*
X167450000Y-59550000D03*
D22*
X155200000Y-95600000D03*
X155200000Y-101100000D03*
D23*
X187700000Y-83400000D03*
X185800000Y-83400000D03*
X186750000Y-81400000D03*
D24*
X167050000Y-36550000D03*
X169750000Y-36550000D03*
X177400000Y-36550000D03*
X174700000Y-36550000D03*
X174750000Y-39450000D03*
X177450000Y-39450000D03*
X162550000Y-39300000D03*
X159850000Y-39300000D03*
D11*
X153000000Y-74500000D03*
X153000000Y-77200000D03*
D24*
X166950000Y-91900000D03*
X164250000Y-91900000D03*
X167200000Y-107300000D03*
X164500000Y-107300000D03*
D11*
X153000000Y-49200000D03*
X153000000Y-46500000D03*
D24*
X174750000Y-42200000D03*
X177450000Y-42200000D03*
D11*
X158500000Y-115650000D03*
X158500000Y-118350000D03*
X161850000Y-115000000D03*
X161850000Y-117700000D03*
X155200000Y-88300000D03*
X155200000Y-91000000D03*
X169750000Y-79900000D03*
X169750000Y-82600000D03*
X174500000Y-92700000D03*
X174500000Y-90000000D03*
D24*
X196350000Y-59950000D03*
X193650000Y-59950000D03*
D11*
X188500000Y-59050000D03*
X188500000Y-61750000D03*
D24*
X193650000Y-66000000D03*
X196350000Y-66000000D03*
X193700000Y-63050000D03*
X196400000Y-63050000D03*
D11*
X172150000Y-82600000D03*
X172150000Y-79900000D03*
X195050000Y-124750000D03*
X195050000Y-122050000D03*
D24*
X164400000Y-87150000D03*
X167100000Y-87150000D03*
X193750000Y-78800000D03*
X191050000Y-78800000D03*
D11*
X195950000Y-76450000D03*
X195950000Y-73750000D03*
X193750000Y-87600000D03*
X193750000Y-84900000D03*
X168750000Y-116600000D03*
X168750000Y-119300000D03*
X186200000Y-103700000D03*
X186200000Y-101000000D03*
X189200000Y-103550000D03*
X189200000Y-100850000D03*
X171500000Y-119300000D03*
X171500000Y-116600000D03*
X166550000Y-116600000D03*
X166550000Y-119300000D03*
D24*
X184500000Y-97100000D03*
X187200000Y-97100000D03*
X164900000Y-121850000D03*
X167600000Y-121850000D03*
D11*
X198350000Y-124700000D03*
X198350000Y-122000000D03*
X187450000Y-110500000D03*
X187450000Y-113200000D03*
D24*
X174050000Y-116600000D03*
X176750000Y-116600000D03*
D11*
X185000000Y-113150000D03*
X185000000Y-110450000D03*
X182300000Y-114400000D03*
X182300000Y-117100000D03*
X184700000Y-125800000D03*
X184700000Y-123100000D03*
X186950000Y-125800000D03*
X186950000Y-123100000D03*
D24*
X174150000Y-119100000D03*
X176850000Y-119100000D03*
D11*
X185100000Y-61750000D03*
X185100000Y-59050000D03*
D24*
X158200000Y-71000000D03*
X155500000Y-71000000D03*
D11*
X169650000Y-74600000D03*
X169650000Y-71900000D03*
D24*
X158250000Y-67600000D03*
X155550000Y-67600000D03*
D11*
X188650000Y-73950000D03*
X188650000Y-76650000D03*
D24*
X182200000Y-86000000D03*
X184900000Y-86000000D03*
D25*
X171900000Y-99400000D03*
D26*
X169000000Y-100650000D03*
D25*
X171900000Y-101900000D03*
D27*
X192000000Y-119800000D03*
D28*
X190750000Y-116900000D03*
D27*
X189500000Y-119800000D03*
D25*
X161250000Y-86050000D03*
D26*
X158350000Y-87300000D03*
D25*
X161250000Y-88550000D03*
D27*
X176850000Y-110150000D03*
D28*
X178100000Y-113050000D03*
D27*
X179350000Y-110150000D03*
X170350000Y-110100000D03*
D28*
X171600000Y-113000000D03*
D27*
X172850000Y-110100000D03*
D29*
X198400000Y-118850000D03*
D30*
X197250000Y-113750000D03*
D29*
X196100000Y-118850000D03*
D27*
X161400000Y-125000000D03*
D28*
X162650000Y-127900000D03*
D27*
X163900000Y-125000000D03*
D31*
X179150000Y-87450000D03*
X175150000Y-87450000D03*
D32*
X182250000Y-94500000D03*
X182250000Y-90500000D03*
D33*
X169905000Y-122950000D03*
X171175000Y-122950000D03*
X172445000Y-122950000D03*
X173715000Y-122950000D03*
X174985000Y-122950000D03*
X176255000Y-122950000D03*
X177525000Y-122950000D03*
X178795000Y-122950000D03*
X178795000Y-128350000D03*
X177525000Y-128350000D03*
X176255000Y-128350000D03*
X174985000Y-128350000D03*
X173715000Y-128350000D03*
X172445000Y-128350000D03*
X171175000Y-128350000D03*
X169905000Y-128350000D03*
D12*
X178505000Y-84800000D03*
X177235000Y-84800000D03*
X175965000Y-84800000D03*
X174695000Y-84800000D03*
X174695000Y-79400000D03*
X175965000Y-79400000D03*
X177235000Y-79400000D03*
X178505000Y-79400000D03*
X172655000Y-95450000D03*
X171385000Y-95450000D03*
X170115000Y-95450000D03*
X168845000Y-95450000D03*
X168845000Y-90050000D03*
X170115000Y-90050000D03*
X171385000Y-90050000D03*
X172655000Y-90050000D03*
D34*
X192250000Y-107810000D03*
X192250000Y-106540000D03*
X192250000Y-105270000D03*
X192250000Y-104000000D03*
X192250000Y-102730000D03*
X192250000Y-101460000D03*
X192250000Y-100190000D03*
X197650000Y-100190000D03*
X197650000Y-101460000D03*
X197650000Y-102730000D03*
X197650000Y-104000000D03*
X197650000Y-105270000D03*
X197650000Y-106540000D03*
X197650000Y-107810000D03*
D12*
X176305000Y-65100000D03*
X175035000Y-65100000D03*
X173765000Y-65100000D03*
X172495000Y-65100000D03*
X172495000Y-59700000D03*
X173765000Y-59700000D03*
X175035000Y-59700000D03*
X176305000Y-59700000D03*
X172745000Y-70600000D03*
X174015000Y-70600000D03*
X175285000Y-70600000D03*
X176555000Y-70600000D03*
X176555000Y-76000000D03*
X175285000Y-76000000D03*
X174015000Y-76000000D03*
X172745000Y-76000000D03*
M02*
