M48
;DRILL file {KiCad 4.0.7} date 03/09/18 05:36:45
;FORMAT={-:-/ absolute / metric / decimal}
FMAT,2
METRIC,TZ
T1C0.400
T2C0.800
T3C1.000
T4C1.200
T5C1.300
T6C2.000
%
G90
G05
M71
T1
X153.391Y-50.709
X156.75Y-107.05
X157.35Y-108.4
X159.55Y-60.05
X164.15Y-89.85
X164.7Y-88.8
X167.15Y-89.55
X168.2Y-57.25
X168.6Y-93.6
X170.1Y-92.4
X170.4Y-97.15
X170.7Y-64.85
X170.9Y-60.9
X171.85Y-34.2
X172.45Y-114.95
X172.85Y-91.55
X173.Y-88.45
X173.45Y-85.15
X173.7Y-77.7
X174.55Y-96.35
X174.65Y-97.65
X174.729Y-94.479
X174.8Y-62.1
X175.25Y-44.05
X176.45Y-124.7
X176.75Y-87.15
X176.8Y-101.55
X177.448Y-126.931
X177.6Y-70.1
X177.705Y-81.25
X177.85Y-49.65
X178.25Y-82.
X178.5Y-115.6
X179.05Y-92.
X179.5Y-93.95
X179.7Y-59.55
X179.7Y-79.7
X179.95Y-116.35
X180.4Y-64.75
X180.753Y-111.361
X180.8Y-71.75
X180.85Y-99.45
X181.7Y-109.7
X183.6Y-104.8
X184.1Y-95.3
X185.35Y-88.3
X186.25Y-69.9
X186.75Y-127.55
X187.55Y-98.75
X188.35Y-80.9
X189.966Y-105.065
X190.65Y-105.65
X192.4Y-73.8
X193.35Y-115.5
X193.553Y-71.515
X194.05Y-97.55
X194.1Y-100.8
X194.3Y-102.55
X194.396Y-104.022
X194.55Y-68.25
X195.45Y-103.4
X195.5Y-110.05
X199.4Y-104.5
T3
X155.5Y-36.9
X155.5Y-39.4
X155.5Y-41.9
X155.5Y-56.9
X155.5Y-59.4
X155.5Y-61.9
X180.5Y-36.9
X180.5Y-39.4
X180.5Y-41.9
T4
X152.65Y-109.75
X152.65Y-112.25
X152.65Y-114.75
X152.65Y-117.25
X152.65Y-119.75
X152.65Y-122.25
X152.65Y-124.75
X152.65Y-127.25
X155.15Y-109.75
X155.15Y-112.25
X155.15Y-114.75
X155.15Y-117.25
X155.15Y-119.75
X155.15Y-122.25
X155.15Y-124.75
X155.15Y-127.25
T5
X151.31Y-118.5
T6
X162.5Y-35.
X162.5Y-43.8
X162.5Y-55.
X162.5Y-63.8
X187.5Y-35.
X187.5Y-43.8
T2
X158.7Y-81.825G85X158.7Y-82.575
G05
X158.7Y-96.825G85X158.7Y-97.575
G05
X158.7Y-111.825G85X158.7Y-112.575
G05
X158.7Y-124.325G85X158.7Y-125.075
G05
X161.775Y-77.6G85X161.025Y-77.6
G05
X161.775Y-92.6G85X161.025Y-92.6
G05
X161.775Y-107.6G85X161.025Y-107.6
G05
X161.775Y-120.1G85X161.025Y-120.1
G05
X166.8Y-81.825G85X166.8Y-82.575
G05
X166.8Y-96.825G85X166.8Y-97.575
G05
X166.8Y-111.825G85X166.8Y-112.575
G05
X166.8Y-124.325G85X166.8Y-125.075
G05
X182.3Y-56.725G85X182.3Y-57.475
G05
X182.3Y-69.225G85X182.3Y-69.975
G05
X182.3Y-81.725G85X182.3Y-82.475
G05
X182.3Y-96.725G85X182.3Y-97.475
G05
X182.3Y-111.225G85X182.3Y-111.975
G05
X182.3Y-124.225G85X182.3Y-124.975
G05
X185.375Y-52.5G85X184.625Y-52.5
G05
X185.375Y-65.G85X184.625Y-65.
G05
X185.375Y-77.5G85X184.625Y-77.5
G05
X185.375Y-92.5G85X184.625Y-92.5
G05
X185.375Y-107.G85X184.625Y-107.
G05
X185.375Y-120.G85X184.625Y-120.
G05
X190.4Y-56.725G85X190.4Y-57.475
G05
X190.4Y-69.225G85X190.4Y-69.975
G05
X190.4Y-81.725G85X190.4Y-82.475
G05
X190.4Y-96.725G85X190.4Y-97.475
G05
X190.4Y-111.225G85X190.4Y-111.975
G05
X190.4Y-124.225G85X190.4Y-124.975
G05
T0
M30
