M48
;DRILL file {KiCad 4.0.7} date 02/11/18 21:02:53
;FORMAT={-:-/ absolute / inch / decimal}
FMAT,2
INCH,TZ
T1C0.016
T2C0.031
T3C0.039
T4C0.047
T5C0.051
T6C0.079
%
G90
G05
M72
T1
X6.039Y-1.9964
X6.1713Y-4.2146
X6.1949Y-4.2677
X6.2028Y-4.2283
X6.2067Y-4.2008
X6.2343Y-4.2638
X6.2815Y-2.3642
X6.4626Y-3.5374
X6.4843Y-3.4961
X6.5807Y-3.5256
X6.622Y-2.2539
X6.6378Y-3.685
X6.6969Y-3.6378
X6.7087Y-3.8248
X6.7205Y-2.5531
X6.7283Y-2.3976
X6.7657Y-1.3465
X6.8051Y-3.6043
X6.811Y-3.4823
X6.8287Y-3.3524
X6.8386Y-3.0591
X6.872Y-3.7933
X6.876Y-3.8445
X6.8791Y-3.7196
X6.8819Y-2.4449
X6.8996Y-1.7343
X6.9469Y-4.9094
X6.9587Y-3.4311
X6.9606Y-3.998
X6.9862Y-4.9973
X6.9921Y-2.7598
X6.9963Y-3.1988
X7.002Y-1.9547
X7.0177Y-3.2283
X7.0276Y-4.5512
X7.0492Y-3.622
X7.0669Y-3.6988
X7.0748Y-2.3445
X7.0748Y-3.1378
X7.0846Y-4.5807
X7.1024Y-2.5492
X7.1102Y-4.3957
X7.1181Y-2.8248
X7.1201Y-3.9154
X7.1535Y-4.3189
X7.2283Y-4.126
X7.248Y-3.752
X7.2972Y-3.4764
X7.3327Y-2.752
X7.3524Y-5.0217
X7.3839Y-3.8878
X7.4154Y-3.185
X7.479Y-4.1364
X7.5059Y-4.1594
X7.5748Y-2.9055
X7.5827Y-4.5906
X7.6202Y-2.8156
X7.6398Y-3.8406
X7.6417Y-3.9685
X7.6496Y-4.0374
X7.6534Y-4.0954
X7.6594Y-2.687
X7.6949Y-4.0709
X7.6969Y-4.3327
X7.8504Y-4.1142
T3
X6.122Y-1.4528
X6.122Y-1.5512
X6.122Y-1.6496
X6.122Y-2.2402
X6.122Y-2.3386
X6.122Y-2.437
X7.1063Y-1.4528
X7.1063Y-1.5512
X7.1063Y-1.6496
T4
X6.0098Y-4.3209
X6.0098Y-4.4193
X6.0098Y-4.5177
X6.0098Y-4.6161
X6.0098Y-4.7146
X6.0098Y-4.813
X6.0098Y-4.9114
X6.0098Y-5.0098
X6.1083Y-4.3209
X6.1083Y-4.4193
X6.1083Y-4.5177
X6.1083Y-4.6161
X6.1083Y-4.7146
X6.1083Y-4.813
X6.1083Y-4.9114
X6.1083Y-5.0098
T5
X5.9571Y-4.6654
T6
X6.3976Y-1.378
X6.3976Y-1.7244
X6.3976Y-2.1654
X6.3976Y-2.5118
X7.3819Y-1.378
X7.3819Y-1.7244
T2
X6.248Y-3.2215G85X6.248Y-3.251
G05
X6.248Y-3.812G85X6.248Y-3.8415
G05
X6.248Y-4.4026G85X6.248Y-4.4321
G05
X6.248Y-4.8947G85X6.248Y-4.9242
G05
X6.3691Y-3.0551G85X6.3396Y-3.0551
G05
X6.3691Y-3.6457G85X6.3396Y-3.6457
G05
X6.3691Y-4.2362G85X6.3396Y-4.2362
G05
X6.3691Y-4.7283G85X6.3396Y-4.7283
G05
X6.5669Y-3.2215G85X6.5669Y-3.251
G05
X6.5669Y-3.812G85X6.5669Y-3.8415
G05
X6.5669Y-4.4026G85X6.5669Y-4.4321
G05
X6.5669Y-4.8947G85X6.5669Y-4.9242
G05
X7.1772Y-2.2333G85X7.1772Y-2.2628
G05
X7.1772Y-2.7254G85X7.1772Y-2.7549
G05
X7.1772Y-3.2175G85X7.1772Y-3.247
G05
X7.1772Y-3.8081G85X7.1772Y-3.8376
G05
X7.1772Y-4.3789G85X7.1772Y-4.4085
G05
X7.1772Y-4.8907G85X7.1772Y-4.9203
G05
X7.2982Y-2.0669G85X7.2687Y-2.0669
G05
X7.2982Y-2.5591G85X7.2687Y-2.5591
G05
X7.2982Y-3.0512G85X7.2687Y-3.0512
G05
X7.2982Y-3.6417G85X7.2687Y-3.6417
G05
X7.2982Y-4.2126G85X7.2687Y-4.2126
G05
X7.2982Y-4.7244G85X7.2687Y-4.7244
G05
X7.4961Y-2.2333G85X7.4961Y-2.2628
G05
X7.4961Y-2.7254G85X7.4961Y-2.7549
G05
X7.4961Y-3.2175G85X7.4961Y-3.247
G05
X7.4961Y-3.8081G85X7.4961Y-3.8376
G05
X7.4961Y-4.3789G85X7.4961Y-4.4085
G05
X7.4961Y-4.8907G85X7.4961Y-4.9203
G05
T0
M30
